<?xml version="1.0" standalone="no"?>
<!DOCTYPE svg PUBLIC "-//W3C//DTD SVG 1.1//EN" "http://www.w3.org/Graphics/SVG/1.1/DTD/svg11.dtd" >
<svg xmlns="http://www.w3.org/2000/svg" xmlns:xlink="http://www.w3.org/1999/xlink" version="1.1">
<metadata>
Created by FontForge 20201107 at Wed Feb  8 15:05:26 2017
 By 
Copyright (c)2016. HK Nova is a trademark of Alfredo Marco Pradil. All rights reserved.
</metadata>
<defs>
<font id="HKNova-Medium" horiz-adv-x="0" >
  <font-face 
    font-family="HK Nova Medium"
    font-weight="500"
    font-stretch="normal"
    units-per-em="2048"
    panose-1="0 0 6 0 0 0 0 0 0 0"
    ascent="1536"
    descent="-512"
    x-height="1059"
    cap-height="1536"
    bbox="-1654 -583 2997 2538"
    underline-thickness="121"
    underline-position="-99"
    unicode-range="U+0020-FB02"
  />
<missing-glyph horiz-adv-x="1217" 
d="M167 1536h883v-1536h-883v1536zM876 174v1188h-535v-1188h535z" />
    <glyph glyph-name="fi" unicode="fi" horiz-adv-x="1276" 
d="M694 888h-261v-888h-223v888h-173v171h173v154q0 164 84 253.5t236 89.5q77 0 162 -25v-183q-61 23 -112 23q-69 0 -108 -42.5t-39 -122.5v-147h261v-171zM887 1059h222v-1059h-222v1059zM930.5 1297.5q-32.5 18.5 -51.5 50.5t-19 69q0 39 19 70.5t51 50t70 18.5
q37 0 69 -18.5t51 -50t19 -70.5q0 -37 -19 -69t-51 -50.5t-69 -18.5t-69.5 18.5z" />
    <glyph glyph-name="fl" unicode="fl" horiz-adv-x="1277" 
d="M694 888h-261v-888h-223v888h-173v171h173v154q0 164 84 253.5t236 89.5q77 0 162 -25v-183q-61 23 -112 23q-69 0 -108 -42.5t-39 -122.5v-147h261v-171zM887 1536h223v-1536h-223v1536z" />
    <glyph glyph-name="f_f" unicode="ff" horiz-adv-x="1370" 
d="M210 888h-173v171h173v167q0 100 39.5 174.5t112 115t171.5 40.5q42 0 85.5 -8t73.5 -23v-197q-24 16 -55 26t-59 10q-65 0 -105 -44t-40 -120v-141h427v167q0 100 39.5 174.5t112 115t171.5 40.5q42 0 85.5 -8t73.5 -23v-197q-24 16 -55 26t-59 10q-65 0 -105 -44
t-40 -120v-141h261v-171h-261v-888h-223v888h-427v-888h-223v888z" />
    <glyph glyph-name=".notdef" horiz-adv-x="1217" 
d="M167 1536h883v-1536h-883v1536zM876 174v1188h-535v-1188h535z" />
    <glyph glyph-name=".null" 
 />
    <glyph glyph-name="nonmarkingreturn" horiz-adv-x="682" 
 />
    <glyph glyph-name="space" unicode=" " horiz-adv-x="588" 
 />
    <glyph glyph-name="exclam" unicode="!" horiz-adv-x="672" 
d="M215 1536h228v-1060h-228v1060zM260 -1q-32 19 -51 51t-19 69q0 38 19 70t51 51t69 19t69.5 -19t51.5 -51t19 -70q0 -37 -19 -69t-51.5 -51t-69.5 -19t-69 19z" />
    <glyph glyph-name="quotedbl" unicode="&#x22;" horiz-adv-x="1049" 
d="M226 1536h216l-11 -647h-189zM607 1536h216l-15 -647h-191z" />
    <glyph glyph-name="numbersign" unicode="#" horiz-adv-x="1584" 
d="M389 349h-289l22 165h289l66 439h-291l27 163h285l51 353h162l-48 -353h367l50 353h164l-50 -353h292l-27 -163h-287l-62 -439h287l-22 -165h-286l-54 -349h-162l49 349h-371l-47 -349h-164zM944 514l64 439h-369l-62 -439h367z" />
    <glyph glyph-name="dollar" unicode="$" horiz-adv-x="1300" 
d="M1105.5 197q-53.5 -92 -146 -145.5t-209.5 -67.5v-155h-213v164q-122 24 -229.5 84.5t-183.5 145.5l149 170q75 -96 178.5 -152t215.5 -56q75 0 134 26.5t92.5 75.5t33.5 115q0 73 -41.5 124t-103.5 84t-178 83q-134 57 -217 107t-139 133.5t-56 207.5q0 108 44 193
t122 139t179 73v164h213v-163q106 -18 199 -69t168 -127l-132 -162q-84 85 -169.5 123.5t-175.5 38.5q-61 0 -110.5 -22t-79 -64.5t-29.5 -102.5q0 -68 39 -115t98 -78.5t168 -77.5l21 -9q127 -54 212 -106.5t142.5 -141.5t57.5 -220q0 -125 -53.5 -217z" />
    <glyph glyph-name="percent" unicode="%" horiz-adv-x="1717" 
d="M283 930.5q-77 45.5 -122.5 123t-45.5 169.5q0 90 45.5 166.5t122.5 121.5t168 45t167.5 -45t121.5 -121t45 -167q0 -92 -45 -169.5t-121.5 -123t-167.5 -45.5t-168 45.5zM299 0l894 1536h219l-892 -1536h-221zM533.5 1079q37.5 22 59.5 60.5t22 83.5q0 44 -22 81.5
t-60 60t-82 22.5q-45 0 -83 -22t-60.5 -60t-22.5 -82q0 -45 22.5 -83t60.5 -60.5t83 -22.5t82.5 22zM1099 29q-77 45 -122 122t-45 169q0 90 45 166.5t122 121.5t168 45t168 -45t122 -121.5t45 -166.5q0 -91 -45 -168t-122 -122.5t-168 -45.5t-168 45zM1350 176.5
q38 22.5 60 60.5t22 83q0 44 -22.5 81.5t-60.5 60t-82 22.5q-45 0 -83 -22t-60 -59.5t-22 -82.5t22 -83t60 -60.5t83 -22.5t83 22.5z" />
    <glyph glyph-name="ampersand" unicode="&#x26;" horiz-adv-x="1531" 
d="M345.5 32.5q-104.5 55.5 -163.5 157.5t-59 234q0 102 37.5 178.5t104.5 140t189 155.5q-79 90 -113.5 165.5t-34.5 154.5q0 96 45 173t124 120.5t179 43.5t180 -42t125.5 -116.5t45.5 -167.5q0 -76 -32 -137.5t-82.5 -110.5t-138.5 -120l274 -349l215 268l151 -134
l-235 -293l278 -354l-268 -2l-155 199q-105 -105 -209.5 -162t-222.5 -57q-130 0 -234.5 55.5zM729 1074.5q33 27.5 56.5 65.5t23.5 86q0 45 -22 79.5t-58 52.5t-78 18q-67 0 -109 -41.5t-42 -111.5q0 -38 13 -70t33 -60t57 -70q7 -9 23 -27q70 51 103 78.5zM724.5 226.5
q75.5 48.5 157.5 131.5l-301 384l-22 -16q-79 -59 -124.5 -98.5t-76.5 -91t-31 -113.5q0 -64 33.5 -120.5t89.5 -90.5t120 -34q79 0 154.5 48.5z" />
    <glyph glyph-name="quotesingle" unicode="'" horiz-adv-x="672" 
d="M227 1536h218l-14 -647h-190z" />
    <glyph glyph-name="parenleft" unicode="(" horiz-adv-x="698" 
d="M310 -212.5q-96 160.5 -148 383t-52 492.5q0 267 52.5 490t148 385t225.5 251l117 -147q-106 -74 -184.5 -212t-121.5 -333.5t-43 -433.5q0 -242 43 -436.5t121.5 -331t184.5 -210.5l-117 -148q-130 90 -226 250.5z" />
    <glyph glyph-name="parenright" unicode=")" horiz-adv-x="698" 
d="M45 -315q106 74 184.5 210.5t121.5 331t43 436.5q0 238 -43 433.5t-121.5 333.5t-184.5 212l117 147q130 -89 225.5 -251t148 -385t52.5 -490q0 -270 -52 -492.5t-148 -383t-226 -250.5z" />
    <glyph glyph-name="asterisk" unicode="*" horiz-adv-x="1000" 
d="M262 938l208 265l-338 -43v124l338 -45l-208 268l108 62l130 -311l128 311l110 -62l-210 -268l337 45v-124l-337 43l210 -265l-110 -65l-128 311l-130 -311z" />
    <glyph glyph-name="plus" unicode="+" horiz-adv-x="1245" 
d="M526 590h-397v193h397v397h193v-397h397v-193h-397v-397h-193v397z" />
    <glyph glyph-name="comma" unicode="," horiz-adv-x="677" 
d="M180 -376l109 642h246l-190 -642h-165z" />
    <glyph glyph-name="hyphen" unicode="-" horiz-adv-x="1044" 
d="M164 624h717v-183h-717v183z" />
    <glyph glyph-name="period" unicode="." horiz-adv-x="668" 
d="M264 -1.5q-32 18.5 -51 50.5t-19 70q0 37 19 69t51 51.5t69 19.5t69.5 -19.5t51.5 -51.5t19 -69q0 -38 -19 -70t-51.5 -50.5t-69.5 -18.5t-69 18.5z" />
    <glyph glyph-name="slash" unicode="/" horiz-adv-x="1210" 
d="M995 1536h216l-995 -1909h-217z" />
    <glyph glyph-name="zero" unicode="0" horiz-adv-x="1303" 
d="M357 70q-127 90 -197 267t-70 431q0 256 67.5 432.5t193.5 266t301 89.5q174 0 299.5 -89.5t193.5 -266t68 -432.5q0 -254 -70.5 -431t-197 -267t-293.5 -90q-168 0 -295 90zM893.5 335.5q86.5 144.5 86.5 432.5q0 301 -88.5 439t-238.5 138q-151 0 -240 -138t-89 -439
q0 -288 86.5 -432.5t242.5 -144.5q154 0 240.5 144.5z" />
    <glyph glyph-name="one" unicode="1" horiz-adv-x="1303" 
d="M1117 211v-211h-879v211h324v1061l-324 -258v245l352 277h203v-1325h324z" />
    <glyph glyph-name="two" unicode="2" horiz-adv-x="1303" 
d="M1173 211v-211h-1028v188q308 277 466.5 451.5t211 278.5t52.5 196q0 84 -33.5 139t-88 80t-120.5 25q-117 0 -182.5 -71.5t-65.5 -197.5l-243 1q0 140 63.5 246.5t176.5 164.5t255 58q134 0 241 -52.5t168 -148t61 -219.5q1 -212 -162 -436.5t-472 -491.5h700z" />
    <glyph glyph-name="three" unicode="3" horiz-adv-x="1303" 
d="M1100.5 695.5q80.5 -100.5 80.5 -251.5q0 -139 -70 -244.5t-193.5 -162.5t-280.5 -57q-148 0 -270.5 54t-194.5 158.5t-72 247.5l235 1q0 -80 40 -137t108.5 -86.5t153.5 -29.5q94 0 164 32.5t107.5 93t37.5 141.5q0 84 -39.5 143.5t-109.5 90t-160 30.5h-135v197h128
q69 0 123.5 28.5t84.5 79t30 116.5q0 96 -63 153t-170 57q-108 0 -173.5 -55.5t-65.5 -149.5h-233q0 122 62 215.5t169.5 144.5t239.5 51q129 0 234 -51t165 -142t60 -206q0 -114 -57 -197t-150 -123q134 -41 214.5 -141.5z" />
    <glyph glyph-name="four" unicode="4" horiz-adv-x="1303" 
d="M1251 311h-251v-311h-232v311h-713v176l642 1049h303v-1014h251v-211zM768 522v805l-475 -805h475z" />
    <glyph glyph-name="five" unicode="5" horiz-adv-x="1303" 
d="M1029.5 848q142.5 -123 142.5 -346q0 -157 -66.5 -275t-186 -181.5t-274.5 -63.5q-138 0 -256.5 54t-194 158.5t-84.5 247.5h239q12 -83 56 -138.5t106.5 -82t133.5 -26.5q89 0 156 36t103.5 103.5t36.5 157.5q0 131 -85 203t-265 72h-439l146 769h824v-211h-655
l-63 -354h199q284 0 426.5 -123z" />
    <glyph glyph-name="six" unicode="6" horiz-adv-x="1303" 
d="M1129.5 245.5q-73.5 -121.5 -197.5 -192.5t-269 -71q-151 0 -278.5 67t-204 184.5t-80.5 261.5q-4 98 30.5 190t102.5 181l517 670h275l-413 -509q46 10 108 9q117 -7 229 -73.5t183 -184t71 -267.5q0 -144 -73.5 -265.5zM822.5 240q72.5 42 113 113.5t40.5 157.5
q0 97 -43 172.5t-117.5 117.5t-166.5 42q-98 0 -172 -43.5t-114 -118t-40 -165.5q0 -94 42.5 -166.5t119 -112t174.5 -39.5q91 0 163.5 42z" />
    <glyph glyph-name="seven" unicode="7" horiz-adv-x="1303" 
d="M1181 1536v-197l-734 -1339h-268l746 1325h-796v211h1052z" />
    <glyph glyph-name="eight" unicode="8" horiz-adv-x="1303" 
d="M362 36.5q-124 56.5 -195 161.5t-71 245q0 142 75.5 245t209.5 152q-95 48 -147.5 130t-52.5 189q0 117 60 207.5t165 140t234 49.5t233.5 -49.5t164.5 -140t60 -207.5q0 -107 -52 -189t-146 -130q134 -49 209 -152t75 -245q0 -139 -71 -244t-195 -162t-278 -57
t-278 56.5zM763.5 948q53.5 29 82.5 79.5t29 112.5t-29 110t-82.5 75t-123.5 27t-123.5 -27t-82.5 -75t-29 -110t29.5 -112.5t83 -79.5t122.5 -29q70 0 123.5 29zM802 223.5q71 32.5 110.5 94t39.5 145.5t-40 144.5t-110.5 92.5t-161.5 32t-161.5 -32t-110.5 -92.5
t-40 -144.5t39.5 -145.5t110.5 -94t162 -32.5t162 32.5z" />
    <glyph glyph-name="nine" unicode="9" horiz-adv-x="1303" 
d="M1172.5 851q-34.5 -92 -102.5 -181l-517 -670h-275l412 509q-45 -10 -107 -9q-116 7 -228 75.5t-183.5 186.5t-71.5 263q0 144 73.5 265.5t197.5 192.5t269 71q152 0 279.5 -67t203.5 -184.5t80 -261.5q4 -98 -30.5 -190zM826 736.5q74 43.5 114 118t40 165.5
q0 94 -42.5 166.5t-119 112t-174.5 39.5q-91 0 -163.5 -42t-113 -113.5t-40.5 -157.5q0 -97 43 -172.5t117.5 -117.5t166.5 -42q98 0 172 43.5z" />
    <glyph glyph-name="colon" unicode=":" horiz-adv-x="644" 
d="M253 784q-32 19 -51.5 51t-19.5 70q0 37 19.5 69t51.5 51t69 19t69 -19t51.5 -51t19.5 -69q0 -38 -19.5 -70t-51.5 -51t-69 -19t-69 19zM252.5 -1.5q-32.5 18.5 -51.5 50.5t-19 70q0 37 19.5 69t51.5 51.5t69 19.5t69 -19.5t51.5 -51.5t19.5 -69q0 -38 -19 -70
t-51.5 -50.5t-69.5 -18.5t-69.5 18.5z" />
    <glyph glyph-name="semicolon" unicode=";" horiz-adv-x="672" 
d="M294 784q-32 19 -51 51t-19 70q0 37 19 69t51 51t70 19q37 0 69 -19t51.5 -51t19.5 -69q0 -38 -19.5 -70t-51.5 -51t-69 -19q-38 0 -70 19zM252 266h247l-190 -642h-165z" />
    <glyph glyph-name="less" unicode="&#x3c;" horiz-adv-x="1398" 
d="M1248 1210l-931 -470l931 -470v-217l-1130 572v231l1130 567v-213z" />
    <glyph glyph-name="equal" unicode="=" horiz-adv-x="1294" 
d="M250 998h794v-193h-794v193zM250 570h794v-192h-794v192z" />
    <glyph glyph-name="greater" unicode="&#x3e;" horiz-adv-x="1398" 
d="M1280 856v-231l-1130 -572v217l931 470l-931 470v213z" />
    <glyph glyph-name="question" unicode="?" horiz-adv-x="1132" 
d="M453 850q115 0 191 14.5t128 71t52 172.5q0 74 -35 130.5t-96 87t-137 30.5q-77 0 -137 -32.5t-94.5 -90t-36.5 -130.5h-203q0 127 61 228.5t168 159t241 57.5t241 -55t168 -155t61 -229q0 -145 -59 -234t-141.5 -127.5t-165.5 -45.5v-253h-206v401zM493.5 -1.5
q-32.5 18.5 -51.5 50.5t-19 70q0 37 19 69.5t51.5 51.5t69.5 19q38 0 70 -19t50.5 -51.5t18.5 -69.5q0 -38 -18.5 -70t-50.5 -50.5t-70 -18.5q-37 0 -69.5 18.5z" />
    <glyph glyph-name="at" unicode="@" horiz-adv-x="1790" 
d="M1222 488q-17 -85 -17 -127q0 -48 19 -71.5t63 -23.5q58 0 105 42t74 120t27 180q0 167 -72.5 286t-200.5 180t-292 61q-180 0 -318 -81t-214 -222.5t-76 -317.5q0 -185 80.5 -323t221.5 -211.5t316 -73.5q146 0 261.5 39t211.5 116l88 -118q-116 -92 -263 -138.5
t-313 -46.5q-224 0 -400.5 96t-276 269t-99.5 394q0 216 104.5 391t284 274.5t394.5 99.5q193 0 357 -76t263 -225t99 -358q0 -164 -55.5 -277.5t-146 -169t-193.5 -55.5q-85 0 -134 41t-56 103q-18 -33 -53 -65.5t-86.5 -54.5t-113.5 -22q-91 0 -157.5 42.5t-102 118.5
t-35.5 173q0 116 50.5 223t142.5 173.5t212 66.5q78 0 136.5 -33.5t80.5 -84.5l20 90h145zM1042 724.5q-37 55.5 -121 55.5q-70 0 -123 -49t-81.5 -125t-28.5 -155q0 -72 35.5 -129.5t117.5 -57.5q80 0 133.5 50.5t79 124.5t25.5 143q0 87 -37 142.5z" />
    <glyph glyph-name="A" unicode="A" horiz-adv-x="1574" 
d="M1151 332h-728l-127 -332h-245l609 1536h253l609 -1536h-244zM1072 540l-285 744l-284 -744h569z" />
    <glyph glyph-name="B" unicode="B" horiz-adv-x="1390" 
d="M1216 661.5q77 -96.5 77 -246.5q0 -122 -56.5 -216.5t-159.5 -146.5t-237 -52h-630v1536h508q136 0 241.5 -51.5t163.5 -146t58 -217.5q0 -114 -46 -196t-132 -130q136 -37 213 -133.5zM897.5 1267q-59.5 61 -185.5 61h-271v-454h271q72 0 128 30t86.5 82t30.5 117
q0 103 -59.5 164zM947.5 241.5q56.5 30.5 85 83t28.5 117.5q0 64 -31 117t-88.5 84t-132.5 31h-368v-463h368q82 0 138.5 30.5z" />
    <glyph glyph-name="C" unicode="C" horiz-adv-x="1543" 
d="M499 84q-183 104 -289 284.5t-106 399.5t106 399.5t289 284.5t405 104q159 0 312 -63.5t260 -172.5l-168 -160q-76 80 -182.5 125.5t-221.5 45.5q-156 0 -285 -74.5t-204 -203.5t-75 -285t75 -285t204 -203.5t285 -74.5q115 0 221.5 45.5t182.5 125.5l168 -160
q-107 -109 -260 -172.5t-312 -63.5q-222 0 -405 104z" />
    <glyph glyph-name="D" unicode="D" horiz-adv-x="1592" 
d="M210 1536h496q245 0 419 -94.5t264.5 -267.5t90.5 -406t-90.5 -406t-264.5 -267.5t-419 -94.5h-496v1536zM698 214q268 0 404 142.5t136 411.5t-136 411.5t-404 142.5h-253v-1108h253z" />
    <glyph glyph-name="E" unicode="E" horiz-adv-x="1213" 
d="M446 1322v-449h565v-213h-565v-446h645v-214h-881v1536h881v-214h-645z" />
    <glyph glyph-name="F" unicode="F" horiz-adv-x="1177" 
d="M446 1322v-448h565v-212h-565v-662h-236v1536h887v-214h-651z" />
    <glyph glyph-name="G" unicode="G" horiz-adv-x="1786" 
d="M1703 770q0 -219 -105.5 -400t-288.5 -285.5t-405 -104.5q-221 0 -404.5 104.5t-289.5 285t-106 398.5t106 398.5t289.5 285t404.5 104.5q209 0 385.5 -94.5t284.5 -257.5l-206 -115q-76 112 -198.5 177t-266.5 65q-155 0 -284 -75t-204 -204.5t-75 -287.5
q0 -154 73 -282t202 -202.5t290 -74.5q136 0 250 53t190.5 149t105.5 220h-414v205h663q3 -27 3 -62z" />
    <glyph glyph-name="H" unicode="H" horiz-adv-x="1646" 
d="M1436 1536v-1536h-236v664h-754v-664h-236v1536h236v-661h754v661h236z" />
    <glyph glyph-name="I" unicode="I" horiz-adv-x="656" 
d="M210 1536h236v-1536h-236v1536z" />
    <glyph glyph-name="J" unicode="J" horiz-adv-x="1095" 
d="M221 3q-91 23 -173 68l104 201q51 -35 117 -53.5t129 -18.5q88 0 150.5 38.5t94.5 107.5t32 160v1030h236v-1071q0 -145 -64 -255t-179.5 -170t-264.5 -60q-91 0 -182 23z" />
    <glyph glyph-name="K" unicode="K" horiz-adv-x="1426" 
d="M1073 0l-627 781v-781h-236v1536h236v-671l581 671h300l-632 -711l684 -825h-306z" />
    <glyph glyph-name="L" unicode="L" horiz-adv-x="1052" 
d="M991 214v-214h-781v1536h236v-1322h545z" />
    <glyph glyph-name="M" unicode="M" horiz-adv-x="2010" 
d="M1800 1536v-1536h-236v1171l-502 -1171h-116l-500 1172v-1172h-236v1536h300l494 -1146l496 1146h300z" />
    <glyph glyph-name="N" unicode="N" horiz-adv-x="1810" 
d="M1601 1536v-1536h-200l-962 1169v-1169h-229v1536h198l963 -1166v1166h230z" />
    <glyph glyph-name="O" unicode="O" horiz-adv-x="1807" 
d="M499.5 84.5q-183.5 104.5 -289.5 285t-106 398.5t106 398.5t289.5 285t404.5 104.5t404 -104.5t289 -285t106 -398.5t-106 -398.5t-289 -285t-404 -104.5t-404.5 104.5zM1188 279.5q129 74.5 204 203.5t75 285t-75 285t-204 203.5t-284 74.5t-284.5 -74.5t-204.5 -204
t-75 -284.5t75 -284.5t204.5 -204t284.5 -74.5t284 74.5z" />
    <glyph glyph-name="P" unicode="P" horiz-adv-x="1410" 
d="M1091.5 1472q111.5 -64 172.5 -174t61 -242q0 -134 -61 -242t-172 -170t-255 -62h-391v-582h-236v1536h627q143 0 254.5 -64zM1018 858q76 72 76 199q0 81 -34.5 143.5t-99.5 97t-154 34.5h-360v-546h360q136 0 212 72z" />
    <glyph glyph-name="Q" unicode="Q" horiz-adv-x="1835" 
d="M1539 -91l-193 199q-96 -62 -208 -95t-234 -33q-221 0 -404.5 104.5t-289.5 285t-106 398.5t106 398.5t289.5 285t404.5 104.5t404 -104.5t289 -285t106 -398.5q0 -153 -54 -290.5t-153 -244.5l228 -233zM1183 277l-300 309l189 81l261 -267q64 75 99 169t35 199
q0 156 -75 285t-204 203.5t-284 74.5t-284.5 -74.5t-204.5 -204t-75 -284.5t75 -284.5t204.5 -204t284.5 -74.5q151 0 279 72z" />
    <glyph glyph-name="R" unicode="R" horiz-adv-x="1433" 
d="M749 665h-303v-665h-236v1536h588q135 0 239.5 -59t162 -160t57.5 -223q0 -95 -36 -176.5t-101 -140t-150 -87.5l406 -690h-256zM446 867h333q113 0 180 60t67 167q0 69 -31 122t-87 82.5t-129 29.5h-333v-461z" />
    <glyph glyph-name="S" unicode="S" horiz-adv-x="1208" 
d="M320.5 46.5q-146.5 66.5 -244.5 176.5l149 170q75 -96 178.5 -152t215.5 -56q75 0 134 26.5t92.5 75.5t33.5 115q0 73 -41.5 124t-103.5 84t-178 83q-134 57 -217 107t-139 133.5t-56 207.5q0 126 59.5 220t162 144.5t228.5 50.5q140 0 260 -54.5t215 -150.5l-132 -162
q-84 85 -169.5 123.5t-175.5 38.5q-61 0 -110.5 -22t-79 -64.5t-29.5 -102.5q0 -68 39 -115t98 -78.5t168 -77.5l21 -9q127 -54 212 -106.5t142.5 -141.5t57.5 -220q0 -138 -65 -236t-176 -148t-245 -50q-158 0 -304.5 66.5z" />
    <glyph glyph-name="T" unicode="T" horiz-adv-x="1174" 
d="M1113 1322h-408v-1322h-236v1322h-409v214h1053v-214z" />
    <glyph glyph-name="U" unicode="U" horiz-adv-x="1564" 
d="M471.5 45q-136.5 65 -214.5 187t-78 286v1018h236v-975q0 -188 99 -277.5t267 -89.5q169 0 268.5 89.5t99.5 277.5v975h236v-1018q0 -164 -78 -286t-215 -187t-311 -65q-173 0 -309.5 65z" />
    <glyph glyph-name="V" unicode="V" horiz-adv-x="1524" 
d="M1473 1536l-603 -1536h-217l-602 1536h244l467 -1235l467 1235h244z" />
    <glyph glyph-name="W" unicode="W" horiz-adv-x="2232" 
d="M2170 1536l-450 -1536h-241l-363 1184l-363 -1184h-241l-450 1536h245l338 -1208l363 1208h216l363 -1208l339 1208h244z" />
    <glyph glyph-name="X" unicode="X" horiz-adv-x="1420" 
d="M1087 0l-378 589l-375 -589h-278l526 783l-506 753h277l357 -556l358 556h276l-507 -751l528 -785h-278z" />
    <glyph glyph-name="Y" unicode="Y" horiz-adv-x="1389" 
d="M814 727v-727h-236v722l-538 814h279l377 -601l378 601h275z" />
    <glyph glyph-name="Z" unicode="Z" horiz-adv-x="1265" 
d="M1162 1341l-769 -1127h769v-214h-1059v192l772 1130h-772v214h1059v-195z" />
    <glyph glyph-name="bracketleft" unicode="[" horiz-adv-x="687" 
d="M167 1808h464v-166h-265v-1987h265v-167h-464v2320z" />
    <glyph glyph-name="backslash" unicode="\" horiz-adv-x="1210" 
d="M-1 1536h217l995 -1909h-216z" />
    <glyph glyph-name="bracketright" unicode="]" horiz-adv-x="687" 
d="M56 -512v167h265v1987h-265v166h464v-2320h-464z" />
    <glyph glyph-name="asciicircum" unicode="^" horiz-adv-x="1536" 
d="M1247 406l-479 951l-479 -951h-193l569 1130h206l569 -1130h-193z" />
    <glyph glyph-name="underscore" unicode="_" horiz-adv-x="1352" 
d="M164 6h1024v-183h-1024v183z" />
    <glyph glyph-name="grave" unicode="`" horiz-adv-x="495" 
d="M59 1460l123 91l264 -343h-157z" />
    <glyph glyph-name="a" unicode="a" horiz-adv-x="1374" 
d="M342 53q-120 73 -191.5 199t-71.5 279q0 152 71.5 277.5t191.5 198t260 72.5q123 0 220 -45.5t163 -128.5v154h222v-1059h-223v154q-65 -82 -162 -128t-220 -46q-140 0 -260 73zM827 224q80 46 126 127t46 180t-46 179t-126 126t-176 46t-176 -46t-127 -126t-47 -179
t47 -180t127 -127t176 -46t176 46z" />
    <glyph glyph-name="b" unicode="b" horiz-adv-x="1374" 
d="M552.5 25.5q-97.5 46.5 -162.5 128.5v-154h-223v1536h222l1 -631q65 83 162.5 130t219.5 47q140 0 260 -73t191.5 -199.5t71.5 -278.5q0 -153 -71.5 -279.5t-191.5 -199.5t-260 -73q-122 0 -219.5 46.5zM899 224q80 46 127 127t47 180t-47 179t-127 126t-176 46t-176 -46
t-126 -126t-46 -179t46 -180t126 -127t176 -46t176 46z" />
    <glyph glyph-name="c" unicode="c" horiz-adv-x="1143" 
d="M356.5 54q-129.5 72 -204.5 197.5t-75 278.5t75 279t204.5 198t286.5 72q138 0 256.5 -57.5t196.5 -158.5l-167 -134q-47 71 -121.5 110.5t-165.5 39.5q-97 0 -177 -45.5t-126 -125t-46 -178.5q0 -98 46 -178t126 -125.5t177 -45.5q91 0 165.5 40t121.5 111l167 -134
q-78 -101 -196.5 -158.5t-256.5 -57.5q-157 0 -286.5 72z" />
    <glyph glyph-name="d" unicode="d" horiz-adv-x="1374" 
d="M342 52q-120 73 -191.5 199.5t-71.5 279.5q0 152 71.5 278.5t191.5 199.5t260 73q122 0 219.5 -47t162.5 -130l1 631h222v-1536h-223v154q-65 -82 -162.5 -128.5t-219.5 -46.5q-140 0 -260 73zM827 224q80 46 126 127t46 180t-46 179t-126 126t-176 46t-176 -46
t-127 -126t-47 -179t47 -180t127 -127t176 -46t176 46z" />
    <glyph glyph-name="e" unicode="e" horiz-adv-x="1247" 
d="M1179 498h-887q5 -96 52.5 -172t124.5 -118t169 -42q93 0 172 43t127 121l181 -77q-69 -128 -195 -200.5t-284 -72.5q-160 0 -288.5 73t-201 199t-72.5 278q0 151 73 277t200.5 199.5t283.5 73.5q150 0 274 -69t197 -192t76 -277zM425 834q-89 -69 -120 -184h647
q-16 76 -60.5 133.5t-111 88.5t-145.5 31q-121 0 -210 -69z" />
    <glyph glyph-name="f" unicode="f" horiz-adv-x="720" 
d="M694 888h-261v-888h-223v888h-173v171h173v154q0 164 84 253.5t236 89.5q77 0 162 -25v-183q-61 23 -112 23q-69 0 -108 -42.5t-39 -122.5v-147h261v-171z" />
    <glyph glyph-name="g" unicode="g" horiz-adv-x="1345" 
d="M340.5 -435.5q-133.5 62.5 -226.5 207.5l156 127q115 -204 355 -204q161 0 245 86.5t84 236.5v161q-59 -79 -148.5 -123t-204.5 -44q-146 0 -265.5 70.5t-189 192.5t-69.5 272t69 271.5t188.5 191t264.5 69.5q116 0 205 -44t150 -124v148h224v-1028q0 -159 -64.5 -278
t-188 -185t-295.5 -66q-156 0 -289.5 62.5zM800.5 255q76.5 44 121.5 121t45 171q0 95 -45 172t-121.5 121.5t-168.5 44.5q-91 0 -167.5 -44.5t-121 -121.5t-44.5 -172q0 -94 44.5 -171t121 -121t167.5 -44q92 0 168.5 44z" />
    <glyph glyph-name="h" unicode="h" horiz-adv-x="1239" 
d="M909 1030q89 -49 139 -147t50 -239v-644h-217v612q0 144 -65.5 209t-175.5 65q-74 0 -131 -31t-90 -93t-34 -152v-610h-218v1536h218v-628q52 82 133 126.5t185 44.5q117 0 206 -49z" />
    <glyph glyph-name="i" unicode="i" horiz-adv-x="556" 
d="M167 1059h222v-1059h-222v1059zM210.5 1297.5q-32.5 18.5 -51.5 50.5t-19 69q0 39 19 70.5t51 50t70 18.5q37 0 69 -18.5t51 -50t19 -70.5q0 -37 -19 -69t-51 -50.5t-69 -18.5t-69.5 18.5z" />
    <glyph glyph-name="j" unicode="j" horiz-adv-x="558" 
d="M-158 -305q158 0 241.5 86.5t83.5 236.5v1041h223v-1028q0 -159 -64.5 -278t-188 -185t-295.5 -66v193zM210.5 1297.5q-32.5 18.5 -51.5 50.5t-19 69q0 39 19 70.5t51 50t70 18.5q37 0 69 -18.5t51 -50t19 -70.5q0 -37 -19 -69t-51 -50.5t-69 -18.5t-69.5 18.5z" />
    <glyph glyph-name="k" unicode="k" horiz-adv-x="1167" 
d="M868 0l-478 526v-526h-223v1536h223v-934l419 457h281l-465 -488l533 -571h-290z" />
    <glyph glyph-name="l" unicode="l" horiz-adv-x="557" 
d="M167 1536h223v-1536h-223v1536z" />
    <glyph glyph-name="m" unicode="m" horiz-adv-x="1802" 
d="M1483.5 1034.5q81.5 -44.5 127 -125t45.5 -185.5v-724h-222v654q0 117 -55.5 173t-144.5 56q-97 0 -154 -62t-57 -175v-646h-223v654q0 117 -55 173t-145 56q-97 0 -153.5 -61.5t-56.5 -175.5v-646h-223v1059h223v-148q48 80 125 124t175 44q101 0 177.5 -41.5
t116.5 -126.5q52 80 132 124t180 44q106 0 187.5 -44.5z" />
    <glyph glyph-name="n" unicode="n" horiz-adv-x="1245" 
d="M914 1030q89 -49 139 -147t50 -239v-644h-223v612q0 274 -237 274q-73 0 -130 -31.5t-90 -95t-33 -154.5v-605h-223v1059h223v-151q52 82 133 126.5t185 44.5q117 0 206 -49z" />
    <glyph glyph-name="o" unicode="o" horiz-adv-x="1286" 
d="M356.5 52.5q-129.5 72.5 -204.5 198t-75 279.5q0 153 75 278.5t204.5 198t286.5 72.5t286.5 -72.5t204.5 -198t75 -278.5q0 -154 -75 -279.5t-204.5 -198t-286.5 -72.5t-286.5 72.5zM818 226q80 46 127 126.5t47 177.5t-47 177t-127 126t-176 46t-176 -46t-126.5 -126
t-46.5 -177q0 -98 46.5 -178t126.5 -126t176 -46t176 46z" />
    <glyph glyph-name="p" unicode="p" horiz-adv-x="1374" 
d="M167 1059h223v-155q64 81 161.5 128t219.5 47q141 0 261 -73t191.5 -199t71.5 -278q0 -153 -71 -278.5t-191.5 -198t-261.5 -72.5q-120 0 -218 45.5t-163 128.5v-652h-223v1557zM900 222q80 46 126.5 127t46.5 180t-46.5 179.5t-126.5 126.5t-176 46t-176 -46
t-126.5 -126.5t-46.5 -179.5t46.5 -180t126.5 -127t176 -46t176 46z" />
    <glyph glyph-name="q" unicode="q" horiz-adv-x="1374" 
d="M984 -498v652q-65 -83 -163 -128.5t-218 -45.5q-141 0 -261.5 72.5t-191.5 198t-71 278.5q0 152 71.5 278t191.5 199t261 73q122 0 219.5 -47t161.5 -128v155h223v-1557h-223zM826 222q80 46 126.5 127t46.5 180t-46.5 179.5t-126.5 126.5t-176 46t-176 -46
t-126.5 -126.5t-46.5 -179.5t46.5 -180t126.5 -127t176 -46t176 46z" />
    <glyph glyph-name="r" unicode="r" horiz-adv-x="782" 
d="M529 1010q95 55 222 59v-213q-173 0 -267 -73t-94 -240v-543h-223v1059h217v-188q50 84 145 139z" />
    <glyph glyph-name="s" unicode="s" horiz-adv-x="961" 
d="M253 18.5q-109 38.5 -192 99.5l107 170q62 -53 148.5 -88.5t168.5 -35.5q81 0 129 34.5t48 97.5q0 45 -29 73.5t-71.5 45.5t-125.5 42q-103 32 -167.5 62.5t-110.5 90t-46 156.5q0 101 52.5 171.5t140 106t193.5 35.5q95 0 187 -28t169 -80l-110 -157q-59 43 -127.5 65.5
t-129.5 22.5q-73 0 -117.5 -30.5t-44.5 -84.5q0 -38 27.5 -64t69 -42.5t115.5 -38.5l36 -11q93 -28 157 -61.5t107.5 -96t43.5 -160.5q0 -106 -50.5 -181t-140 -113.5t-206.5 -38.5q-122 0 -231 38.5z" />
    <glyph glyph-name="t" unicode="t" horiz-adv-x="768" 
d="M430 888v-552q0 -75 39 -116t105 -41h115v-179h-160q-98 0 -170.5 36t-112 105.5t-39.5 168.5v578h-173v171h173v293h223v-293h261v-171h-261z" />
    <glyph glyph-name="u" unicode="u" horiz-adv-x="1191" 
d="M353.5 27q-102.5 47 -158 136.5t-55.5 212.5v683h220v-672q0 -103 64.5 -155.5t170.5 -52.5t170.5 52.5t64.5 155.5v672h220v-683q0 -123 -55.5 -212.5t-158 -136.5t-241.5 -47t-241.5 47z" />
    <glyph glyph-name="v" unicode="v" horiz-adv-x="1145" 
d="M1125 1059l-470 -1059h-167l-468 1059h238l314 -791l315 791h238z" />
    <glyph glyph-name="w" unicode="w" horiz-adv-x="1767" 
d="M1740 1059l-389 -1060h-173l-294 753l-296 -753h-174l-386 1060h237l253 -751l295 751h141l295 -751l253 751h238z" />
    <glyph glyph-name="x" unicode="x" horiz-adv-x="1205" 
d="M468 530l-443 529h269l307 -377l310 377h268l-443 -529l443 -530h-269l-307 376l-308 -376h-270z" />
    <glyph glyph-name="y" unicode="y" horiz-adv-x="1100" 
d="M1077 1059l-624 -1557h-232l216 544l-414 1013h246l287 -790l281 790h240z" />
    <glyph glyph-name="z" unicode="z" horiz-adv-x="1042" 
d="M410 186h568v-186h-932l573 873h-533v186h898z" />
    <glyph glyph-name="braceleft" unicode="{" horiz-adv-x="648" 
d="M336.5 -464.5q-58.5 38.5 -90.5 104.5t-32 147v485q0 106 -11 160.5t-42.5 87.5t-99.5 63v147q68 30 99.5 63t42.5 88t11 161v484q0 82 32 148.5t90.5 104.5t134.5 38h107v-176h-61q-55 0 -81 -39.5t-26 -117.5v-459q0 -94 -13.5 -160t-53 -119t-114.5 -89
q75 -36 114.5 -89t53 -119t13.5 -160v-462q0 -80 24.5 -116.5t82.5 -36.5h61v-177h-107q-76 0 -134.5 38.5z" />
    <glyph glyph-name="bar" unicode="|" horiz-adv-x="649" 
d="M252 1536h146v-1843h-146v1843z" />
    <glyph glyph-name="braceright" unicode="}" horiz-adv-x="648" 
d="M70 -503v177h61q58 0 82.5 36.5t24.5 116.5v462q0 94 13.5 160t53 119t114.5 89q-75 36 -114.5 89t-53 119t-13.5 160v459q0 78 -26 117.5t-81 39.5h-61v176h107q76 0 134.5 -38t90.5 -104.5t32 -148.5v-484q0 -106 11 -161t42.5 -88t99.5 -63v-147q-68 -30 -99.5 -63
t-42.5 -87.5t-11 -160.5v-485q0 -81 -32 -147t-90.5 -104.5t-134.5 -38.5h-107z" />
    <glyph glyph-name="asciitilde" unicode="~" horiz-adv-x="1424" 
d="M798 353.5q-55 25.5 -85 52.5t-80 79q-33 35 -59 50t-56 15q-69 0 -107 -59t-37 -145h-180q-1 10 -1 29q0 105 40 185.5t114.5 125t174.5 44.5q85 0 143 -35.5t118 -111.5q33 -39 59.5 -59t65.5 -20t71 22t50.5 63.5t18.5 96.5l-1 20h179q2 -28 2 -42q0 -95 -39 -172
t-108.5 -120.5t-157.5 -43.5q-70 0 -125 25.5z" />
    <glyph glyph-name="exclamdown" unicode="&#xa1;" horiz-adv-x="672" 
d="M398.5 1025q32.5 -19 51.5 -51t19 -69q0 -38 -19 -70t-51.5 -51t-69.5 -19t-69 19t-51 51t-19 70q0 37 19 69t51 51t69 19t69.5 -19zM443 548v-1060h-228v1060h228z" />
    <glyph glyph-name="cent" unicode="&#xa2;" horiz-adv-x="1342" 
d="M877.5 461q74.5 40 121.5 111l167 -134q-74 -95 -184.5 -152t-239.5 -63v-223h-138v232q-131 23 -235 99t-163 190t-59 249t59 249.5t163 190.5t235 99v227h138v-218q129 -6 239.5 -63t184.5 -152l-167 -134q-47 71 -121.5 110.5t-165.5 39.5q-97 0 -177 -45.5t-126 -125
t-46 -178.5q0 -98 46 -178t126 -125.5t177 -45.5q91 0 165.5 40z" />
    <glyph glyph-name="sterling" unicode="&#xa3;" horiz-adv-x="1438" 
d="M160 155l43 6q60 7 90.5 41.5t30.5 94.5v356h-164v184h164v207q0 147 64 264t178 182.5t259 65.5q104 0 202 -45t171 -125t103 -181l-213 -92q-10 67 -48.5 119.5t-95.5 81.5t-119 29q-83 0 -145.5 -36t-96 -103.5t-33.5 -159.5v-207h356v-184h-356v-446h709v-207h-1099
v155z" />
    <glyph glyph-name="currency" unicode="&#xa4;" horiz-adv-x="1412" 
d="M566.5 295q-67.5 21 -126.5 62l-107 -109l-122 129l106 105q-81 115 -81 261q0 71 20.5 138t60.5 124l-104 103l122 129l107 -109q58 42 126.5 63.5t139.5 21.5q69 0 135 -21t124 -63l106 106l124 -123l-105 -105q41 -58 62 -126t21 -138t-21 -137.5t-62 -125.5l104 -103
l-121 -129l-108 109q-58 -41 -125.5 -62t-137.5 -21t-137.5 21zM853 487.5q68 40.5 107.5 108.5t39.5 148t-40 147.5t-108 107t-148 39.5q-81 0 -148.5 -40.5t-107.5 -109t-40 -149.5t40.5 -148t108.5 -105.5t147 -38.5q81 0 149 40.5z" />
    <glyph glyph-name="yen" unicode="&#xa5;" horiz-adv-x="1527" 
d="M896 747h360v-169h-373v-159h372v-164h-372v-255h-236v255h-375v164h375v159h-375v169h359l-522 789h279l377 -601l378 601h275z" />
    <glyph glyph-name="brokenbar" unicode="&#xa6;" horiz-adv-x="649" 
d="M252 1536h146v-737h-146v737zM252 430h146v-737h-146v737z" />
    <glyph glyph-name="section" unicode="&#xa7;" horiz-adv-x="1008" 
d="M809 417q27 -51 27 -121q0 -95 -43 -163t-115.5 -103.5t-160.5 -35.5q-98 0 -180 41.5t-133 111.5l120 99q36 -48 87 -74t110 -26q66 0 110 35t44 101q0 47 -27 80.5t-68 56.5t-113 54q-94 41 -152 76t-99.5 97t-41.5 155q0 72 26 129.5t74 98.5q-105 81 -105 216
q0 93 44 160t117.5 102t160.5 35q94 0 176 -42t135 -111l-119 -100q-36 50 -85.5 76.5t-107.5 26.5q-69 0 -114 -34.5t-45 -103.5q0 -47 27 -80t67.5 -55.5t112.5 -53.5q94 -41 152.5 -76.5t100 -97.5t41.5 -156q0 -71 -25.5 -129t-72.5 -98q48 -40 75 -91zM361.5 722
q28.5 -35 71 -58.5t117.5 -55.5l36 -16q40 17 63.5 54t23.5 84q0 50 -29 85.5t-72 59.5t-118 56l-34 15q-40 -17 -63.5 -54.5t-23.5 -85.5q0 -49 28.5 -84z" />
    <glyph glyph-name="dieresis" unicode="&#xa8;" horiz-adv-x="918" 
d="M195 1315.5q-30 17.5 -48 47t-18 64.5q0 36 18 65.5t47.5 46.5t64.5 17t65 -17t48 -46.5t18 -65.5q0 -35 -18 -64.5t-48 -47t-65 -17.5q-34 0 -64 17.5zM593 1315.5q-30 17.5 -47.5 47t-17.5 64.5q0 36 17.5 65.5t47.5 46.5t65 17q54 0 91.5 -37.5t37.5 -91.5
q0 -35 -17.5 -64.5t-47 -47t-64.5 -17.5t-65 17.5z" />
    <glyph glyph-name="copyright" unicode="&#xa9;" horiz-adv-x="1863" 
d="M537 86q-181 106 -287.5 287.5t-106.5 394.5t106.5 394.5t287.5 287.5t395 106q213 0 394 -106.5t287.5 -287.5t106.5 -394t-106.5 -394t-287.5 -287.5t-394 -106.5q-214 0 -395 106zM1266 195q152 88 240 239.5t88 333.5t-88 333.5t-240 239.5t-334 88t-333.5 -88
t-239.5 -239.5t-88 -333.5t88 -333.5t239.5 -239.5t333.5 -88t334 88zM714.5 388.5q-100.5 58.5 -159 159t-58.5 220.5t58.5 220.5t159 159t220.5 58.5q90 0 176.5 -38.5t144.5 -103.5l-97 -84q-42 47 -101 73t-123 26q-85 0 -155.5 -41t-111.5 -112t-41 -158
q0 -86 41 -156.5t111.5 -111.5t155.5 -41q64 0 123 26t101 73l97 -85q-58 -65 -144.5 -104t-176.5 -39q-120 0 -220.5 58.5z" />
    <glyph glyph-name="ordfeminine" unicode="&#xaa;" horiz-adv-x="996" 
d="M801 1536v-614h-141v102q-39 -54 -97 -84.5t-128 -30.5q-84 0 -154.5 43t-111.5 116t-41 161q0 87 41 160t111.5 116t154.5 43q70 0 128 -30.5t97 -84.5v103h141zM562 1058.5q45 26.5 71.5 71.5t26.5 99q0 53 -26.5 97.5t-71.5 70.5t-99 26q-53 0 -98 -26t-71 -70.5
t-26 -97.5q0 -54 26 -99t71 -71.5t98 -26.5q54 0 99 26.5z" />
    <glyph glyph-name="guillemotleft" unicode="&#xab;" horiz-adv-x="1066" 
d="M67 571l311 377h187l-311 -377l311 -376h-187zM487 571l311 377h190l-311 -377l311 -376h-190z" />
    <glyph glyph-name="logicalnot" unicode="&#xac;" horiz-adv-x="1689" 
d="M1248 727h-1112v193h1303v-717h-191v524z" />
    <glyph glyph-name="uni00AD" unicode="&#xad;" horiz-adv-x="1044" 
d="M164 630h717v-197h-717v197z" />
    <glyph glyph-name="registered" unicode="&#xae;" horiz-adv-x="1863" 
d="M1326 1449.5q181 -106.5 287.5 -287.5t106.5 -394t-106.5 -394t-287.5 -287.5t-394 -106.5q-214 0 -395 106t-287.5 287.5t-106.5 394.5t106.5 394.5t287.5 287.5t395 106q213 0 394 -106.5zM1266 195q152 88 240 239.5t88 333.5t-88 333.5t-240 239.5t-334 88
t-333.5 -88t-239.5 -239.5t-88 -333.5t88 -333.5t239.5 -239.5t333.5 -88t334 88zM1240 820.5q-44 -66.5 -116 -97.5l189 -427h-153l-174 405h-193v-405h-142v945h362q75 0 137 -36.5t98 -98.5t36 -135q0 -84 -44 -150.5zM793 828h203q65 0 107.5 38t42.5 102q0 63 -43 103
t-107 40h-203v-283z" />
    <glyph glyph-name="macron" unicode="&#xaf;" horiz-adv-x="961" 
d="M157 1379h647v-143h-647v143z" />
    <glyph glyph-name="degree" unicode="&#xb0;" horiz-adv-x="945" 
d="M327 1019.5q-66 38.5 -104.5 105t-38.5 144.5t38.5 144t104.5 104.5t145 38.5q78 0 144.5 -38.5t105 -104.5t38.5 -144t-39 -144t-105 -105t-144 -39q-79 0 -145 38.5zM552.5 1129.5q36.5 21.5 57.5 58.5t21 81t-21 81t-57.5 58.5t-80.5 21.5t-81 -21.5t-58 -58.5
t-21 -81t21 -81t58 -58.5t81 -21.5t80.5 21.5z" />
    <glyph glyph-name="plusminus" unicode="&#xb1;" horiz-adv-x="1306" 
d="M560 750h-397v193h397v397h193v-397h397v-193h-397v-397h-193v397zM148 195h1002v-193h-1002v193z" />
    <glyph glyph-name="acute" unicode="&#xb4;" horiz-adv-x="489" 
d="M46 1208l264 343l123 -91l-230 -252h-157z" />
    <glyph glyph-name="uni00B5" unicode="&#xb5;" horiz-adv-x="1378" 
d="M1180 1024v-1024h-211v139q-57 -74 -140 -116.5t-178 -42.5q-67 0 -128.5 21t-112.5 60v-573h-159v1536h211v-611q0 -67 33 -124t90 -90t125 -33q71 0 130.5 33t94 90t34.5 124v611h211z" />
    <glyph glyph-name="paragraph" unicode="&#xb6;" horiz-adv-x="1210" 
d="M526 850h-53q-171 0 -268 89.5t-97 254.5t97 253.5t268 88.5h173v-1843h-120v1157zM837 1536h121v-1843h-121v1843z" />
    <glyph glyph-name="periodcentered" unicode="&#xb7;" horiz-adv-x="618" 
d="M234 661q-32 31 -32 76q0 43 32 75t75 32t75.5 -32t32.5 -75q0 -45 -32 -76t-76 -31q-43 0 -75 31z" />
    <glyph glyph-name="cedilla" unicode="&#xb8;" horiz-adv-x="624" 
d="M171.5 -491q-67.5 41 -94.5 103l112 40q17 -29 53 -48t72 -19q41 0 71 29t30 72q0 46 -29 71.5t-75 25.5q-41 0 -80 -24l-93 57l97 188h120l-67 -132q27 5 48 5q56 0 101 -24t70.5 -67.5t25.5 -99.5q0 -60 -29 -110t-78.5 -79t-109.5 -29q-77 0 -144.5 41z" />
    <glyph glyph-name="ordmasculine" unicode="&#xba;" horiz-adv-x="884" 
d="M271 952q-77 43 -121.5 116t-44.5 161q0 87 44.5 160.5t121.5 116t169 42.5t170 -42.5t123 -116t45 -160.5q0 -88 -45 -161t-122.5 -116t-170.5 -43q-92 0 -169 43zM539 1058.5q45 26.5 71.5 71.5t26.5 99q0 53 -26.5 97.5t-71.5 70.5t-99 26q-53 0 -98 -26t-71 -70.5
t-26 -97.5q0 -54 26 -99t71 -71.5t98 -26.5q54 0 99 26.5z" />
    <glyph glyph-name="guillemotright" unicode="&#xbb;" horiz-adv-x="1066" 
d="M389 571l-312 377h187l311 -377l-311 -376h-187zM809 571l-312 377h190l311 -377l-311 -376h-190z" />
    <glyph glyph-name="onequarter" unicode="&#xbc;" horiz-adv-x="1628" 
d="M370 1536v-922h-155l1 766l-197 -154v151l210 159h141zM1069 1536h175l-866 -1536h-175zM1564 195h-93v-195h-152v195h-432v117l381 610h203v-603h93v-124zM1319 319v475l-286 -475h286z" />
    <glyph glyph-name="onehalf" unicode="&#xbd;" horiz-adv-x="1675" 
d="M370 1536v-922h-155l1 766l-197 -154v151l210 159h141zM1069 1536h175l-866 -1536h-175zM1611 124v-124h-621v144q189 151 286 245.5t128.5 151.5t31.5 108q0 78 -39 114.5t-95 36.5q-69 0 -105 -43t-35 -111h-159q0 85 38.5 151t107 102.5t155.5 36.5q83 0 147.5 -34.5
t100.5 -97t36 -144.5t-41.5 -161t-137 -170t-257.5 -205h459z" />
    <glyph glyph-name="threequarters" unicode="&#xbe;" horiz-adv-x="1836" 
d="M615 1030.5q38 -60.5 38 -137.5q0 -80 -40.5 -146.5t-110.5 -105.5t-156 -39q-83 0 -152 35.5t-109 97.5t-40 139l159 1q0 -61 41.5 -98t102.5 -37q65 0 106 42.5t41 111.5q0 67 -42.5 106.5t-114.5 39.5h-56v126h47q59 0 94 35.5t35 92.5q0 54 -33.5 87t-83.5 33
q-52 0 -83 -31t-31 -88l-156 1q0 74 35.5 131.5t97 89t137.5 31.5q74 0 133.5 -32t93.5 -87.5t34 -124.5q0 -56 -24 -102t-68 -76q67 -35 105 -95.5zM1277 1536h175l-866 -1536h-175zM1772 195h-93v-195h-152v195h-432v117l381 610h203v-603h93v-124zM1527 319v475
l-286 -475h286z" />
    <glyph glyph-name="questiondown" unicode="&#xbf;" horiz-adv-x="1132" 
d="M616.5 1027.5q32.5 -18.5 51.5 -50.5t19 -70q0 -37 -19 -69.5t-51.5 -51.5t-69.5 -19q-38 0 -70 19t-50.5 51.5t-18.5 69.5q0 38 18.5 70t50.5 50.5t70 18.5q37 0 69.5 -18.5zM657 176q-115 0 -191 -14.5t-128 -71t-52 -172.5q0 -74 35 -130.5t96 -87t137 -30.5
q77 0 137 32.5t94.5 90t36.5 130.5h203q0 -127 -61 -228.5t-168 -159t-241 -57.5t-241 55t-168 155t-61 229q0 145 59 234t141.5 127.5t165.5 45.5v253h206v-401z" />
    <glyph glyph-name="Agrave" unicode="&#xc0;" horiz-adv-x="1574" 
d="M1151 332h-728l-127 -332h-245l609 1536h253l609 -1536h-244zM1072 540l-285 744l-284 -744h569zM478 1937l123 91l264 -343h-157z" />
    <glyph glyph-name="Aacute" unicode="&#xc1;" horiz-adv-x="1574" 
d="M1151 332h-728l-127 -332h-245l609 1536h253l609 -1536h-244zM1072 540l-285 744l-284 -744h569zM962 1685l264 343l123 -91l-230 -252h-157z" />
    <glyph glyph-name="Acircumflex" unicode="&#xc2;" horiz-adv-x="1574" 
d="M1151 332h-728l-127 -332h-245l609 1536h253l609 -1536h-244zM1072 540l-285 744l-284 -744h569zM475 1709l220 298h181l222 -298l-103 -64l-208 253l-210 -253z" />
    <glyph glyph-name="Atilde" unicode="&#xc3;" horiz-adv-x="1574" 
d="M1151 332h-728l-127 -332h-245l609 1536h253l609 -1536h-244zM1072 540l-285 744l-284 -744h569zM735 1847q-19 30 -39.5 43t-46.5 13q-47 0 -73 -43.5t-26 -112.5h-120q0 79 26 141t75 97t114 35q115 0 189 -112q17 -27 38.5 -41.5t51.5 -14.5q47 0 72 41t25 114h119
q0 -78 -25 -140t-73.5 -97.5t-116.5 -35.5q-117 0 -190 113z" />
    <glyph glyph-name="Adieresis" unicode="&#xc4;" horiz-adv-x="1574" 
d="M1151 332h-728l-127 -332h-245l609 1536h253l609 -1536h-244zM1072 540l-285 744l-284 -744h569zM524 1792.5q-30 17.5 -48 47t-18 64.5q0 36 18 65.5t47.5 46.5t64.5 17t65 -17t48 -46.5t18 -65.5q0 -35 -18 -64.5t-48 -47t-65 -17.5q-34 0 -64 17.5zM922 1792.5
q-30 17.5 -47.5 47t-17.5 64.5q0 36 17.5 65.5t47.5 46.5t65 17q54 0 91.5 -37.5t37.5 -91.5q0 -35 -17.5 -64.5t-47 -47t-64.5 -17.5t-65 17.5z" />
    <glyph glyph-name="Aring" unicode="&#xc5;" horiz-adv-x="1574" 
d="M1151 332h-728l-127 -332h-245l609 1536h253l609 -1536h-244zM1072 540l-285 744l-284 -744h569zM672 1693q-53 31 -84 83t-31 114q0 61 31 113.5t84 83t115 30.5q61 0 112.5 -30.5t82 -83t30.5 -113.5q0 -62 -30.5 -114t-82 -83t-112.5 -31q-62 0 -115 31zM871.5 1802.5
q34.5 34.5 34.5 87.5q0 32 -16 60.5t-43.5 45.5t-59.5 17q-33 0 -60.5 -17t-43.5 -45.5t-16 -60.5q0 -53 34.5 -87.5t85.5 -34.5q50 0 84.5 34.5z" />
    <glyph glyph-name="AE" unicode="&#xc6;" horiz-adv-x="1987" 
d="M660 1536h1205v-214h-651v-448h565v-215h-565v-445h651v-214h-887v332h-550l-125 -332h-252zM978 540v780h-175l-298 -780h473z" />
    <glyph glyph-name="Ccedilla" unicode="&#xc7;" horiz-adv-x="1543" 
d="M1125.5 250.5q106.5 45.5 182.5 125.5l168 -160q-100 -102 -242 -165t-292 -70l-55 -109q27 5 48 5q56 0 101 -24t70.5 -67.5t25.5 -99.5q0 -60 -29 -110t-78.5 -79t-109.5 -29q-77 0 -144.5 41t-94.5 103l112 40q17 -29 53 -48t72 -19q41 0 71 29t30 72q0 46 -29 71.5
t-75 25.5q-41 0 -80 -24l-93 57l87 168q-203 19 -367.5 126.5t-258.5 280t-94 377.5q0 219 106 399.5t289 284.5t405 104q159 0 312 -63.5t260 -172.5l-168 -160q-76 80 -182.5 125.5t-221.5 45.5q-156 0 -285 -74.5t-204 -203.5t-75 -285t75 -285t204 -203.5t285 -74.5
q115 0 221.5 45.5z" />
    <glyph glyph-name="Egrave" unicode="&#xc8;" horiz-adv-x="1213" 
d="M446 1322v-449h565v-213h-565v-446h645v-214h-881v1536h881v-214h-645zM344 1937l123 91l264 -343h-157z" />
    <glyph glyph-name="Eacute" unicode="&#xc9;" horiz-adv-x="1213" 
d="M446 1322v-449h565v-213h-565v-446h645v-214h-881v1536h881v-214h-645zM828 1685l264 343l123 -91l-230 -252h-157z" />
    <glyph glyph-name="Ecircumflex" unicode="&#xca;" horiz-adv-x="1213" 
d="M446 1322v-449h565v-213h-565v-446h645v-214h-881v1536h881v-214h-645zM341 1709l220 298h181l222 -298l-103 -64l-208 253l-210 -253z" />
    <glyph glyph-name="Edieresis" unicode="&#xcb;" horiz-adv-x="1213" 
d="M446 1322v-449h565v-213h-565v-446h645v-214h-881v1536h881v-214h-645zM390 1792.5q-30 17.5 -48 47t-18 64.5q0 36 18 65.5t47.5 46.5t64.5 17t65 -17t48 -46.5t18 -65.5q0 -35 -18 -64.5t-48 -47t-65 -17.5q-34 0 -64 17.5zM788 1792.5q-30 17.5 -47.5 47t-17.5 64.5
q0 36 17.5 65.5t47.5 46.5t65 17q54 0 91.5 -37.5t37.5 -91.5q0 -35 -17.5 -64.5t-47 -47t-64.5 -17.5t-65 17.5z" />
    <glyph glyph-name="Igrave" unicode="&#xcc;" horiz-adv-x="656" 
d="M210 1536h236v-1536h-236v1536zM18 1937l123 91l264 -343h-157z" />
    <glyph glyph-name="Iacute" unicode="&#xcd;" horiz-adv-x="656" 
d="M210 1536h236v-1536h-236v1536zM502 1685l264 343l123 -91l-230 -252h-157z" />
    <glyph glyph-name="Icircumflex" unicode="&#xce;" horiz-adv-x="656" 
d="M210 1536h236v-1536h-236v1536zM15 1709l220 298h181l222 -298l-103 -64l-208 253l-210 -253z" />
    <glyph glyph-name="Idieresis" unicode="&#xcf;" horiz-adv-x="656" 
d="M210 1536h236v-1536h-236v1536zM64 1792.5q-30 17.5 -48 47t-18 64.5q0 36 18 65.5t47.5 46.5t64.5 17t65 -17t48 -46.5t18 -65.5q0 -35 -18 -64.5t-48 -47t-65 -17.5q-34 0 -64 17.5zM462 1792.5q-30 17.5 -47.5 47t-17.5 64.5q0 36 17.5 65.5t47.5 46.5t65 17
q54 0 91.5 -37.5t37.5 -91.5q0 -35 -17.5 -64.5t-47 -47t-64.5 -17.5t-65 17.5z" />
    <glyph glyph-name="Eth" unicode="&#xd0;" horiz-adv-x="1592" 
d="M1125 1441.5q174 -94.5 264.5 -267.5t90.5 -406t-90.5 -406t-264.5 -267.5t-419 -94.5h-496v694h-152v148h152v694h496q245 0 419 -94.5zM1102 356.5q136 142.5 136 411.5t-136 411.5t-404 142.5h-253v-480h258v-148h-258v-480h253q268 0 404 142.5z" />
    <glyph glyph-name="Ntilde" unicode="&#xd1;" horiz-adv-x="1810" 
d="M1601 1536v-1536h-200l-962 1169v-1169h-229v1536h198l963 -1166v1166h230zM855 1847q-19 30 -39.5 43t-46.5 13q-47 0 -73 -43.5t-26 -112.5h-120q0 79 26 141t75 97t114 35q115 0 189 -112q17 -27 38.5 -41.5t51.5 -14.5q47 0 72 41t25 114h119q0 -78 -25 -140
t-73.5 -97.5t-116.5 -35.5q-117 0 -190 113z" />
    <glyph glyph-name="Ograve" unicode="&#xd2;" horiz-adv-x="1807" 
d="M499.5 84.5q-183.5 104.5 -289.5 285t-106 398.5t106 398.5t289.5 285t404.5 104.5t404 -104.5t289 -285t106 -398.5t-106 -398.5t-289 -285t-404 -104.5t-404.5 104.5zM1188 279.5q129 74.5 204 203.5t75 285t-75 285t-204 203.5t-284 74.5t-284.5 -74.5t-204.5 -204
t-75 -284.5t75 -284.5t204.5 -204t284.5 -74.5t284 74.5zM595 1937l123 91l264 -343h-157z" />
    <glyph glyph-name="Oacute" unicode="&#xd3;" horiz-adv-x="1807" 
d="M499.5 84.5q-183.5 104.5 -289.5 285t-106 398.5t106 398.5t289.5 285t404.5 104.5t404 -104.5t289 -285t106 -398.5t-106 -398.5t-289 -285t-404 -104.5t-404.5 104.5zM1188 279.5q129 74.5 204 203.5t75 285t-75 285t-204 203.5t-284 74.5t-284.5 -74.5t-204.5 -204
t-75 -284.5t75 -284.5t204.5 -204t284.5 -74.5t284 74.5zM1079 1685l264 343l123 -91l-230 -252h-157z" />
    <glyph glyph-name="Ocircumflex" unicode="&#xd4;" horiz-adv-x="1807" 
d="M499.5 84.5q-183.5 104.5 -289.5 285t-106 398.5t106 398.5t289.5 285t404.5 104.5t404 -104.5t289 -285t106 -398.5t-106 -398.5t-289 -285t-404 -104.5t-404.5 104.5zM1188 279.5q129 74.5 204 203.5t75 285t-75 285t-204 203.5t-284 74.5t-284.5 -74.5t-204.5 -204
t-75 -284.5t75 -284.5t204.5 -204t284.5 -74.5t284 74.5zM592 1709l220 298h181l222 -298l-103 -64l-208 253l-210 -253z" />
    <glyph glyph-name="Otilde" unicode="&#xd5;" horiz-adv-x="1807" 
d="M499.5 84.5q-183.5 104.5 -289.5 285t-106 398.5t106 398.5t289.5 285t404.5 104.5t404 -104.5t289 -285t106 -398.5t-106 -398.5t-289 -285t-404 -104.5t-404.5 104.5zM1188 279.5q129 74.5 204 203.5t75 285t-75 285t-204 203.5t-284 74.5t-284.5 -74.5t-204.5 -204
t-75 -284.5t75 -284.5t204.5 -204t284.5 -74.5t284 74.5zM852 1847q-19 30 -39.5 43t-46.5 13q-47 0 -73 -43.5t-26 -112.5h-120q0 79 26 141t75 97t114 35q115 0 189 -112q17 -27 38.5 -41.5t51.5 -14.5q47 0 72 41t25 114h119q0 -78 -25 -140t-73.5 -97.5t-116.5 -35.5
q-117 0 -190 113z" />
    <glyph glyph-name="Odieresis" unicode="&#xd6;" horiz-adv-x="1807" 
d="M499.5 84.5q-183.5 104.5 -289.5 285t-106 398.5t106 398.5t289.5 285t404.5 104.5t404 -104.5t289 -285t106 -398.5t-106 -398.5t-289 -285t-404 -104.5t-404.5 104.5zM1188 279.5q129 74.5 204 203.5t75 285t-75 285t-204 203.5t-284 74.5t-284.5 -74.5t-204.5 -204
t-75 -284.5t75 -284.5t204.5 -204t284.5 -74.5t284 74.5zM641 1792.5q-30 17.5 -48 47t-18 64.5q0 36 18 65.5t47.5 46.5t64.5 17t65 -17t48 -46.5t18 -65.5q0 -35 -18 -64.5t-48 -47t-65 -17.5q-34 0 -64 17.5zM1039 1792.5q-30 17.5 -47.5 47t-17.5 64.5q0 36 17.5 65.5
t47.5 46.5t65 17q54 0 91.5 -37.5t37.5 -91.5q0 -35 -17.5 -64.5t-47 -47t-64.5 -17.5t-65 17.5z" />
    <glyph glyph-name="multiply" unicode="&#xd7;" horiz-adv-x="1095" 
d="M144 411l267 267l-267 266l135 137l269 -266l266 266l137 -137l-269 -266l269 -267l-137 -136l-266 267l-269 -267z" />
    <glyph glyph-name="Oslash" unicode="&#xd8;" horiz-adv-x="1807" 
d="M1627.5 1108q75.5 -158 75.5 -340q0 -218 -106 -398.5t-289 -285t-404 -104.5q-209 0 -388 96l-104 -150l-131 78l108 156q-134 109 -209.5 267.5t-75.5 340.5q0 218 106 398.5t289.5 285t404.5 104.5q208 0 387 -96l105 151l130 -80l-108 -155q134 -110 209.5 -268z
M388 537q48 -108 134 -186l638 920q-117 60 -256 60q-155 0 -284.5 -74.5t-204.5 -204t-75 -284.5q0 -123 48 -231zM1188 279.5q129 74.5 204 203.5t75 285q0 123 -48 231t-133 186l-639 -920q118 -60 257 -60q155 0 284 74.5z" />
    <glyph glyph-name="Ugrave" unicode="&#xd9;" horiz-adv-x="1564" 
d="M471.5 45q-136.5 65 -214.5 187t-78 286v1018h236v-975q0 -188 99 -277.5t267 -89.5q169 0 268.5 89.5t99.5 277.5v975h236v-1018q0 -164 -78 -286t-215 -187t-311 -65q-173 0 -309.5 65zM472 1937l123 91l264 -343h-157z" />
    <glyph glyph-name="Uacute" unicode="&#xda;" horiz-adv-x="1564" 
d="M471.5 45q-136.5 65 -214.5 187t-78 286v1018h236v-975q0 -188 99 -277.5t267 -89.5q169 0 268.5 89.5t99.5 277.5v975h236v-1018q0 -164 -78 -286t-215 -187t-311 -65q-173 0 -309.5 65zM956 1685l264 343l123 -91l-230 -252h-157z" />
    <glyph glyph-name="Ucircumflex" unicode="&#xdb;" horiz-adv-x="1564" 
d="M471.5 45q-136.5 65 -214.5 187t-78 286v1018h236v-975q0 -188 99 -277.5t267 -89.5q169 0 268.5 89.5t99.5 277.5v975h236v-1018q0 -164 -78 -286t-215 -187t-311 -65q-173 0 -309.5 65zM469 1709l220 298h181l222 -298l-103 -64l-208 253l-210 -253z" />
    <glyph glyph-name="Udieresis" unicode="&#xdc;" horiz-adv-x="1564" 
d="M471.5 45q-136.5 65 -214.5 187t-78 286v1018h236v-975q0 -188 99 -277.5t267 -89.5q169 0 268.5 89.5t99.5 277.5v975h236v-1018q0 -164 -78 -286t-215 -187t-311 -65q-173 0 -309.5 65zM518 1792.5q-30 17.5 -48 47t-18 64.5q0 36 18 65.5t47.5 46.5t64.5 17t65 -17
t48 -46.5t18 -65.5q0 -35 -18 -64.5t-48 -47t-65 -17.5q-34 0 -64 17.5zM916 1792.5q-30 17.5 -47.5 47t-17.5 64.5q0 36 17.5 65.5t47.5 46.5t65 17q54 0 91.5 -37.5t37.5 -91.5q0 -35 -17.5 -64.5t-47 -47t-64.5 -17.5t-65 17.5z" />
    <glyph glyph-name="Yacute" unicode="&#xdd;" horiz-adv-x="1389" 
d="M814 727v-727h-236v722l-538 814h279l377 -601l378 601h275zM872 1685l264 343l123 -91l-230 -252h-157z" />
    <glyph glyph-name="Thorn" unicode="&#xde;" horiz-adv-x="1316" 
d="M1017.5 1259.5q100.5 -59.5 159.5 -162t59 -223.5q0 -118 -59 -217t-159.5 -156.5t-220.5 -57.5h-360v-443h-229v1531h229v-212h360q120 0 220.5 -59.5zM901.5 683q52.5 29 82.5 80.5t30 116.5t-30 117t-82.5 81t-118.5 29h-346v-453h346q66 0 118.5 29z" />
    <glyph glyph-name="germandbls" unicode="&#xdf;" horiz-adv-x="1313" 
d="M1170.5 641q61.5 -103 61.5 -228q0 -111 -49.5 -206t-141 -151t-212.5 -56h-192v205h144q65 0 116.5 26t81 77.5t29.5 124.5q0 71 -34.5 128.5t-94 90.5t-129.5 33h-86v185h27q66 0 122 34.5t88.5 93t32.5 127.5q0 70 -32.5 124.5t-92.5 85t-139 30.5
q-128 0 -204.5 -87.5t-76.5 -272.5v-1005h-222v980q0 199 67.5 328t179 188.5t248.5 59.5q146 0 255.5 -55t168.5 -152t59 -220q0 -96 -37 -180t-104 -145q105 -60 166.5 -163z" />
    <glyph glyph-name="agrave" unicode="&#xe0;" horiz-adv-x="1374" 
d="M342 53q-120 73 -191.5 199t-71.5 279q0 152 71.5 277.5t191.5 198t260 72.5q123 0 220 -45.5t163 -128.5v154h222v-1059h-223v154q-65 -82 -162 -128t-220 -46q-140 0 -260 73zM827 224q80 46 126 127t46 180t-46 179t-126 126t-176 46t-176 -46t-127 -126t-47 -179
t47 -180t127 -127t176 -46t176 46zM379 1460l123 91l264 -343h-157z" />
    <glyph glyph-name="aacute" unicode="&#xe1;" horiz-adv-x="1374" 
d="M342 53q-120 73 -191.5 199t-71.5 279q0 152 71.5 277.5t191.5 198t260 72.5q123 0 220 -45.5t163 -128.5v154h222v-1059h-223v154q-65 -82 -162 -128t-220 -46q-140 0 -260 73zM827 224q80 46 126 127t46 180t-46 179t-126 126t-176 46t-176 -46t-127 -126t-47 -179
t47 -180t127 -127t176 -46t176 46zM863 1208l264 343l123 -91l-230 -252h-157z" />
    <glyph glyph-name="acircumflex" unicode="&#xe2;" horiz-adv-x="1374" 
d="M342 53q-120 73 -191.5 199t-71.5 279q0 152 71.5 277.5t191.5 198t260 72.5q123 0 220 -45.5t163 -128.5v154h222v-1059h-223v154q-65 -82 -162 -128t-220 -46q-140 0 -260 73zM827 224q80 46 126 127t46 180t-46 179t-126 126t-176 46t-176 -46t-127 -126t-47 -179
t47 -180t127 -127t176 -46t176 46zM376 1232l220 298h181l222 -298l-103 -64l-208 253l-210 -253z" />
    <glyph glyph-name="atilde" unicode="&#xe3;" horiz-adv-x="1374" 
d="M342 53q-120 73 -191.5 199t-71.5 279q0 152 71.5 277.5t191.5 198t260 72.5q123 0 220 -45.5t163 -128.5v154h222v-1059h-223v154q-65 -82 -162 -128t-220 -46q-140 0 -260 73zM827 224q80 46 126 127t46 180t-46 179t-126 126t-176 46t-176 -46t-127 -126t-47 -179
t47 -180t127 -127t176 -46t176 46zM636 1370q-19 30 -39.5 43t-46.5 13q-47 0 -73 -43.5t-26 -112.5h-120q0 79 26 141t75 97t114 35q115 0 189 -112q17 -27 38.5 -41.5t51.5 -14.5q47 0 72 41t25 114h119q0 -78 -25 -140t-73.5 -97.5t-116.5 -35.5q-117 0 -190 113z" />
    <glyph glyph-name="adieresis" unicode="&#xe4;" horiz-adv-x="1374" 
d="M342 53q-120 73 -191.5 199t-71.5 279q0 152 71.5 277.5t191.5 198t260 72.5q123 0 220 -45.5t163 -128.5v154h222v-1059h-223v154q-65 -82 -162 -128t-220 -46q-140 0 -260 73zM827 224q80 46 126 127t46 180t-46 179t-126 126t-176 46t-176 -46t-127 -126t-47 -179
t47 -180t127 -127t176 -46t176 46zM425 1315.5q-30 17.5 -48 47t-18 64.5q0 36 18 65.5t47.5 46.5t64.5 17t65 -17t48 -46.5t18 -65.5q0 -35 -18 -64.5t-48 -47t-65 -17.5q-34 0 -64 17.5zM823 1315.5q-30 17.5 -47.5 47t-17.5 64.5q0 36 17.5 65.5t47.5 46.5t65 17
q54 0 91.5 -37.5t37.5 -91.5q0 -35 -17.5 -64.5t-47 -47t-64.5 -17.5t-65 17.5z" />
    <glyph glyph-name="aring" unicode="&#xe5;" horiz-adv-x="1374" 
d="M342 53q-120 73 -191.5 199t-71.5 279q0 152 71.5 277.5t191.5 198t260 72.5q123 0 220 -45.5t163 -128.5v154h222v-1059h-223v154q-65 -82 -162 -128t-220 -46q-140 0 -260 73zM827 224q80 46 126 127t46 180t-46 179t-126 126t-176 46t-176 -46t-127 -126t-47 -179
t47 -180t127 -127t176 -46t176 46zM573 1216q-53 31 -84 83t-31 114q0 61 31 113.5t84 83t115 30.5q61 0 112.5 -30.5t82 -83t30.5 -113.5q0 -62 -30.5 -114t-82 -83t-112.5 -31q-62 0 -115 31zM772.5 1325.5q34.5 34.5 34.5 87.5q0 32 -16 60.5t-43.5 45.5t-59.5 17
q-33 0 -60.5 -17t-43.5 -45.5t-16 -60.5q0 -53 34.5 -87.5t85.5 -34.5q50 0 84.5 34.5z" />
    <glyph glyph-name="ae" unicode="&#xe6;" horiz-adv-x="1885" 
d="M1817 498h-886q7 -97 54 -172.5t123.5 -117.5t167.5 -42q93 0 172 43t127 121l181 -77q-69 -128 -194.5 -200.5t-283.5 -72.5q-135 0 -249 53.5t-191 147.5q-78 -101 -173.5 -151t-224.5 -50q-104 0 -186 37t-128.5 108t-46.5 169t47.5 176t145 124.5t241.5 47.5l214 2
q9 46 31 99q-21 79 -83 120t-158 41q-84 0 -165.5 -32t-154.5 -96l-89 158q189 147 425 147q125 0 214 -40t139 -111q75 71 174 110.5t212 39.5q151 0 274.5 -69t196.5 -192t77 -277zM1065.5 834.5q-87.5 -68.5 -119.5 -184.5h643q-32 117 -115 185t-201 68
q-120 0 -207.5 -68.5zM641.5 189q70.5 40 120.5 115q-37 85 -44 181h-167q-139 0 -197.5 -51t-58.5 -129q0 -77 51 -116.5t137 -39.5q88 0 158.5 40z" />
    <glyph glyph-name="ccedilla" unicode="&#xe7;" horiz-adv-x="1143" 
d="M807.5 221q74.5 40 121.5 111l167 -134q-71 -91 -175.5 -147.5t-227.5 -66.5l-57 -112q27 5 48 5q56 0 101 -24t70.5 -67.5t25.5 -99.5q0 -60 -29 -110t-78.5 -79t-109.5 -29q-77 0 -144.5 41t-94.5 103l112 40q17 -29 53 -48t72 -19q41 0 71 29t30 72q0 46 -29 71.5
t-75 25.5q-41 0 -80 -24l-93 57l88 170q-141 15 -254.5 90t-178 193.5t-64.5 260.5q0 153 75 279t204.5 198t286.5 72q138 0 256.5 -57.5t196.5 -158.5l-167 -134q-47 71 -121.5 110.5t-165.5 39.5q-97 0 -177 -45.5t-126 -125t-46 -178.5q0 -98 46 -178t126 -125.5
t177 -45.5q91 0 165.5 40z" />
    <glyph glyph-name="egrave" unicode="&#xe8;" horiz-adv-x="1247" 
d="M1179 498h-887q5 -96 52.5 -172t124.5 -118t169 -42q93 0 172 43t127 121l181 -77q-69 -128 -195 -200.5t-284 -72.5q-160 0 -288.5 73t-201 199t-72.5 278q0 151 73 277t200.5 199.5t283.5 73.5q150 0 274 -69t197 -192t76 -277zM425 834q-89 -69 -120 -184h647
q-16 76 -60.5 133.5t-111 88.5t-145.5 31q-121 0 -210 -69zM335 1469l123 91l264 -343h-157z" />
    <glyph glyph-name="eacute" unicode="&#xe9;" horiz-adv-x="1247" 
d="M1179 498h-887q5 -96 52.5 -172t124.5 -118t169 -42q93 0 172 43t127 121l181 -77q-69 -128 -195 -200.5t-284 -72.5q-160 0 -288.5 73t-201 199t-72.5 278q0 151 73 277t200.5 199.5t283.5 73.5q150 0 274 -69t197 -192t76 -277zM425 834q-89 -69 -120 -184h647
q-16 76 -60.5 133.5t-111 88.5t-145.5 31q-121 0 -210 -69zM819 1217l264 343l123 -91l-230 -252h-157z" />
    <glyph glyph-name="ecircumflex" unicode="&#xea;" horiz-adv-x="1247" 
d="M1179 498h-887q5 -96 52.5 -172t124.5 -118t169 -42q93 0 172 43t127 121l181 -77q-69 -128 -195 -200.5t-284 -72.5q-160 0 -288.5 73t-201 199t-72.5 278q0 151 73 277t200.5 199.5t283.5 73.5q150 0 274 -69t197 -192t76 -277zM425 834q-89 -69 -120 -184h647
q-16 76 -60.5 133.5t-111 88.5t-145.5 31q-121 0 -210 -69zM332 1241l220 298h181l222 -298l-103 -64l-208 253l-210 -253z" />
    <glyph glyph-name="edieresis" unicode="&#xeb;" horiz-adv-x="1247" 
d="M1179 498h-887q5 -96 52.5 -172t124.5 -118t169 -42q93 0 172 43t127 121l181 -77q-69 -128 -195 -200.5t-284 -72.5q-160 0 -288.5 73t-201 199t-72.5 278q0 151 73 277t200.5 199.5t283.5 73.5q150 0 274 -69t197 -192t76 -277zM425 834q-89 -69 -120 -184h647
q-16 76 -60.5 133.5t-111 88.5t-145.5 31q-121 0 -210 -69zM381 1324.5q-30 17.5 -48 47t-18 64.5q0 36 18 65.5t47.5 46.5t64.5 17t65 -17t48 -46.5t18 -65.5q0 -35 -18 -64.5t-48 -47t-65 -17.5q-34 0 -64 17.5zM779 1324.5q-30 17.5 -47.5 47t-17.5 64.5q0 36 17.5 65.5
t47.5 46.5t65 17q54 0 91.5 -37.5t37.5 -91.5q0 -35 -17.5 -64.5t-47 -47t-64.5 -17.5t-65 17.5z" />
    <glyph glyph-name="igrave" unicode="&#xec;" horiz-adv-x="556" 
d="M167 1059h222v-1059h-222v1059zM-30 1460l123 91l264 -343h-157z" />
    <glyph glyph-name="iacute" unicode="&#xed;" horiz-adv-x="556" 
d="M167 1059h222v-1059h-222v1059zM454 1208l264 343l123 -91l-230 -252h-157z" />
    <glyph glyph-name="icircumflex" unicode="&#xee;" horiz-adv-x="556" 
d="M167 1059h222v-1059h-222v1059zM-33 1232l220 298h181l222 -298l-103 -64l-208 253l-210 -253z" />
    <glyph glyph-name="idieresis" unicode="&#xef;" horiz-adv-x="556" 
d="M167 1059h222v-1059h-222v1059zM16 1315.5q-30 17.5 -48 47t-18 64.5q0 36 18 65.5t47.5 46.5t64.5 17t65 -17t48 -46.5t18 -65.5q0 -35 -18 -64.5t-48 -47t-65 -17.5q-34 0 -64 17.5zM414 1315.5q-30 17.5 -47.5 47t-17.5 64.5q0 36 17.5 65.5t47.5 46.5t65 17
q54 0 91.5 -37.5t37.5 -91.5q0 -35 -17.5 -64.5t-47 -47t-64.5 -17.5t-65 17.5z" />
    <glyph glyph-name="eth" unicode="&#xf0;" horiz-adv-x="1252" 
d="M1107 775q37 -67 53.5 -128.5t16.5 -132.5q0 -148 -75 -270t-204 -192t-284 -70q-145 0 -269.5 71t-198 192.5t-73.5 265.5q0 145 71.5 263t183.5 186.5t228 75.5q69 1 123 -13l-172 206l-286 -77l-27 105l237 64l-180 215h275q51 -65 125 -156l273 73l28 -105l-227 -61
l25 -32q186 -229 254 -323q66 -90 103 -157zM913 683q-40 74 -113.5 117t-171.5 43q-92 0 -166.5 -42t-117.5 -117.5t-43 -172.5q0 -86 40.5 -157.5t112.5 -113.5t163 -42q99 0 175.5 40t118.5 112.5t42 167.5q0 91 -40 165z" />
    <glyph glyph-name="ntilde" unicode="&#xf1;" horiz-adv-x="1245" 
d="M914 1030q89 -49 139 -147t50 -239v-644h-223v612q0 274 -237 274q-73 0 -130 -31.5t-90 -95t-33 -154.5v-605h-223v1059h223v-151q52 82 133 126.5t185 44.5q117 0 206 -49zM571 1370q-19 30 -39.5 43t-46.5 13q-47 0 -73 -43.5t-26 -112.5h-120q0 79 26 141t75 97
t114 35q115 0 189 -112q17 -27 38.5 -41.5t51.5 -14.5q47 0 72 41t25 114h119q0 -78 -25 -140t-73.5 -97.5t-116.5 -35.5q-117 0 -190 113z" />
    <glyph glyph-name="ograve" unicode="&#xf2;" horiz-adv-x="1286" 
d="M356.5 52.5q-129.5 72.5 -204.5 198t-75 279.5q0 153 75 278.5t204.5 198t286.5 72.5t286.5 -72.5t204.5 -198t75 -278.5q0 -154 -75 -279.5t-204.5 -198t-286.5 -72.5t-286.5 72.5zM818 226q80 46 127 126.5t47 177.5t-47 177t-127 126t-176 46t-176 -46t-126.5 -126
t-46.5 -177q0 -98 46.5 -178t126.5 -126t176 -46t176 46zM334 1459l123 91l264 -343h-157z" />
    <glyph glyph-name="oacute" unicode="&#xf3;" horiz-adv-x="1286" 
d="M356.5 52.5q-129.5 72.5 -204.5 198t-75 279.5q0 153 75 278.5t204.5 198t286.5 72.5t286.5 -72.5t204.5 -198t75 -278.5q0 -154 -75 -279.5t-204.5 -198t-286.5 -72.5t-286.5 72.5zM818 226q80 46 127 126.5t47 177.5t-47 177t-127 126t-176 46t-176 -46t-126.5 -126
t-46.5 -177q0 -98 46.5 -178t126.5 -126t176 -46t176 46zM818 1207l264 343l123 -91l-230 -252h-157z" />
    <glyph glyph-name="ocircumflex" unicode="&#xf4;" horiz-adv-x="1286" 
d="M356.5 52.5q-129.5 72.5 -204.5 198t-75 279.5q0 153 75 278.5t204.5 198t286.5 72.5t286.5 -72.5t204.5 -198t75 -278.5q0 -154 -75 -279.5t-204.5 -198t-286.5 -72.5t-286.5 72.5zM818 226q80 46 127 126.5t47 177.5t-47 177t-127 126t-176 46t-176 -46t-126.5 -126
t-46.5 -177q0 -98 46.5 -178t126.5 -126t176 -46t176 46zM331 1231l220 298h181l222 -298l-103 -64l-208 253l-210 -253z" />
    <glyph glyph-name="otilde" unicode="&#xf5;" horiz-adv-x="1286" 
d="M356.5 52.5q-129.5 72.5 -204.5 198t-75 279.5q0 153 75 278.5t204.5 198t286.5 72.5t286.5 -72.5t204.5 -198t75 -278.5q0 -154 -75 -279.5t-204.5 -198t-286.5 -72.5t-286.5 72.5zM818 226q80 46 127 126.5t47 177.5t-47 177t-127 126t-176 46t-176 -46t-126.5 -126
t-46.5 -177q0 -98 46.5 -178t126.5 -126t176 -46t176 46zM591 1369q-19 30 -39.5 43t-46.5 13q-47 0 -73 -43.5t-26 -112.5h-120q0 79 26 141t75 97t114 35q115 0 189 -112q17 -27 38.5 -41.5t51.5 -14.5q47 0 72 41t25 114h119q0 -78 -25 -140t-73.5 -97.5t-116.5 -35.5
q-117 0 -190 113z" />
    <glyph glyph-name="odieresis" unicode="&#xf6;" horiz-adv-x="1286" 
d="M356.5 52.5q-129.5 72.5 -204.5 198t-75 279.5q0 153 75 278.5t204.5 198t286.5 72.5t286.5 -72.5t204.5 -198t75 -278.5q0 -154 -75 -279.5t-204.5 -198t-286.5 -72.5t-286.5 72.5zM818 226q80 46 127 126.5t47 177.5t-47 177t-127 126t-176 46t-176 -46t-126.5 -126
t-46.5 -177q0 -98 46.5 -178t126.5 -126t176 -46t176 46zM380 1314.5q-30 17.5 -48 47t-18 64.5q0 36 18 65.5t47.5 46.5t64.5 17t65 -17t48 -46.5t18 -65.5q0 -35 -18 -64.5t-48 -47t-65 -17.5q-34 0 -64 17.5zM778 1314.5q-30 17.5 -47.5 47t-17.5 64.5q0 36 17.5 65.5
t47.5 46.5t65 17q54 0 91.5 -37.5t37.5 -91.5q0 -35 -17.5 -64.5t-47 -47t-64.5 -17.5t-65 17.5z" />
    <glyph glyph-name="divide" unicode="&#xf7;" horiz-adv-x="1053" 
d="M454 936q-31 18 -49.5 48.5t-18.5 68.5q0 36 18.5 67.5t50 50.5t66.5 19q36 0 68.5 -19t51.5 -50.5t19 -67.5q0 -38 -19 -68.5t-51 -48.5t-69 -18q-36 0 -67 18zM129 783h795v-193h-795v193zM454 202q-31 18 -49.5 49.5t-18.5 69.5q0 35 18.5 66.5t50 50t66.5 18.5
q36 0 68 -18.5t51.5 -50t19.5 -66.5q0 -38 -19 -69.5t-51 -49.5t-69 -18q-36 0 -67 18z" />
    <glyph glyph-name="oslash" unicode="&#xf8;" horiz-adv-x="1286" 
d="M1158.5 763q50.5 -108 50.5 -233q0 -154 -75 -279.5t-204.5 -198t-286.5 -72.5q-138 0 -259 58l-77 -111l-118 71l80 115q-90 76 -141 184t-51 233q0 153 75 278.5t204.5 198t286.5 72.5q138 0 260 -58l76 109l117 -71l-79 -113q91 -75 141.5 -183zM318.5 395.5
q25.5 -63.5 71.5 -110.5l394 565q-67 29 -142 29q-96 0 -176 -46t-126.5 -126t-46.5 -177q0 -71 25.5 -134.5zM818 226q80 46 127 126.5t47 177.5q0 70 -25 132.5t-71 109.5l-393 -564q65 -28 139 -28q96 0 176 46z" />
    <glyph glyph-name="ugrave" unicode="&#xf9;" horiz-adv-x="1191" 
d="M353.5 27q-102.5 47 -158 136.5t-55.5 212.5v683h220v-672q0 -103 64.5 -155.5t170.5 -52.5t170.5 52.5t64.5 155.5v672h220v-683q0 -123 -55.5 -212.5t-158 -136.5t-241.5 -47t-241.5 47zM286 1460l123 91l264 -343h-157z" />
    <glyph glyph-name="uacute" unicode="&#xfa;" horiz-adv-x="1191" 
d="M353.5 27q-102.5 47 -158 136.5t-55.5 212.5v683h220v-672q0 -103 64.5 -155.5t170.5 -52.5t170.5 52.5t64.5 155.5v672h220v-683q0 -123 -55.5 -212.5t-158 -136.5t-241.5 -47t-241.5 47zM770 1208l264 343l123 -91l-230 -252h-157z" />
    <glyph glyph-name="ucircumflex" unicode="&#xfb;" horiz-adv-x="1191" 
d="M353.5 27q-102.5 47 -158 136.5t-55.5 212.5v683h220v-672q0 -103 64.5 -155.5t170.5 -52.5t170.5 52.5t64.5 155.5v672h220v-683q0 -123 -55.5 -212.5t-158 -136.5t-241.5 -47t-241.5 47zM283 1232l220 298h181l222 -298l-103 -64l-208 253l-210 -253z" />
    <glyph glyph-name="udieresis" unicode="&#xfc;" horiz-adv-x="1191" 
d="M353.5 27q-102.5 47 -158 136.5t-55.5 212.5v683h220v-672q0 -103 64.5 -155.5t170.5 -52.5t170.5 52.5t64.5 155.5v672h220v-683q0 -123 -55.5 -212.5t-158 -136.5t-241.5 -47t-241.5 47zM332 1315.5q-30 17.5 -48 47t-18 64.5q0 36 18 65.5t47.5 46.5t64.5 17t65 -17
t48 -46.5t18 -65.5q0 -35 -18 -64.5t-48 -47t-65 -17.5q-34 0 -64 17.5zM730 1315.5q-30 17.5 -47.5 47t-17.5 64.5q0 36 17.5 65.5t47.5 46.5t65 17q54 0 91.5 -37.5t37.5 -91.5q0 -35 -17.5 -64.5t-47 -47t-64.5 -17.5t-65 17.5z" />
    <glyph glyph-name="yacute" unicode="&#xfd;" horiz-adv-x="1100" 
d="M1077 1059l-624 -1557h-232l216 544l-414 1013h246l287 -790l281 790h240zM726 1208l264 343l123 -91l-230 -252h-157z" />
    <glyph glyph-name="thorn" unicode="&#xfe;" horiz-adv-x="1376" 
d="M169 1536h222v-632q64 81 162 128t219 47q141 0 261.5 -73t192 -199t71.5 -278q0 -153 -71.5 -278.5t-192 -198t-261.5 -72.5q-120 0 -218 45.5t-163 128.5v-652h-222v2034zM900.5 223.5q80.5 47.5 127 128.5t46.5 177t-46.5 177t-127 128t-175.5 47q-96 0 -176 -47
t-126.5 -128t-46.5 -177q0 -97 46.5 -178t126.5 -128t176 -47q95 0 175.5 47.5z" />
    <glyph glyph-name="ydieresis" unicode="&#xff;" horiz-adv-x="1100" 
d="M1077 1059l-624 -1557h-232l216 544l-414 1013h246l287 -790l281 790h240zM288 1315.5q-30 17.5 -48 47t-18 64.5q0 36 18 65.5t47.5 46.5t64.5 17t65 -17t48 -46.5t18 -65.5q0 -35 -18 -64.5t-48 -47t-65 -17.5q-34 0 -64 17.5zM686 1315.5q-30 17.5 -47.5 47
t-17.5 64.5q0 36 17.5 65.5t47.5 46.5t65 17q54 0 91.5 -37.5t37.5 -91.5q0 -35 -17.5 -64.5t-47 -47t-64.5 -17.5t-65 17.5z" />
    <glyph glyph-name="Amacron" unicode="&#x100;" horiz-adv-x="1574" 
d="M1151 332h-728l-127 -332h-245l609 1536h253l609 -1536h-244zM1072 540l-285 744l-284 -744h569zM463 1856h647v-143h-647v143z" />
    <glyph glyph-name="amacron" unicode="&#x101;" horiz-adv-x="1374" 
d="M342 53q-120 73 -191.5 199t-71.5 279q0 152 71.5 277.5t191.5 198t260 72.5q123 0 220 -45.5t163 -128.5v154h222v-1059h-223v154q-65 -82 -162 -128t-220 -46q-140 0 -260 73zM827 224q80 46 126 127t46 180t-46 179t-126 126t-176 46t-176 -46t-127 -126t-47 -179
t47 -180t127 -127t176 -46t176 46zM364 1379h647v-143h-647v143z" />
    <glyph glyph-name="Abreve" unicode="&#x102;" horiz-adv-x="1574" 
d="M1151 332h-728l-127 -332h-245l609 1536h253l609 -1536h-244zM1072 540l-285 744l-284 -744h569zM603.5 1719q-79.5 39 -124 114.5t-44.5 179.5h134q0 -65 27.5 -115.5t77 -79t112.5 -28.5q64 0 113.5 28.5t77 79t27.5 115.5h134q0 -104 -44.5 -179.5t-124 -114.5
t-183.5 -39q-103 0 -182.5 39z" />
    <glyph glyph-name="abreve" unicode="&#x103;" horiz-adv-x="1374" 
d="M342 53q-120 73 -191.5 199t-71.5 279q0 152 71.5 277.5t191.5 198t260 72.5q123 0 220 -45.5t163 -128.5v154h222v-1059h-223v154q-65 -82 -162 -128t-220 -46q-140 0 -260 73zM827 224q80 46 126 127t46 180t-46 179t-126 126t-176 46t-176 -46t-127 -126t-47 -179
t47 -180t127 -127t176 -46t176 46zM504.5 1242q-79.5 39 -124 114.5t-44.5 179.5h134q0 -65 27.5 -115.5t77 -79t112.5 -28.5q64 0 113.5 28.5t77 79t27.5 115.5h134q0 -104 -44.5 -179.5t-124 -114.5t-183.5 -39q-103 0 -182.5 39z" />
    <glyph glyph-name="Aogonek" unicode="&#x104;" horiz-adv-x="1574" 
d="M1309.5 -346.5q30.5 -25.5 78.5 -25.5q33 0 68.5 12t65.5 35v-179q-62 -26 -137 -26q-120 0 -189.5 58t-69.5 157q0 94 64 176t179 139h-91l-127 332h-728l-127 -332h-245l609 1536h253l609 -1536q-105 -47 -174 -120.5t-69 -150.5q0 -50 30.5 -75.5zM1072 540l-285 744
l-284 -744h569z" />
    <glyph glyph-name="aogonek" unicode="&#x105;" horiz-adv-x="1374" 
d="M1001.5 -346.5q30.5 -25.5 78.5 -25.5q33 0 68.5 12t65.5 35v-179q-62 -26 -137 -26q-120 0 -189.5 58t-69.5 157q0 94 64 176t179 139h-77v154q-65 -82 -162 -128t-220 -46q-140 0 -260 73t-191.5 199t-71.5 279q0 152 71.5 277.5t191.5 198t260 72.5q123 0 220 -45.5
t163 -128.5v154h222v-1056l7 -3q-105 -47 -174 -120.5t-69 -150.5q0 -50 30.5 -75.5zM827 224q80 46 126 127t46 180t-46 179t-126 126t-176 46t-176 -46t-127 -126t-47 -179t47 -180t127 -127t176 -46t176 46z" />
    <glyph glyph-name="Cacute" unicode="&#x106;" horiz-adv-x="1543" 
d="M499 84q-183 104 -289 284.5t-106 399.5t106 399.5t289 284.5t405 104q159 0 312 -63.5t260 -172.5l-168 -160q-76 80 -182.5 125.5t-221.5 45.5q-156 0 -285 -74.5t-204 -203.5t-75 -285t75 -285t204 -203.5t285 -74.5q115 0 221.5 45.5t182.5 125.5l168 -160
q-107 -109 -260 -172.5t-312 -63.5q-222 0 -405 104zM1077 1685l264 343l123 -91l-230 -252h-157z" />
    <glyph glyph-name="cacute" unicode="&#x107;" horiz-adv-x="1143" 
d="M356.5 54q-129.5 72 -204.5 197.5t-75 278.5t75 279t204.5 198t286.5 72q138 0 256.5 -57.5t196.5 -158.5l-167 -134q-47 71 -121.5 110.5t-165.5 39.5q-97 0 -177 -45.5t-126 -125t-46 -178.5q0 -98 46 -178t126 -125.5t177 -45.5q91 0 165.5 40t121.5 111l167 -134
q-78 -101 -196.5 -158.5t-256.5 -57.5q-157 0 -286.5 72zM814 1208l264 343l123 -91l-230 -252h-157z" />
    <glyph glyph-name="Cdotaccent" unicode="&#x10a;" horiz-adv-x="1543" 
d="M499 84q-183 104 -289 284.5t-106 399.5t106 399.5t289 284.5t405 104q159 0 312 -63.5t260 -172.5l-168 -160q-76 80 -182.5 125.5t-221.5 45.5q-156 0 -285 -74.5t-204 -203.5t-75 -285t75 -285t204 -203.5t285 -74.5q115 0 221.5 45.5t182.5 125.5l168 -160
q-107 -109 -260 -172.5t-312 -63.5q-222 0 -405 104zM833.5 1774.5q-32.5 18.5 -51.5 50.5t-19 69q0 39 19 70.5t51 50t70 18.5q37 0 69 -18.5t51 -50t19 -70.5q0 -37 -19 -69t-51 -50.5t-69 -18.5t-69.5 18.5z" />
    <glyph glyph-name="cdotaccent" unicode="&#x10b;" horiz-adv-x="1143" 
d="M356.5 54q-129.5 72 -204.5 197.5t-75 278.5t75 279t204.5 198t286.5 72q138 0 256.5 -57.5t196.5 -158.5l-167 -134q-47 71 -121.5 110.5t-165.5 39.5q-97 0 -177 -45.5t-126 -125t-46 -178.5q0 -98 46 -178t126 -125.5t177 -45.5q91 0 165.5 40t121.5 111l167 -134
q-78 -101 -196.5 -158.5t-256.5 -57.5q-157 0 -286.5 72zM570.5 1297.5q-32.5 18.5 -51.5 50.5t-19 69q0 39 19 70.5t51 50t70 18.5q37 0 69 -18.5t51 -50t19 -70.5q0 -37 -19 -69t-51 -50.5t-69 -18.5t-69.5 18.5z" />
    <glyph glyph-name="Ccaron" unicode="&#x10c;" horiz-adv-x="1543" 
d="M499 84q-183 104 -289 284.5t-106 399.5t106 399.5t289 284.5t405 104q159 0 312 -63.5t260 -172.5l-168 -160q-76 80 -182.5 125.5t-221.5 45.5q-156 0 -285 -74.5t-204 -203.5t-75 -285t75 -285t204 -203.5t285 -74.5q115 0 221.5 45.5t182.5 125.5l168 -160
q-107 -109 -260 -172.5t-312 -63.5q-222 0 -405 104zM590 1984l103 63l209 -253l208 253l103 -63l-222 -299h-181z" />
    <glyph glyph-name="ccaron" unicode="&#x10d;" horiz-adv-x="1143" 
d="M356.5 54q-129.5 72 -204.5 197.5t-75 278.5t75 279t204.5 198t286.5 72q138 0 256.5 -57.5t196.5 -158.5l-167 -134q-47 71 -121.5 110.5t-165.5 39.5q-97 0 -177 -45.5t-126 -125t-46 -178.5q0 -98 46 -178t126 -125.5t177 -45.5q91 0 165.5 40t121.5 111l167 -134
q-78 -101 -196.5 -158.5t-256.5 -57.5q-157 0 -286.5 72zM327 1507l103 63l209 -253l208 253l103 -63l-222 -299h-181z" />
    <glyph glyph-name="Dcaron" unicode="&#x10e;" horiz-adv-x="1592" 
d="M210 1536h496q245 0 419 -94.5t264.5 -267.5t90.5 -406t-90.5 -406t-264.5 -267.5t-419 -94.5h-496v1536zM698 214q268 0 404 142.5t136 411.5t-136 411.5t-404 142.5h-253v-1108h253zM351 1984l103 63l209 -253l208 253l103 -63l-222 -299h-181z" />
    <glyph glyph-name="dcaron" unicode="&#x10f;" horiz-adv-x="1556" 
d="M342 52q-120 73 -191.5 199.5t-71.5 279.5q0 152 71.5 278.5t191.5 199.5t260 73q122 0 219.5 -47t162.5 -130l1 631h222v-1536h-223v154q-65 -82 -162.5 -128.5t-219.5 -46.5q-140 0 -260 73zM1333 894l109 642h246l-190 -642h-165zM827 224q80 46 126 127t46 180
t-46 179t-126 126t-176 46t-176 -46t-127 -126t-47 -179t47 -180t127 -127t176 -46t176 46z" />
    <glyph glyph-name="Dcroat" unicode="&#x110;" horiz-adv-x="1592" 
d="M1125 1441.5q174 -94.5 264.5 -267.5t90.5 -406t-90.5 -406t-264.5 -267.5t-419 -94.5h-496v694h-152v148h152v694h496q245 0 419 -94.5zM1102 356.5q136 142.5 136 411.5t-136 411.5t-404 142.5h-253v-480h258v-148h-258v-480h253q268 0 404 142.5z" />
    <glyph glyph-name="dcroat" unicode="&#x111;" horiz-adv-x="1374" 
d="M1339 1232h-132v-1232h-223v154q-65 -82 -162.5 -128.5t-219.5 -46.5q-140 0 -260 73t-191.5 199.5t-71.5 279.5q0 152 71.5 278.5t191.5 199.5t260 73q122 0 219.5 -47t162.5 -130l1 327h-291v148h291v156h222v-156h132v-148zM827 224q80 46 126 127t46 180t-46 179
t-126 126t-176 46t-176 -46t-127 -126t-47 -179t47 -180t127 -127t176 -46t176 46z" />
    <glyph glyph-name="Emacron" unicode="&#x112;" horiz-adv-x="1213" 
d="M446 1322v-449h565v-213h-565v-446h645v-214h-881v1536h881v-214h-645zM329 1856h647v-143h-647v143z" />
    <glyph glyph-name="emacron" unicode="&#x113;" horiz-adv-x="1247" 
d="M1179 498h-887q5 -96 52.5 -172t124.5 -118t169 -42q93 0 172 43t127 121l181 -77q-69 -128 -195 -200.5t-284 -72.5q-160 0 -288.5 73t-201 199t-72.5 278q0 151 73 277t200.5 199.5t283.5 73.5q150 0 274 -69t197 -192t76 -277zM425 834q-89 -69 -120 -184h647
q-16 76 -60.5 133.5t-111 88.5t-145.5 31q-121 0 -210 -69zM320 1388h647v-143h-647v143z" />
    <glyph glyph-name="Edotaccent" unicode="&#x116;" horiz-adv-x="1213" 
d="M446 1322v-449h565v-213h-565v-446h645v-214h-881v1536h881v-214h-645zM584.5 1774.5q-32.5 18.5 -51.5 50.5t-19 69q0 39 19 70.5t51 50t70 18.5q37 0 69 -18.5t51 -50t19 -70.5q0 -37 -19 -69t-51 -50.5t-69 -18.5t-69.5 18.5z" />
    <glyph glyph-name="edotaccent" unicode="&#x117;" horiz-adv-x="1247" 
d="M1179 498h-887q5 -96 52.5 -172t124.5 -118t169 -42q93 0 172 43t127 121l181 -77q-69 -128 -195 -200.5t-284 -72.5q-160 0 -288.5 73t-201 199t-72.5 278q0 151 73 277t200.5 199.5t283.5 73.5q150 0 274 -69t197 -192t76 -277zM425 834q-89 -69 -120 -184h647
q-16 76 -60.5 133.5t-111 88.5t-145.5 31q-121 0 -210 -69zM575.5 1306.5q-32.5 18.5 -51.5 50.5t-19 69q0 39 19 70.5t51 50t70 18.5q37 0 69 -18.5t51 -50t19 -70.5q0 -37 -19 -69t-51 -50.5t-69 -18.5t-69.5 18.5z" />
    <glyph glyph-name="Eogonek" unicode="&#x118;" horiz-adv-x="1213" 
d="M884.5 -346.5q30.5 -25.5 78.5 -25.5q33 0 68.5 12t65.5 35v-179q-62 -26 -137 -26q-120 0 -189.5 58t-69.5 157q0 94 64 176t179 139h-734v1536h881v-214h-645v-449h565v-213h-565v-446h645v-211l6 -3q-105 -47 -174 -120.5t-69 -150.5q0 -50 30.5 -75.5z" />
    <glyph glyph-name="eogonek" unicode="&#x119;" horiz-adv-x="1247" 
d="M1179 498h-887q5 -96 52.5 -172t124.5 -118t169 -42q93 0 172 43t127 121l181 -77q-46 -85 -118 -146.5t-163 -93.5q-66 -47 -105 -102.5t-39 -112.5q0 -50 30.5 -75.5t78.5 -25.5q33 0 68.5 12t65.5 35v-179q-62 -26 -137 -26q-120 0 -189.5 58t-69.5 157q0 62 28 119.5
t82 106.5h-11q-160 0 -288.5 73t-201 199t-72.5 278q0 151 73 277t200.5 199.5t283.5 73.5q150 0 274 -69t197 -192t76 -277zM425 834q-89 -69 -120 -184h647q-16 76 -60.5 133.5t-111 88.5t-145.5 31q-121 0 -210 -69z" />
    <glyph glyph-name="Ecaron" unicode="&#x11a;" horiz-adv-x="1213" 
d="M446 1322v-449h565v-213h-565v-446h645v-214h-881v1536h881v-214h-645zM341 1984l103 63l209 -253l208 253l103 -63l-222 -299h-181z" />
    <glyph glyph-name="ecaron" unicode="&#x11b;" horiz-adv-x="1247" 
d="M1179 498h-887q5 -96 52.5 -172t124.5 -118t169 -42q93 0 172 43t127 121l181 -77q-69 -128 -195 -200.5t-284 -72.5q-160 0 -288.5 73t-201 199t-72.5 278q0 151 73 277t200.5 199.5t283.5 73.5q150 0 274 -69t197 -192t76 -277zM425 834q-89 -69 -120 -184h647
q-16 76 -60.5 133.5t-111 88.5t-145.5 31q-121 0 -210 -69zM332 1516l103 63l209 -253l208 253l103 -63l-222 -299h-181z" />
    <glyph glyph-name="Gbreve" unicode="&#x11e;" horiz-adv-x="1786" 
d="M1703 770q0 -219 -105.5 -400t-288.5 -285.5t-405 -104.5q-221 0 -404.5 104.5t-289.5 285t-106 398.5t106 398.5t289.5 285t404.5 104.5q209 0 385.5 -94.5t284.5 -257.5l-206 -115q-76 112 -198.5 177t-266.5 65q-155 0 -284 -75t-204 -204.5t-75 -287.5
q0 -154 73 -282t202 -202.5t290 -74.5q136 0 250 53t190.5 149t105.5 220h-414v205h663q3 -27 3 -62zM697.5 1719q-79.5 39 -124 114.5t-44.5 179.5h134q0 -65 27.5 -115.5t77 -79t112.5 -28.5q64 0 113.5 28.5t77 79t27.5 115.5h134q0 -104 -44.5 -179.5t-124 -114.5
t-183.5 -39q-103 0 -182.5 39z" />
    <glyph glyph-name="gbreve" unicode="&#x11f;" horiz-adv-x="1345" 
d="M340.5 -435.5q-133.5 62.5 -226.5 207.5l156 127q115 -204 355 -204q161 0 245 86.5t84 236.5v161q-59 -79 -148.5 -123t-204.5 -44q-146 0 -265.5 70.5t-189 192.5t-69.5 272t69 271.5t188.5 191t264.5 69.5q116 0 205 -44t150 -124v148h224v-1028q0 -159 -64.5 -278
t-188 -185t-295.5 -66q-156 0 -289.5 62.5zM800.5 255q76.5 44 121.5 121t45 171q0 95 -45 172t-121.5 121.5t-168.5 44.5q-91 0 -167.5 -44.5t-121 -121.5t-44.5 -172q0 -94 44.5 -171t121 -121t167.5 -44q92 0 168.5 44zM457.5 1242q-79.5 39 -124 114.5t-44.5 179.5h134
q0 -65 27.5 -115.5t77 -79t112.5 -28.5q64 0 113.5 28.5t77 79t27.5 115.5h134q0 -104 -44.5 -179.5t-124 -114.5t-183.5 -39q-103 0 -182.5 39z" />
    <glyph glyph-name="Gdotaccent" unicode="&#x120;" horiz-adv-x="1786" 
d="M1703 770q0 -219 -105.5 -400t-288.5 -285.5t-405 -104.5q-221 0 -404.5 104.5t-289.5 285t-106 398.5t106 398.5t289.5 285t404.5 104.5q209 0 385.5 -94.5t284.5 -257.5l-206 -115q-76 112 -198.5 177t-266.5 65q-155 0 -284 -75t-204 -204.5t-75 -287.5
q0 -154 73 -282t202 -202.5t290 -74.5q136 0 250 53t190.5 149t105.5 220h-414v205h663q3 -27 3 -62zM812.5 1774.5q-32.5 18.5 -51.5 50.5t-19 69q0 39 19 70.5t51 50t70 18.5q37 0 69 -18.5t51 -50t19 -70.5q0 -37 -19 -69t-51 -50.5t-69 -18.5t-69.5 18.5z" />
    <glyph glyph-name="gdotaccent" unicode="&#x121;" horiz-adv-x="1345" 
d="M340.5 -435.5q-133.5 62.5 -226.5 207.5l156 127q115 -204 355 -204q161 0 245 86.5t84 236.5v161q-59 -79 -148.5 -123t-204.5 -44q-146 0 -265.5 70.5t-189 192.5t-69.5 272t69 271.5t188.5 191t264.5 69.5q116 0 205 -44t150 -124v148h224v-1028q0 -159 -64.5 -278
t-188 -185t-295.5 -66q-156 0 -289.5 62.5zM800.5 255q76.5 44 121.5 121t45 171q0 95 -45 172t-121.5 121.5t-168.5 44.5q-91 0 -167.5 -44.5t-121 -121.5t-44.5 -172q0 -94 44.5 -171t121 -121t167.5 -44q92 0 168.5 44zM572.5 1297.5q-32.5 18.5 -51.5 50.5t-19 69
q0 39 19 70.5t51 50t70 18.5q37 0 69 -18.5t51 -50t19 -70.5q0 -37 -19 -69t-51 -50.5t-69 -18.5t-69.5 18.5z" />
    <glyph glyph-name="Gcommaaccent" unicode="&#x122;" horiz-adv-x="1786" 
d="M1703 770q0 -219 -105.5 -400t-288.5 -285.5t-405 -104.5q-221 0 -404.5 104.5t-289.5 285t-106 398.5t106 398.5t289.5 285t404.5 104.5q209 0 385.5 -94.5t284.5 -257.5l-206 -115q-76 112 -198.5 177t-266.5 65q-155 0 -284 -75t-204 -204.5t-75 -287.5
q0 -154 73 -282t202 -202.5t290 -74.5q136 0 250 53t190.5 149t105.5 220h-414v205h663q3 -27 3 -62zM609 -532l166 380h212l-261 -430z" />
    <glyph glyph-name="gcommaaccent" unicode="&#x123;" horiz-adv-x="1345" 
d="M340.5 -435.5q-133.5 62.5 -226.5 207.5l156 127q115 -204 355 -204q161 0 245 86.5t84 236.5v161q-59 -79 -148.5 -123t-204.5 -44q-146 0 -265.5 70.5t-189 192.5t-69.5 272t69 271.5t188.5 191t264.5 69.5q116 0 205 -44t150 -124v148h224v-1028q0 -159 -64.5 -278
t-188 -185t-295.5 -66q-156 0 -289.5 62.5zM800.5 255q76.5 44 121.5 121t45 171q0 95 -45 172t-121.5 121.5t-168.5 44.5q-91 0 -167.5 -44.5t-121 -121.5t-44.5 -172q0 -94 44.5 -171t121 -121t167.5 -44q92 0 168.5 44zM812 1538l-109 -317h-246l190 317h165z" />
    <glyph glyph-name="Hbar" unicode="&#x126;" horiz-adv-x="1646" 
d="M1566 1142h-130v-1142h-236v664h-754v-664h-236v1142h-134v123h134v271h236v-271h754v271h236v-271h130v-123zM1200 1142h-754v-267h754v267z" />
    <glyph glyph-name="hbar" unicode="&#x127;" horiz-adv-x="1239" 
d="M909 1030q89 -49 139 -147t50 -239v-644h-217v612q0 144 -65.5 209t-175.5 65q-74 0 -131 -31t-90 -93t-34 -152v-610h-218v1232h-132v148h132v156h218v-156h295v-148h-295v-324q52 82 133 126.5t185 44.5q117 0 206 -49z" />
    <glyph glyph-name="Itilde" unicode="&#x128;" horiz-adv-x="656" 
d="M210 1536h236v-1536h-236v1536zM275 1847q-19 30 -39.5 43t-46.5 13q-47 0 -73 -43.5t-26 -112.5h-120q0 79 26 141t75 97t114 35q115 0 189 -112q17 -27 38.5 -41.5t51.5 -14.5q47 0 72 41t25 114h119q0 -78 -25 -140t-73.5 -97.5t-116.5 -35.5q-117 0 -190 113z" />
    <glyph glyph-name="itilde" unicode="&#x129;" horiz-adv-x="556" 
d="M167 1059h222v-1059h-222v1059zM227 1370q-19 30 -39.5 43t-46.5 13q-47 0 -73 -43.5t-26 -112.5h-120q0 79 26 141t75 97t114 35q115 0 189 -112q17 -27 38.5 -41.5t51.5 -14.5q47 0 72 41t25 114h119q0 -78 -25 -140t-73.5 -97.5t-116.5 -35.5q-117 0 -190 113z" />
    <glyph glyph-name="Imacron" unicode="&#x12a;" horiz-adv-x="656" 
d="M210 1536h236v-1536h-236v1536zM3 1856h647v-143h-647v143z" />
    <glyph glyph-name="imacron" unicode="&#x12b;" horiz-adv-x="556" 
d="M167 1059h222v-1059h-222v1059zM-45 1379h647v-143h-647v143z" />
    <glyph glyph-name="Iogonek" unicode="&#x12e;" horiz-adv-x="656" 
d="M272 -120.5q-69 -73.5 -69 -150.5q0 -50 30.5 -75.5t78.5 -25.5q33 0 68.5 12t65.5 35v-179q-62 -26 -137 -26q-120 0 -189.5 58t-69.5 157q0 94 64 176t179 139h-83v1536h236v-1536q-105 -47 -174 -120.5z" />
    <glyph glyph-name="iogonek" unicode="&#x12f;" horiz-adv-x="556" 
d="M210.5 1297.5q-32.5 18.5 -51.5 50.5t-19 69q0 39 19 70.5t51 50t70 18.5q37 0 69 -18.5t51 -50t19 -70.5q0 -37 -19 -69t-51 -50.5t-69 -18.5t-69.5 18.5zM167 1059h222v-1059q-105 -47 -174 -120.5t-69 -150.5q0 -50 30.5 -75.5t78.5 -25.5q33 0 68.5 12t65.5 35v-179
q-62 -26 -137 -26q-120 0 -189.5 58t-69.5 157q0 94 64 176t179 139h-69v1059z" />
    <glyph glyph-name="Idotaccent" unicode="&#x130;" horiz-adv-x="656" 
d="M210 1536h236v-1536h-236v1536zM258.5 1774.5q-32.5 18.5 -51.5 50.5t-19 69q0 39 19 70.5t51 50t70 18.5q37 0 69 -18.5t51 -50t19 -70.5q0 -37 -19 -69t-51 -50.5t-69 -18.5t-69.5 18.5z" />
    <glyph glyph-name="dotlessi" unicode="&#x131;" horiz-adv-x="556" 
d="M167 1059h222v-1059h-222v1059z" />
    <glyph glyph-name="Kcommaaccent" unicode="&#x136;" horiz-adv-x="1426" 
d="M1073 0l-627 781v-781h-236v1536h236v-671l581 671h300l-632 -711l684 -825h-306zM435 -532l166 380h212l-261 -430z" />
    <glyph glyph-name="kcommaaccent" unicode="&#x137;" horiz-adv-x="1167" 
d="M868 0l-478 526v-526h-223v1536h223v-934l419 457h281l-465 -488l533 -571h-290zM309 -532l166 380h212l-261 -430z" />
    <glyph glyph-name="Lacute" unicode="&#x139;" horiz-adv-x="1052" 
d="M991 214v-214h-781v1536h236v-1322h545zM502 1685l264 343l123 -91l-230 -252h-157z" />
    <glyph glyph-name="lacute" unicode="&#x13a;" horiz-adv-x="557" 
d="M167 1536h223v-1536h-223v1536zM454 1685l264 343l123 -91l-230 -252h-157z" />
    <glyph glyph-name="Lcommaaccent" unicode="&#x13b;" horiz-adv-x="1052" 
d="M991 214v-214h-781v1536h236v-1322h545zM329 -532l166 380h212l-261 -430z" />
    <glyph glyph-name="lcommaaccent" unicode="&#x13c;" horiz-adv-x="557" 
d="M167 1536h223v-1536h-223v1536zM7 -532l166 380h212l-261 -430z" />
    <glyph glyph-name="Lcaron" unicode="&#x13d;" horiz-adv-x="1110" 
d="M446 214h545v-214h-781v1536h236v-1322zM831 894h-165l109 642h246z" />
    <glyph glyph-name="lcaron" unicode="&#x13e;" horiz-adv-x="723" 
d="M167 1536h223v-1536h-223v1536zM499 894l109 642h246l-190 -642h-165z" />
    <glyph glyph-name="Lslash" unicode="&#x141;" horiz-adv-x="1052" 
d="M991 214v-214h-781v561l-146 -108v173l146 108v802h236v-626l233 173v-173l-233 -173v-523h545z" />
    <glyph glyph-name="lslash" unicode="&#x142;" horiz-adv-x="557" 
d="M585 925l-195 -145v-780h-223v614l-197 -146v173l197 146v749h223v-583l195 145v-173z" />
    <glyph glyph-name="Nacute" unicode="&#x143;" horiz-adv-x="1810" 
d="M1601 1536v-1536h-200l-962 1169v-1169h-229v1536h198l963 -1166v1166h230zM1082 1685l264 343l123 -91l-230 -252h-157z" />
    <glyph glyph-name="nacute" unicode="&#x144;" horiz-adv-x="1245" 
d="M914 1030q89 -49 139 -147t50 -239v-644h-223v612q0 274 -237 274q-73 0 -130 -31.5t-90 -95t-33 -154.5v-605h-223v1059h223v-151q52 82 133 126.5t185 44.5q117 0 206 -49zM798 1208l264 343l123 -91l-230 -252h-157z" />
    <glyph glyph-name="Ncommaaccent" unicode="&#x145;" horiz-adv-x="1810" 
d="M1601 1536v-1536h-200l-962 1169v-1169h-229v1536h198l963 -1166v1166h230zM633 -532l166 380h212l-261 -430z" />
    <glyph glyph-name="ncommaaccent" unicode="&#x146;" horiz-adv-x="1245" 
d="M914 1030q89 -49 139 -147t50 -239v-644h-223v612q0 274 -237 274q-73 0 -130 -31.5t-90 -95t-33 -154.5v-605h-223v1059h223v-151q52 82 133 126.5t185 44.5q117 0 206 -49zM351 -532l166 380h212l-261 -430z" />
    <glyph glyph-name="Ncaron" unicode="&#x147;" horiz-adv-x="1810" 
d="M1601 1536v-1536h-200l-962 1169v-1169h-229v1536h198l963 -1166v1166h230zM595 1984l103 63l209 -253l208 253l103 -63l-222 -299h-181z" />
    <glyph glyph-name="ncaron" unicode="&#x148;" horiz-adv-x="1245" 
d="M914 1030q89 -49 139 -147t50 -239v-644h-223v612q0 274 -237 274q-73 0 -130 -31.5t-90 -95t-33 -154.5v-605h-223v1059h223v-151q52 82 133 126.5t185 44.5q117 0 206 -49zM311 1507l103 63l209 -253l208 253l103 -63l-222 -299h-181z" />
    <glyph glyph-name="Eng" unicode="&#x14a;" horiz-adv-x="1810" 
d="M1601 0h-2q-6 -150 -72 -262.5t-187 -174t-288 -61.5v193q158 0 241.5 86.5t83.5 236.5v11l-938 1140v-1169h-229v1536h198l963 -1166v1166h230v-1536z" />
    <glyph glyph-name="eng" unicode="&#x14b;" horiz-adv-x="1245" 
d="M905 1026.5q92 -52.5 145 -153.5t53 -241v-799q0 -100 -39 -174.5t-112 -115t-171 -40.5l-160 -1v166h115q65 0 104.5 44t39.5 120v768q0 146 -63.5 213t-173.5 67q-73 0 -130 -31.5t-90 -95t-33 -154.5v-599h-223v1059h223v-118q56 67 134.5 102.5t171.5 35.5
q117 0 209 -52.5z" />
    <glyph glyph-name="Omacron" unicode="&#x14c;" horiz-adv-x="1807" 
d="M499.5 84.5q-183.5 104.5 -289.5 285t-106 398.5t106 398.5t289.5 285t404.5 104.5t404 -104.5t289 -285t106 -398.5t-106 -398.5t-289 -285t-404 -104.5t-404.5 104.5zM1188 279.5q129 74.5 204 203.5t75 285t-75 285t-204 203.5t-284 74.5t-284.5 -74.5t-204.5 -204
t-75 -284.5t75 -284.5t204.5 -204t284.5 -74.5t284 74.5zM580 1856h647v-143h-647v143z" />
    <glyph glyph-name="omacron" unicode="&#x14d;" horiz-adv-x="1286" 
d="M356.5 52.5q-129.5 72.5 -204.5 198t-75 279.5q0 153 75 278.5t204.5 198t286.5 72.5t286.5 -72.5t204.5 -198t75 -278.5q0 -154 -75 -279.5t-204.5 -198t-286.5 -72.5t-286.5 72.5zM818 226q80 46 127 126.5t47 177.5t-47 177t-127 126t-176 46t-176 -46t-126.5 -126
t-46.5 -177q0 -98 46.5 -178t126.5 -126t176 -46t176 46zM319 1378h647v-143h-647v143z" />
    <glyph glyph-name="Ohungarumlaut" unicode="&#x150;" horiz-adv-x="1807" 
d="M499.5 84.5q-183.5 104.5 -289.5 285t-106 398.5t106 398.5t289.5 285t404.5 104.5t404 -104.5t289 -285t106 -398.5t-106 -398.5t-289 -285t-404 -104.5t-404.5 104.5zM1188 279.5q129 74.5 204 203.5t75 285t-75 285t-204 203.5t-284 74.5t-284.5 -74.5t-204.5 -204
t-75 -284.5t75 -284.5t204.5 -204t284.5 -74.5t284 74.5zM910 2028l122 -91l-230 -252h-157zM1270 2028l122 -91l-230 -252h-157z" />
    <glyph glyph-name="ohungarumlaut" unicode="&#x151;" horiz-adv-x="1286" 
d="M356.5 52.5q-129.5 72.5 -204.5 198t-75 279.5q0 153 75 278.5t204.5 198t286.5 72.5t286.5 -72.5t204.5 -198t75 -278.5q0 -154 -75 -279.5t-204.5 -198t-286.5 -72.5t-286.5 72.5zM818 226q80 46 127 126.5t47 177.5t-47 177t-127 126t-176 46t-176 -46t-126.5 -126
t-46.5 -177q0 -98 46.5 -178t126.5 -126t176 -46t176 46zM649 1550l122 -91l-230 -252h-157zM1009 1550l122 -91l-230 -252h-157z" />
    <glyph glyph-name="OE" unicode="&#x152;" horiz-adv-x="2149" 
d="M459 94.5q-174 94.5 -264.5 267.5t-90.5 406t90.5 406t264.5 267.5t419 94.5h1148v-214h-651v-448h565v-215h-565v-445h651v-214h-1148q-245 0 -419 94.5zM1139 214v1108h-253q-268 0 -404 -142.5t-136 -411.5t136 -411.5t404 -142.5h253z" />
    <glyph glyph-name="oe" unicode="&#x153;" horiz-adv-x="2167" 
d="M2099 498h-887q5 -96 52.5 -172t124.5 -118t169 -42q93 0 172 43t127 121l181 -77q-69 -128 -195 -200.5t-284 -72.5q-143 0 -262 59.5t-195 163.5q-78 -104 -198 -163.5t-261 -59.5q-157 0 -286.5 72.5t-204.5 198t-75 279.5q0 153 75 278.5t204.5 198t286.5 72.5
q141 0 261.5 -59.5t197.5 -163.5q77 104 194.5 164t257.5 60q150 0 274 -69t197 -192t76 -277zM1345 834q-89 -69 -120 -184h647q-16 76 -60.5 133.5t-111 88.5t-145.5 31q-121 0 -210 -69zM818 226q80 46 127 126.5t47 177.5t-47 177t-127 126t-176 46t-176 -46
t-126.5 -126t-46.5 -177q0 -98 46.5 -178t126.5 -126t176 -46t176 46z" />
    <glyph glyph-name="Racute" unicode="&#x154;" horiz-adv-x="1433" 
d="M749 665h-303v-665h-236v1536h588q135 0 239.5 -59t162 -160t57.5 -223q0 -95 -36 -176.5t-101 -140t-150 -87.5l406 -690h-256zM446 867h333q113 0 180 60t67 167q0 69 -31 122t-87 82.5t-129 29.5h-333v-461zM901 1685l264 343l123 -91l-230 -252h-157z" />
    <glyph glyph-name="racute" unicode="&#x155;" horiz-adv-x="782" 
d="M529 1010q95 55 222 59v-213q-173 0 -267 -73t-94 -240v-543h-223v1059h217v-188q50 84 145 139zM560 1208l264 343l123 -91l-230 -252h-157z" />
    <glyph glyph-name="Rcommaaccent" unicode="&#x156;" horiz-adv-x="1433" 
d="M749 665h-303v-665h-236v1536h588q135 0 239.5 -59t162 -160t57.5 -223q0 -95 -36 -176.5t-101 -140t-150 -87.5l406 -690h-256zM446 867h333q113 0 180 60t67 167q0 69 -31 122t-87 82.5t-129 29.5h-333v-461zM454 -532l166 380h212l-261 -430z" />
    <glyph glyph-name="rcommaaccent" unicode="&#x157;" horiz-adv-x="782" 
d="M529 1010q95 55 222 59v-213q-173 0 -267 -73t-94 -240v-543h-223v1059h217v-188q50 84 145 139zM12 -532l166 380h212l-261 -430z" />
    <glyph glyph-name="Rcaron" unicode="&#x158;" horiz-adv-x="1433" 
d="M749 665h-303v-665h-236v1536h588q135 0 239.5 -59t162 -160t57.5 -223q0 -95 -36 -176.5t-101 -140t-150 -87.5l406 -690h-256zM446 867h333q113 0 180 60t67 167q0 69 -31 122t-87 82.5t-129 29.5h-333v-461zM414 1984l103 63l209 -253l208 253l103 -63l-222 -299h-181
z" />
    <glyph glyph-name="rcaron" unicode="&#x159;" horiz-adv-x="782" 
d="M529 1010q95 55 222 59v-213q-173 0 -267 -73t-94 -240v-543h-223v1059h217v-188q50 84 145 139zM73 1507l103 63l209 -253l208 253l103 -63l-222 -299h-181z" />
    <glyph glyph-name="Sacute" unicode="&#x15a;" horiz-adv-x="1208" 
d="M320.5 46.5q-146.5 66.5 -244.5 176.5l149 170q75 -96 178.5 -152t215.5 -56q75 0 134 26.5t92.5 75.5t33.5 115q0 73 -41.5 124t-103.5 84t-178 83q-134 57 -217 107t-139 133.5t-56 207.5q0 126 59.5 220t162 144.5t228.5 50.5q140 0 260 -54.5t215 -150.5l-132 -162
q-84 85 -169.5 123.5t-175.5 38.5q-61 0 -110.5 -22t-79 -64.5t-29.5 -102.5q0 -68 39 -115t98 -78.5t168 -77.5l21 -9q127 -54 212 -106.5t142.5 -141.5t57.5 -220q0 -138 -65 -236t-176 -148t-245 -50q-158 0 -304.5 66.5zM773 1685l264 343l123 -91l-230 -252h-157z" />
    <glyph glyph-name="sacute" unicode="&#x15b;" horiz-adv-x="961" 
d="M253 18.5q-109 38.5 -192 99.5l107 170q62 -53 148.5 -88.5t168.5 -35.5q81 0 129 34.5t48 97.5q0 45 -29 73.5t-71.5 45.5t-125.5 42q-103 32 -167.5 62.5t-110.5 90t-46 156.5q0 101 52.5 171.5t140 106t193.5 35.5q95 0 187 -28t169 -80l-110 -157q-59 43 -127.5 65.5
t-129.5 22.5q-73 0 -117.5 -30.5t-44.5 -84.5q0 -38 27.5 -64t69 -42.5t115.5 -38.5l36 -11q93 -28 157 -61.5t107.5 -96t43.5 -160.5q0 -106 -50.5 -181t-140 -113.5t-206.5 -38.5q-122 0 -231 38.5zM660 1208l264 343l123 -91l-230 -252h-157z" />
    <glyph glyph-name="Scedilla" unicode="&#x15e;" horiz-adv-x="1208" 
d="M1048.5 182q-62.5 -97 -169.5 -148t-238 -54l-55 -109q27 5 48 5q56 0 101 -24t70.5 -67.5t25.5 -99.5q0 -60 -29 -110t-78.5 -79t-109.5 -29q-77 0 -144.5 41t-94.5 103l112 40q17 -29 53 -48t72 -19q41 0 71 29t30 72q0 46 -29 71.5t-75 25.5q-41 0 -80 -24l-93 57
l89 172q-132 19 -250 81.5t-199 154.5l149 170q75 -96 178.5 -152t215.5 -56q75 0 134 26.5t92.5 75.5t33.5 115q0 73 -41.5 124t-103.5 84t-178 83q-134 57 -217 107t-139 133.5t-56 207.5q0 126 59.5 220t162 144.5t228.5 50.5q140 0 260 -54.5t215 -150.5l-132 -162
q-84 85 -169.5 123.5t-175.5 38.5q-61 0 -110.5 -22t-79 -64.5t-29.5 -102.5q0 -68 39 -115t98 -78.5t168 -77.5l21 -9q127 -54 212 -106.5t142.5 -141.5t57.5 -220q0 -135 -62.5 -232z" />
    <glyph glyph-name="scedilla" unicode="&#x15f;" horiz-adv-x="961" 
d="M790 83.5q-91 -85.5 -245 -100.5l-56 -111q27 5 48 5q56 0 101 -24t70.5 -67.5t25.5 -99.5q0 -60 -29 -110t-78.5 -79t-109.5 -29q-77 0 -144.5 41t-94.5 103l112 40q17 -29 53 -48t72 -19q41 0 71 29t30 72q0 46 -29 71.5t-75 25.5q-41 0 -80 -24l-93 57l86 166
q-105 9 -198 46t-166 90l107 170q62 -53 148.5 -88.5t168.5 -35.5q81 0 129 34.5t48 97.5q0 45 -29 73.5t-71.5 45.5t-125.5 42q-103 32 -167.5 62.5t-110.5 90t-46 156.5q0 101 52.5 171.5t140 106t193.5 35.5q95 0 187 -28t169 -80l-110 -157q-59 43 -127.5 65.5
t-129.5 22.5q-73 0 -117.5 -30.5t-44.5 -84.5q0 -38 27.5 -64t69 -42.5t115.5 -38.5l36 -11q93 -28 157 -61.5t107.5 -96t43.5 -160.5q0 -144 -91 -229.5z" />
    <glyph glyph-name="Scaron" unicode="&#x160;" horiz-adv-x="1208" 
d="M320.5 46.5q-146.5 66.5 -244.5 176.5l149 170q75 -96 178.5 -152t215.5 -56q75 0 134 26.5t92.5 75.5t33.5 115q0 73 -41.5 124t-103.5 84t-178 83q-134 57 -217 107t-139 133.5t-56 207.5q0 126 59.5 220t162 144.5t228.5 50.5q140 0 260 -54.5t215 -150.5l-132 -162
q-84 85 -169.5 123.5t-175.5 38.5q-61 0 -110.5 -22t-79 -64.5t-29.5 -102.5q0 -68 39 -115t98 -78.5t168 -77.5l21 -9q127 -54 212 -106.5t142.5 -141.5t57.5 -220q0 -138 -65 -236t-176 -148t-245 -50q-158 0 -304.5 66.5zM286 1984l103 63l209 -253l208 253l103 -63
l-222 -299h-181z" />
    <glyph glyph-name="scaron" unicode="&#x161;" horiz-adv-x="961" 
d="M253 18.5q-109 38.5 -192 99.5l107 170q62 -53 148.5 -88.5t168.5 -35.5q81 0 129 34.5t48 97.5q0 45 -29 73.5t-71.5 45.5t-125.5 42q-103 32 -167.5 62.5t-110.5 90t-46 156.5q0 101 52.5 171.5t140 106t193.5 35.5q95 0 187 -28t169 -80l-110 -157q-59 43 -127.5 65.5
t-129.5 22.5q-73 0 -117.5 -30.5t-44.5 -84.5q0 -38 27.5 -64t69 -42.5t115.5 -38.5l36 -11q93 -28 157 -61.5t107.5 -96t43.5 -160.5q0 -106 -50.5 -181t-140 -113.5t-206.5 -38.5q-122 0 -231 38.5zM173 1507l103 63l209 -253l208 253l103 -63l-222 -299h-181z" />
    <glyph glyph-name="uni0162" unicode="&#x162;" horiz-adv-x="1174" 
d="M645 0l-65 -128q27 5 48 5q56 0 101 -24t70.5 -67.5t25.5 -99.5q0 -60 -29 -110t-78.5 -79t-109.5 -29q-77 0 -144.5 41t-94.5 103l112 40q17 -29 53 -48t72 -19q41 0 71 29t30 72q0 46 -29 71.5t-75 25.5q-41 0 -80 -24l-93 57l95 184h-56v1322h-409v214h1053v-214h-408
v-1322h-60z" />
    <glyph glyph-name="uni0163" unicode="&#x163;" horiz-adv-x="768" 
d="M638 -147q45 -24 70.5 -67.5t25.5 -99.5q0 -60 -29 -110t-78.5 -79t-109.5 -29q-77 0 -144.5 41t-94.5 103l112 40q17 -29 53 -48t72 -19q41 0 71 29t30 72q0 46 -29 71.5t-75 25.5q-41 0 -80 -24l-93 57l97 188h31q-122 16 -191 95t-69 211v578h-173v171h173v293h223
v-293h261v-171h-261v-552q0 -75 39 -116t105 -41h115v-179h-135l-65 -128q27 5 48 5q56 0 101 -24z" />
    <glyph glyph-name="Tcaron" unicode="&#x164;" horiz-adv-x="1174" 
d="M1113 1322h-408v-1322h-236v1322h-409v214h1053v-214zM274 1984l103 63l209 -253l208 253l103 -63l-222 -299h-181z" />
    <glyph glyph-name="tcaron" unicode="&#x165;" horiz-adv-x="769" 
d="M932 1851l-190 -641h-164l108 641h246zM430 1059h261v-171h-261v-552q0 -75 39 -116t105 -41h115v-179h-160q-98 0 -170.5 36t-112 105.5t-39.5 168.5v578h-173v171h173v293h223v-293z" />
    <glyph glyph-name="Tbar" unicode="&#x166;" horiz-adv-x="1174" 
d="M705 1322v-480h203v-148h-203v-694h-236v694h-206v148h206v480h-409v214h1053v-214h-408z" />
    <glyph glyph-name="tbar" unicode="&#x167;" horiz-adv-x="861" 
d="M478 888v-283h249v-149h-249v-120q0 -75 39 -116t105 -41h115v-179h-160q-98 0 -170.5 36t-112 105.5t-39.5 168.5v146h-173v149h173v283h-173v171h173v293h223v-293h261v-171h-261z" />
    <glyph glyph-name="Utilde" unicode="&#x168;" horiz-adv-x="1564" 
d="M471.5 45q-136.5 65 -214.5 187t-78 286v1018h236v-975q0 -188 99 -277.5t267 -89.5q169 0 268.5 89.5t99.5 277.5v975h236v-1018q0 -164 -78 -286t-215 -187t-311 -65q-173 0 -309.5 65zM729 1847q-19 30 -39.5 43t-46.5 13q-47 0 -73 -43.5t-26 -112.5h-120
q0 79 26 141t75 97t114 35q115 0 189 -112q17 -27 38.5 -41.5t51.5 -14.5q47 0 72 41t25 114h119q0 -78 -25 -140t-73.5 -97.5t-116.5 -35.5q-117 0 -190 113z" />
    <glyph glyph-name="utilde" unicode="&#x169;" horiz-adv-x="1191" 
d="M353.5 27q-102.5 47 -158 136.5t-55.5 212.5v683h220v-672q0 -103 64.5 -155.5t170.5 -52.5t170.5 52.5t64.5 155.5v672h220v-683q0 -123 -55.5 -212.5t-158 -136.5t-241.5 -47t-241.5 47zM543 1370q-19 30 -39.5 43t-46.5 13q-47 0 -73 -43.5t-26 -112.5h-120
q0 79 26 141t75 97t114 35q115 0 189 -112q17 -27 38.5 -41.5t51.5 -14.5q47 0 72 41t25 114h119q0 -78 -25 -140t-73.5 -97.5t-116.5 -35.5q-117 0 -190 113z" />
    <glyph glyph-name="Umacron" unicode="&#x16a;" horiz-adv-x="1564" 
d="M471.5 45q-136.5 65 -214.5 187t-78 286v1018h236v-975q0 -188 99 -277.5t267 -89.5q169 0 268.5 89.5t99.5 277.5v975h236v-1018q0 -164 -78 -286t-215 -187t-311 -65q-173 0 -309.5 65zM457 1856h647v-143h-647v143z" />
    <glyph glyph-name="umacron" unicode="&#x16b;" horiz-adv-x="1191" 
d="M353.5 27q-102.5 47 -158 136.5t-55.5 212.5v683h220v-672q0 -103 64.5 -155.5t170.5 -52.5t170.5 52.5t64.5 155.5v672h220v-683q0 -123 -55.5 -212.5t-158 -136.5t-241.5 -47t-241.5 47zM271 1379h647v-143h-647v143z" />
    <glyph glyph-name="Uring" unicode="&#x16e;" horiz-adv-x="1564" 
d="M471.5 45q-136.5 65 -214.5 187t-78 286v1018h236v-975q0 -188 99 -277.5t267 -89.5q169 0 268.5 89.5t99.5 277.5v975h236v-1018q0 -164 -78 -286t-215 -187t-311 -65q-173 0 -309.5 65zM666 1693q-53 31 -84 83t-31 114q0 61 31 113.5t84 83t115 30.5q61 0 112.5 -30.5
t82 -83t30.5 -113.5q0 -62 -30.5 -114t-82 -83t-112.5 -31q-62 0 -115 31zM865.5 1802.5q34.5 34.5 34.5 87.5q0 32 -16 60.5t-43.5 45.5t-59.5 17q-33 0 -60.5 -17t-43.5 -45.5t-16 -60.5q0 -53 34.5 -87.5t85.5 -34.5q50 0 84.5 34.5z" />
    <glyph glyph-name="uring" unicode="&#x16f;" horiz-adv-x="1191" 
d="M353.5 27q-102.5 47 -158 136.5t-55.5 212.5v683h220v-672q0 -103 64.5 -155.5t170.5 -52.5t170.5 52.5t64.5 155.5v672h220v-683q0 -123 -55.5 -212.5t-158 -136.5t-241.5 -47t-241.5 47zM480 1216q-53 31 -84 83t-31 114q0 61 31 113.5t84 83t115 30.5
q61 0 112.5 -30.5t82 -83t30.5 -113.5q0 -62 -30.5 -114t-82 -83t-112.5 -31q-62 0 -115 31zM679.5 1325.5q34.5 34.5 34.5 87.5q0 32 -16 60.5t-43.5 45.5t-59.5 17q-33 0 -60.5 -17t-43.5 -45.5t-16 -60.5q0 -53 34.5 -87.5t85.5 -34.5q50 0 84.5 34.5z" />
    <glyph glyph-name="Uhungarumlaut" unicode="&#x170;" horiz-adv-x="1564" 
d="M471.5 45q-136.5 65 -214.5 187t-78 286v1018h236v-975q0 -188 99 -277.5t267 -89.5q169 0 268.5 89.5t99.5 277.5v975h236v-1018q0 -164 -78 -286t-215 -187t-311 -65q-173 0 -309.5 65zM787 2028l122 -91l-230 -252h-157zM1147 2028l122 -91l-230 -252h-157z" />
    <glyph glyph-name="uhungarumlaut" unicode="&#x171;" horiz-adv-x="1191" 
d="M353.5 27q-102.5 47 -158 136.5t-55.5 212.5v683h220v-672q0 -103 64.5 -155.5t170.5 -52.5t170.5 52.5t64.5 155.5v672h220v-683q0 -123 -55.5 -212.5t-158 -136.5t-241.5 -47t-241.5 47zM601 1551l122 -91l-230 -252h-157zM961 1551l122 -91l-230 -252h-157z" />
    <glyph glyph-name="Uogonek" unicode="&#x172;" horiz-adv-x="1564" 
d="M1385 1536v-1018q0 -134 -52.5 -240t-147 -176.5t-220.5 -100.5q-82 -49 -131.5 -112t-49.5 -127q0 -50 30.5 -75.5t78.5 -25.5q33 0 68.5 12t65.5 35v-179q-62 -26 -137 -26q-120 0 -189.5 58t-69.5 157q0 74 39.5 141.5t114.5 120.5h-4q-173 0 -309.5 65t-214.5 187
t-78 286v1018h236v-975q0 -188 99 -277.5t267 -89.5q169 0 268.5 89.5t99.5 277.5v975h236z" />
    <glyph glyph-name="uogonek" unicode="&#x173;" horiz-adv-x="1191" 
d="M1050 1059v-683q0 -160 -93 -261.5t-257 -126.5q-96 -49 -156.5 -118t-60.5 -141q0 -50 30.5 -75.5t78.5 -25.5q33 0 68.5 12t65.5 35v-179q-62 -26 -137 -26q-120 0 -189.5 58t-69.5 157q0 87 54.5 164t154.5 133q-123 9 -213 59t-138 135t-48 200v683h220v-672
q0 -103 64.5 -155.5t170.5 -52.5t170.5 52.5t64.5 155.5v672h220z" />
    <glyph glyph-name="Wcircumflex" unicode="&#x174;" horiz-adv-x="2232" 
d="M2170 1536l-450 -1536h-241l-363 1184l-363 -1184h-241l-450 1536h245l338 -1208l363 1208h216l363 -1208l339 1208h244zM768 1709l220 298h181l222 -298l-103 -64l-208 253l-210 -253z" />
    <glyph glyph-name="wcircumflex" unicode="&#x175;" horiz-adv-x="1767" 
d="M1740 1059l-389 -1060h-173l-294 753l-296 -753h-174l-386 1060h237l253 -751l295 751h141l295 -751l253 751h238zM576 1232l220 298h181l222 -298l-103 -64l-208 253l-210 -253z" />
    <glyph glyph-name="Ycircumflex" unicode="&#x176;" horiz-adv-x="1389" 
d="M814 727v-727h-236v722l-538 814h279l377 -601l378 601h275zM385 1709l220 298h181l222 -298l-103 -64l-208 253l-210 -253z" />
    <glyph glyph-name="ycircumflex" unicode="&#x177;" horiz-adv-x="1100" 
d="M1077 1059l-624 -1557h-232l216 544l-414 1013h246l287 -790l281 790h240zM239 1232l220 298h181l222 -298l-103 -64l-208 253l-210 -253z" />
    <glyph glyph-name="Ydieresis" unicode="&#x178;" horiz-adv-x="1389" 
d="M814 727v-727h-236v722l-538 814h279l377 -601l378 601h275zM434 1792.5q-30 17.5 -48 47t-18 64.5q0 36 18 65.5t47.5 46.5t64.5 17t65 -17t48 -46.5t18 -65.5q0 -35 -18 -64.5t-48 -47t-65 -17.5q-34 0 -64 17.5zM832 1792.5q-30 17.5 -47.5 47t-17.5 64.5
q0 36 17.5 65.5t47.5 46.5t65 17q54 0 91.5 -37.5t37.5 -91.5q0 -35 -17.5 -64.5t-47 -47t-64.5 -17.5t-65 17.5z" />
    <glyph glyph-name="Zacute" unicode="&#x179;" horiz-adv-x="1265" 
d="M1162 1341l-769 -1127h769v-214h-1059v192l772 1130h-772v214h1059v-195zM835 1685l264 343l123 -91l-230 -252h-157z" />
    <glyph glyph-name="zacute" unicode="&#x17a;" horiz-adv-x="1042" 
d="M410 186h568v-186h-932l573 873h-533v186h898zM714 1208l264 343l123 -91l-230 -252h-157z" />
    <glyph glyph-name="Zdotaccent" unicode="&#x17b;" horiz-adv-x="1265" 
d="M1162 1341l-769 -1127h769v-214h-1059v192l772 1130h-772v214h1059v-195zM591.5 1774.5q-32.5 18.5 -51.5 50.5t-19 69q0 39 19 70.5t51 50t70 18.5q37 0 69 -18.5t51 -50t19 -70.5q0 -37 -19 -69t-51 -50.5t-69 -18.5t-69.5 18.5z" />
    <glyph glyph-name="zdotaccent" unicode="&#x17c;" horiz-adv-x="1042" 
d="M410 186h568v-186h-932l573 873h-533v186h898zM470.5 1297.5q-32.5 18.5 -51.5 50.5t-19 69q0 39 19 70.5t51 50t70 18.5q37 0 69 -18.5t51 -50t19 -70.5q0 -37 -19 -69t-51 -50.5t-69 -18.5t-69.5 18.5z" />
    <glyph glyph-name="Zcaron" unicode="&#x17d;" horiz-adv-x="1265" 
d="M1162 1341l-769 -1127h769v-214h-1059v192l772 1130h-772v214h1059v-195zM348 1984l103 63l209 -253l208 253l103 -63l-222 -299h-181z" />
    <glyph glyph-name="zcaron" unicode="&#x17e;" horiz-adv-x="1042" 
d="M410 186h568v-186h-932l573 873h-533v186h898zM227 1507l103 63l209 -253l208 253l103 -63l-222 -299h-181z" />
    <glyph glyph-name="florin" unicode="&#x192;" horiz-adv-x="1097" 
d="M722.5 1321q-53.5 -51 -67.5 -136l-26 -161h279l-29 -194h-281l-214 -1342h-229l212 1342h-172l30 194h172l31 194q15 94 74 171.5t145.5 122t180.5 44.5q48 0 89.5 -10.5t60.5 -25.5l-22 -181q-19 16 -46.5 24.5t-55.5 8.5q-78 0 -131.5 -51z" />
    <glyph glyph-name="Ohorn" unicode="&#x1a0;" horiz-adv-x="1807" 
d="M1786 1532v-148q0 -120 -49 -178t-126 -65q92 -172 92 -373q0 -218 -106 -398.5t-289 -285t-404 -104.5t-404.5 104.5t-289.5 285t-106 398.5t106 398.5t289.5 285t404.5 104.5q196 0 364 -83.5t278 -230.5q49 2 71 39t22 94v157h147zM1188 279.5q129 74.5 204 203.5
t75 285t-75 285t-204 203.5t-284 74.5t-284.5 -74.5t-204.5 -204t-75 -284.5t75 -284.5t204.5 -204t284.5 -74.5t284 74.5z" />
    <glyph glyph-name="ohorn" unicode="&#x1a1;" horiz-adv-x="1286" 
d="M1298 1246v-148q0 -127 -55.5 -185t-138.5 -59q51 -69 78 -151t27 -173q0 -154 -75 -279.5t-204.5 -198t-286.5 -72.5t-286.5 72.5t-204.5 198t-75 279.5q0 153 75 278.5t204.5 198t286.5 72.5q97 0 185 -28.5t160 -81.5q34 -13 65 -13q52 0 75 37.5t23 95.5v157h147z
M818 226q80 46 127 126.5t47 177.5t-47 177t-127 126t-176 46t-176 -46t-126.5 -126t-46.5 -177q0 -98 46.5 -178t126.5 -126t176 -46t176 46z" />
    <glyph glyph-name="Uhorn" unicode="&#x1af;" horiz-adv-x="1564" 
d="M1699 1672v-148q0 -128 -56 -186t-140 -58q-56 0 -118 22v-784q0 -164 -78 -286t-215 -187t-311 -65q-173 0 -309.5 65t-214.5 187t-78 286v1018h236v-975q0 -188 99 -277.5t267 -89.5q169 0 268.5 89.5t99.5 277.5v975h236v-139q35 -15 69 -15q52 0 75 37.5t23 95.5v157
h147z" />
    <glyph glyph-name="uhorn" unicode="&#x1b0;" horiz-adv-x="1191" 
d="M1341 1195v-148q0 -128 -56 -186t-140 -58q-42 0 -95 14v-441q0 -123 -55.5 -212.5t-158 -136.5t-241.5 -47t-241.5 47t-158 136.5t-55.5 212.5v683h220v-672q0 -103 64.5 -155.5t170.5 -52.5t170.5 52.5t64.5 155.5v672h220v-147q25 -7 46 -7q52 0 75 37.5t23 95.5v157
h147z" />
    <glyph glyph-name="uni01CD" unicode="&#x1cd;" horiz-adv-x="1574" 
d="M1151 332h-728l-127 -332h-245l609 1536h253l609 -1536h-244zM1072 540l-285 744l-284 -744h569zM475 1984l103 63l209 -253l208 253l103 -63l-222 -299h-181z" />
    <glyph glyph-name="uni01CE" unicode="&#x1ce;" horiz-adv-x="1374" 
d="M342 53q-120 73 -191.5 199t-71.5 279q0 152 71.5 277.5t191.5 198t260 72.5q123 0 220 -45.5t163 -128.5v154h222v-1059h-223v154q-65 -82 -162 -128t-220 -46q-140 0 -260 73zM827 224q80 46 126 127t46 180t-46 179t-126 126t-176 46t-176 -46t-127 -126t-47 -179
t47 -180t127 -127t176 -46t176 46zM376 1507l103 63l209 -253l208 253l103 -63l-222 -299h-181z" />
    <glyph glyph-name="uni01CF" unicode="&#x1cf;" horiz-adv-x="656" 
d="M210 1536h236v-1536h-236v1536zM15 1984l103 63l209 -253l208 253l103 -63l-222 -299h-181z" />
    <glyph glyph-name="uni01D0" unicode="&#x1d0;" horiz-adv-x="556" 
d="M167 1059h222v-1059h-222v1059zM-33 1507l103 63l209 -253l208 253l103 -63l-222 -299h-181z" />
    <glyph glyph-name="uni01D1" unicode="&#x1d1;" horiz-adv-x="1807" 
d="M499.5 84.5q-183.5 104.5 -289.5 285t-106 398.5t106 398.5t289.5 285t404.5 104.5t404 -104.5t289 -285t106 -398.5t-106 -398.5t-289 -285t-404 -104.5t-404.5 104.5zM1188 279.5q129 74.5 204 203.5t75 285t-75 285t-204 203.5t-284 74.5t-284.5 -74.5t-204.5 -204
t-75 -284.5t75 -284.5t204.5 -204t284.5 -74.5t284 74.5zM592 1984l103 63l209 -253l208 253l103 -63l-222 -299h-181z" />
    <glyph glyph-name="uni01D2" unicode="&#x1d2;" horiz-adv-x="1286" 
d="M356.5 52.5q-129.5 72.5 -204.5 198t-75 279.5q0 153 75 278.5t204.5 198t286.5 72.5t286.5 -72.5t204.5 -198t75 -278.5q0 -154 -75 -279.5t-204.5 -198t-286.5 -72.5t-286.5 72.5zM818 226q80 46 127 126.5t47 177.5t-47 177t-127 126t-176 46t-176 -46t-126.5 -126
t-46.5 -177q0 -98 46.5 -178t126.5 -126t176 -46t176 46zM331 1506l103 63l209 -253l208 253l103 -63l-222 -299h-181z" />
    <glyph glyph-name="uni01D3" unicode="&#x1d3;" horiz-adv-x="1564" 
d="M471.5 45q-136.5 65 -214.5 187t-78 286v1018h236v-975q0 -188 99 -277.5t267 -89.5q169 0 268.5 89.5t99.5 277.5v975h236v-1018q0 -164 -78 -286t-215 -187t-311 -65q-173 0 -309.5 65zM469 1984l103 63l209 -253l208 253l103 -63l-222 -299h-181z" />
    <glyph glyph-name="uni01D4" unicode="&#x1d4;" horiz-adv-x="1191" 
d="M353.5 27q-102.5 47 -158 136.5t-55.5 212.5v683h220v-672q0 -103 64.5 -155.5t170.5 -52.5t170.5 52.5t64.5 155.5v672h220v-683q0 -123 -55.5 -212.5t-158 -136.5t-241.5 -47t-241.5 47zM283 1507l103 63l209 -253l208 253l103 -63l-222 -299h-181z" />
    <glyph glyph-name="uni01D5" unicode="&#x1d5;" horiz-adv-x="1564" 
d="M471.5 45q-136.5 65 -214.5 187t-78 286v1018h236v-975q0 -188 99 -277.5t267 -89.5q169 0 268.5 89.5t99.5 277.5v975h236v-1018q0 -164 -78 -286t-215 -187t-311 -65q-173 0 -309.5 65zM518 1792.5q-30 17.5 -48 47t-18 64.5q0 36 18 65.5t47.5 46.5t64.5 17t65 -17
t48 -46.5t18 -65.5q0 -35 -18 -64.5t-48 -47t-65 -17.5q-34 0 -64 17.5zM916 1792.5q-30 17.5 -47.5 47t-17.5 64.5q0 36 17.5 65.5t47.5 46.5t65 17q54 0 91.5 -37.5t37.5 -91.5q0 -35 -17.5 -64.5t-47 -47t-64.5 -17.5t-65 17.5zM457 2347h647v-143h-647v143z" />
    <glyph glyph-name="uni01D6" unicode="&#x1d6;" horiz-adv-x="1191" 
d="M353.5 27q-102.5 47 -158 136.5t-55.5 212.5v683h220v-672q0 -103 64.5 -155.5t170.5 -52.5t170.5 52.5t64.5 155.5v672h220v-683q0 -123 -55.5 -212.5t-158 -136.5t-241.5 -47t-241.5 47zM332 1315.5q-30 17.5 -48 47t-18 64.5q0 36 18 65.5t47.5 46.5t64.5 17t65 -17
t48 -46.5t18 -65.5q0 -35 -18 -64.5t-48 -47t-65 -17.5q-34 0 -64 17.5zM730 1315.5q-30 17.5 -47.5 47t-17.5 64.5q0 36 17.5 65.5t47.5 46.5t65 17q54 0 91.5 -37.5t37.5 -91.5q0 -35 -17.5 -64.5t-47 -47t-64.5 -17.5t-65 17.5zM271 1870h647v-143h-647v143z" />
    <glyph glyph-name="uni01D7" unicode="&#x1d7;" horiz-adv-x="1564" 
d="M471.5 45q-136.5 65 -214.5 187t-78 286v1018h236v-975q0 -188 99 -277.5t267 -89.5q169 0 268.5 89.5t99.5 277.5v975h236v-1018q0 -164 -78 -286t-215 -187t-311 -65q-173 0 -309.5 65zM518 1792.5q-30 17.5 -48 47t-18 64.5q0 36 18 65.5t47.5 46.5t64.5 17t65 -17
t48 -46.5t18 -65.5q0 -35 -18 -64.5t-48 -47t-65 -17.5q-34 0 -64 17.5zM916 1792.5q-30 17.5 -47.5 47t-17.5 64.5q0 36 17.5 65.5t47.5 46.5t65 17q54 0 91.5 -37.5t37.5 -91.5q0 -35 -17.5 -64.5t-47 -47t-64.5 -17.5t-65 17.5zM956 2176l264 343l123 -91l-230 -252h-157
z" />
    <glyph glyph-name="uni01D8" unicode="&#x1d8;" horiz-adv-x="1191" 
d="M353.5 27q-102.5 47 -158 136.5t-55.5 212.5v683h220v-672q0 -103 64.5 -155.5t170.5 -52.5t170.5 52.5t64.5 155.5v672h220v-683q0 -123 -55.5 -212.5t-158 -136.5t-241.5 -47t-241.5 47zM332 1315.5q-30 17.5 -48 47t-18 64.5q0 36 18 65.5t47.5 46.5t64.5 17t65 -17
t48 -46.5t18 -65.5q0 -35 -18 -64.5t-48 -47t-65 -17.5q-34 0 -64 17.5zM730 1315.5q-30 17.5 -47.5 47t-17.5 64.5q0 36 17.5 65.5t47.5 46.5t65 17q54 0 91.5 -37.5t37.5 -91.5q0 -35 -17.5 -64.5t-47 -47t-64.5 -17.5t-65 17.5zM770 1699l264 343l123 -91l-230 -252h-157
z" />
    <glyph glyph-name="uni01D9" unicode="&#x1d9;" horiz-adv-x="1564" 
d="M471.5 45q-136.5 65 -214.5 187t-78 286v1018h236v-975q0 -188 99 -277.5t267 -89.5q169 0 268.5 89.5t99.5 277.5v975h236v-1018q0 -164 -78 -286t-215 -187t-311 -65q-173 0 -309.5 65zM518 1792.5q-30 17.5 -48 47t-18 64.5q0 36 18 65.5t47.5 46.5t64.5 17t65 -17
t48 -46.5t18 -65.5q0 -35 -18 -64.5t-48 -47t-65 -17.5q-34 0 -64 17.5zM916 1792.5q-30 17.5 -47.5 47t-17.5 64.5q0 36 17.5 65.5t47.5 46.5t65 17q54 0 91.5 -37.5t37.5 -91.5q0 -35 -17.5 -64.5t-47 -47t-64.5 -17.5t-65 17.5zM469 2475l103 63l209 -253l208 253
l103 -63l-222 -299h-181z" />
    <glyph glyph-name="uni01DA" unicode="&#x1da;" horiz-adv-x="1191" 
d="M353.5 27q-102.5 47 -158 136.5t-55.5 212.5v683h220v-672q0 -103 64.5 -155.5t170.5 -52.5t170.5 52.5t64.5 155.5v672h220v-683q0 -123 -55.5 -212.5t-158 -136.5t-241.5 -47t-241.5 47zM332 1315.5q-30 17.5 -48 47t-18 64.5q0 36 18 65.5t47.5 46.5t64.5 17t65 -17
t48 -46.5t18 -65.5q0 -35 -18 -64.5t-48 -47t-65 -17.5q-34 0 -64 17.5zM730 1315.5q-30 17.5 -47.5 47t-17.5 64.5q0 36 17.5 65.5t47.5 46.5t65 17q54 0 91.5 -37.5t37.5 -91.5q0 -35 -17.5 -64.5t-47 -47t-64.5 -17.5t-65 17.5zM283 1998l103 63l209 -253l208 253
l103 -63l-222 -299h-181z" />
    <glyph glyph-name="uni01DB" unicode="&#x1db;" horiz-adv-x="1564" 
d="M471.5 45q-136.5 65 -214.5 187t-78 286v1018h236v-975q0 -188 99 -277.5t267 -89.5q169 0 268.5 89.5t99.5 277.5v975h236v-1018q0 -164 -78 -286t-215 -187t-311 -65q-173 0 -309.5 65zM518 1792.5q-30 17.5 -48 47t-18 64.5q0 36 18 65.5t47.5 46.5t64.5 17t65 -17
t48 -46.5t18 -65.5q0 -35 -18 -64.5t-48 -47t-65 -17.5q-34 0 -64 17.5zM916 1792.5q-30 17.5 -47.5 47t-17.5 64.5q0 36 17.5 65.5t47.5 46.5t65 17q54 0 91.5 -37.5t37.5 -91.5q0 -35 -17.5 -64.5t-47 -47t-64.5 -17.5t-65 17.5zM472 2428l123 91l264 -343h-157z" />
    <glyph glyph-name="uni01DC" unicode="&#x1dc;" horiz-adv-x="1191" 
d="M353.5 27q-102.5 47 -158 136.5t-55.5 212.5v683h220v-672q0 -103 64.5 -155.5t170.5 -52.5t170.5 52.5t64.5 155.5v672h220v-683q0 -123 -55.5 -212.5t-158 -136.5t-241.5 -47t-241.5 47zM332 1315.5q-30 17.5 -48 47t-18 64.5q0 36 18 65.5t47.5 46.5t64.5 17t65 -17
t48 -46.5t18 -65.5q0 -35 -18 -64.5t-48 -47t-65 -17.5q-34 0 -64 17.5zM730 1315.5q-30 17.5 -47.5 47t-17.5 64.5q0 36 17.5 65.5t47.5 46.5t65 17q54 0 91.5 -37.5t37.5 -91.5q0 -35 -17.5 -64.5t-47 -47t-64.5 -17.5t-65 17.5zM286 1951l123 91l264 -343h-157z" />
    <glyph glyph-name="Scommaaccent" unicode="&#x218;" horiz-adv-x="1208" 
d="M320.5 46.5q-146.5 66.5 -244.5 176.5l149 170q75 -96 178.5 -152t215.5 -56q75 0 134 26.5t92.5 75.5t33.5 115q0 73 -41.5 124t-103.5 84t-178 83q-134 57 -217 107t-139 133.5t-56 207.5q0 126 59.5 220t162 144.5t228.5 50.5q140 0 260 -54.5t215 -150.5l-132 -162
q-84 85 -169.5 123.5t-175.5 38.5q-61 0 -110.5 -22t-79 -64.5t-29.5 -102.5q0 -68 39 -115t98 -78.5t168 -77.5l21 -9q127 -54 212 -106.5t142.5 -141.5t57.5 -220q0 -138 -65 -236t-176 -148t-245 -50q-158 0 -304.5 66.5zM320 -533l166 380h212l-261 -430z" />
    <glyph glyph-name="scommaaccent" unicode="&#x219;" horiz-adv-x="961" 
d="M253 18.5q-109 38.5 -192 99.5l107 170q62 -53 148.5 -88.5t168.5 -35.5q81 0 129 34.5t48 97.5q0 45 -29 73.5t-71.5 45.5t-125.5 42q-103 32 -167.5 62.5t-110.5 90t-46 156.5q0 101 52.5 171.5t140 106t193.5 35.5q95 0 187 -28t169 -80l-110 -157q-59 43 -127.5 65.5
t-129.5 22.5q-73 0 -117.5 -30.5t-44.5 -84.5q0 -38 27.5 -64t69 -42.5t115.5 -38.5l36 -11q93 -28 157 -61.5t107.5 -96t43.5 -160.5q0 -106 -50.5 -181t-140 -113.5t-206.5 -38.5q-122 0 -231 38.5zM223 -532l166 380h212l-261 -430z" />
    <glyph glyph-name="uni021A" unicode="&#x21a;" horiz-adv-x="1174" 
d="M1113 1322h-408v-1322h-236v1322h-409v214h1053v-214zM314 -532l166 380h212l-261 -430z" />
    <glyph glyph-name="uni021B" unicode="&#x21b;" horiz-adv-x="768" 
d="M430 888v-552q0 -75 39 -116t105 -41h115v-179h-160q-98 0 -170.5 36t-112 105.5t-39.5 168.5v578h-173v171h173v293h223v-293h261v-171h-261zM223 -532l166 380h212l-261 -430z" />
    <glyph glyph-name="uni0237" unicode="&#x237;" horiz-adv-x="558" 
d="M-158 -305q158 0 241.5 86.5t83.5 236.5v1041h223v-1028q0 -159 -64.5 -278t-188 -185t-295.5 -66v193z" />
    <glyph glyph-name="circumflex" unicode="&#x2c6;" horiz-adv-x="760" 
d="M69 1238l220 298h181l222 -298l-103 -64l-208 253l-210 -253z" />
    <glyph glyph-name="caron" unicode="&#x2c7;" horiz-adv-x="761" 
d="M69 1507l103 63l209 -253l208 253l103 -63l-222 -299h-181z" />
    <glyph glyph-name="breve" unicode="&#x2d8;" horiz-adv-x="909" 
d="M270.5 1242q-79.5 39 -124 114.5t-44.5 179.5h134q0 -65 27.5 -115.5t77 -79t112.5 -28.5q64 0 113.5 28.5t77 79t27.5 115.5h134q0 -104 -44.5 -179.5t-124 -114.5t-183.5 -39q-103 0 -182.5 39z" />
    <glyph glyph-name="dotaccent" unicode="&#x2d9;" horiz-adv-x="537" 
d="M198.5 1297.5q-32.5 18.5 -51.5 50.5t-19 69q0 39 19 70.5t51 50t70 18.5q37 0 69 -18.5t51 -50t19 -70.5q0 -37 -19 -69t-51 -50.5t-69 -18.5t-69.5 18.5z" />
    <glyph glyph-name="ring" unicode="&#x2da;" horiz-adv-x="677" 
d="M225 1181q-53 31 -84 83t-31 114q0 61 31 113.5t84 83t115 30.5q61 0 112.5 -30.5t82 -83t30.5 -113.5q0 -62 -30.5 -114t-82 -83t-112.5 -31q-62 0 -115 31zM424.5 1290.5q34.5 34.5 34.5 87.5q0 32 -16 60.5t-43.5 45.5t-59.5 17q-33 0 -60.5 -17t-43.5 -45.5
t-16 -60.5q0 -53 34.5 -87.5t85.5 -34.5q50 0 84.5 34.5z" />
    <glyph glyph-name="ogonek" unicode="&#x2db;" horiz-adv-x="604" 
d="M161.5 -472q-69.5 58 -69.5 157q0 110 86.5 203t238.5 146l71 -34q-105 -47 -174 -120.5t-69 -150.5q0 -50 30.5 -75.5t78.5 -25.5q33 0 68.5 12t65.5 35v-179q-62 -26 -137 -26q-120 0 -189.5 58z" />
    <glyph glyph-name="tilde" unicode="&#x2dc;" horiz-adv-x="952" 
d="M427 1370q-19 30 -39.5 43t-46.5 13q-47 0 -73 -43.5t-26 -112.5h-120q0 79 26 141t75 97t114 35q115 0 189 -112q17 -27 38.5 -41.5t51.5 -14.5q47 0 72 41t25 114h119q0 -78 -25 -140t-73.5 -97.5t-116.5 -35.5q-117 0 -190 113z" />
    <glyph glyph-name="hungarumlaut" unicode="&#x2dd;" horiz-adv-x="902" 
d="M315 1551l122 -91l-230 -252h-157zM675 1551l122 -91l-230 -252h-157z" />
    <glyph glyph-name="gravecomb" unicode="&#x300;" 
d="M-433 1460l123 91l264 -343h-157z" />
    <glyph glyph-name="acutecomb" unicode="&#x301;" 
d="M-449 1208l264 343l123 -91l-230 -252h-157z" />
    <glyph glyph-name="uni0302" unicode="&#x302;" 
d="M-691 1238l220 298h181l222 -298l-103 -64l-208 253l-210 -253z" />
    <glyph glyph-name="tildecomb" unicode="&#x303;" 
d="M-525 1370q-19 30 -39.5 43t-46.5 13q-47 0 -73 -43.5t-26 -112.5h-120q0 79 26 141t75 97t114 35q115 0 189 -112q17 -27 38.5 -41.5t51.5 -14.5q47 0 72 41t25 114h119q0 -78 -25 -140t-73.5 -97.5t-116.5 -35.5q-117 0 -190 113z" />
    <glyph glyph-name="uni0304" unicode="&#x304;" 
d="M-804 1379h647v-143h-647v143z" />
    <glyph glyph-name="uni0306" unicode="&#x306;" 
d="M-638.5 1242q-79.5 39 -124 114.5t-44.5 179.5h134q0 -65 27.5 -115.5t77 -79t112.5 -28.5q64 0 113.5 28.5t77 79t27.5 115.5h134q0 -104 -44.5 -179.5t-124 -114.5t-183.5 -39q-103 0 -182.5 39z" />
    <glyph glyph-name="uni0307" unicode="&#x307;" 
d="M-338.5 1297.5q-32.5 18.5 -51.5 50.5t-19 69q0 39 19 70.5t51 50t70 18.5q37 0 69 -18.5t51 -50t19 -70.5q0 -37 -19 -69t-51 -50.5t-69 -18.5t-69.5 18.5z" />
    <glyph glyph-name="uni0308" unicode="&#x308;" 
d="M-723 1315.5q-30 17.5 -48 47t-18 64.5q0 36 18 65.5t47.5 46.5t64.5 17t65 -17t48 -46.5t18 -65.5q0 -35 -18 -64.5t-48 -47t-65 -17.5q-34 0 -64 17.5zM-325 1315.5q-30 17.5 -47.5 47t-17.5 64.5q0 36 17.5 65.5t47.5 46.5t65 17q54 0 91.5 -37.5t37.5 -91.5
q0 -35 -17.5 -64.5t-47 -47t-64.5 -17.5t-65 17.5z" />
    <glyph glyph-name="hookabovecomb" unicode="&#x309;" 
d="M-372 1269q118 23 118 104q0 32 -21 52.5t-56 20.5q-45 0 -91 -35l-62 89q69 56 157 56q57 0 101.5 -23t69.5 -64t25 -93q0 -61 -34 -102.5t-96 -59.5v-79h-111v134z" />
    <glyph glyph-name="uni030A" unicode="&#x30a;" 
d="M-452 1181q-53 31 -84 83t-31 114q0 61 31 113.5t84 83t115 30.5q61 0 112.5 -30.5t82 -83t30.5 -113.5q0 -62 -30.5 -114t-82 -83t-112.5 -31q-62 0 -115 31zM-252.5 1290.5q34.5 34.5 34.5 87.5q0 32 -16 60.5t-43.5 45.5t-59.5 17q-33 0 -60.5 -17t-43.5 -45.5
t-16 -60.5q0 -53 34.5 -87.5t85.5 -34.5q50 0 84.5 34.5z" />
    <glyph glyph-name="uni030B" unicode="&#x30b;" 
d="M-551 1551l122 -91l-230 -252h-157zM-191 1551l122 -91l-230 -252h-157z" />
    <glyph glyph-name="uni030C" unicode="&#x30c;" 
d="M-692 1507l103 63l209 -253l208 253l103 -63l-222 -299h-181z" />
    <glyph glyph-name="uni0312" unicode="&#x312;" 
d="M-113 1538l-109 -317h-246l190 317h165z" />
    <glyph glyph-name="uni031B" unicode="&#x31b;" 
d="M-438.5 777.5q-57.5 17.5 -108.5 49.5l67 63q52 -28 97 -28q52 0 75 37.5t23 95.5v157h147v-148q0 -128 -56 -186t-140 -58q-47 0 -104.5 17.5z" />
    <glyph glyph-name="dotbelowcomb" unicode="&#x323;" 
d="M-330.5 -493.5q-32.5 18.5 -51.5 51t-19 70.5q0 37 19 69t51.5 51t69.5 19t69 -19t51 -51t19 -69q0 -38 -19 -70t-51 -51t-69 -19t-69.5 18.5z" />
    <glyph glyph-name="uni0326" unicode="&#x326;" 
d="M-437 -532l166 380h212l-261 -430z" />
    <glyph glyph-name="uni0327" unicode="&#x327;" 
d="M-452.5 -491q-67.5 41 -94.5 103l112 40q17 -29 53 -48t72 -19q41 0 71 29t30 72q0 46 -29 71.5t-75 25.5q-41 0 -80 -24l-93 57l97 188h120l-67 -132q27 5 48 5q56 0 101 -24t70.5 -67.5t25.5 -99.5q0 -60 -29 -110t-78.5 -79t-109.5 -29q-77 0 -144.5 41z" />
    <glyph glyph-name="uni0328" unicode="&#x328;" 
d="M-442.5 -472q-69.5 58 -69.5 157q0 110 86.5 203t238.5 146l71 -34q-105 -47 -174 -120.5t-69 -150.5q0 -50 30.5 -75.5t78.5 -25.5q33 0 68.5 12t65.5 35v-179q-62 -26 -137 -26q-120 0 -189.5 58z" />
    <glyph glyph-name="uni0335" unicode="&#x335;" 
d="M-809 593h645v-148h-645v148z" />
    <glyph glyph-name="uni0336" unicode="&#x336;" 
d="M-1654 594h1490v-123h-1490v123z" />
    <glyph glyph-name="uni0337" unicode="&#x337;" 
d="M-674 401l615 457v-173l-615 -457v173z" />
    <glyph glyph-name="uni0338" unicode="&#x338;" 
d="M-128 1365l117 -71l-789 -1132l-118 71z" />
    <glyph glyph-name="uni0394" unicode="&#x394;" horiz-adv-x="1588" 
d="M1537 0h-1486l616 1536h254zM1210 210l-415 1071l-416 -1071h831z" />
    <glyph glyph-name="uni03A9" unicode="&#x3a9;" horiz-adv-x="1805" 
d="M120 194h294v12q-68 61 -127.5 154t-96 211.5t-36.5 247.5q0 202 95.5 367t267 260t390.5 95q226 0 395 -100t259.5 -265t90.5 -355q0 -124 -36.5 -243t-97 -215t-132.5 -157v-12h299v-194h-635v145q95 52 172.5 142.5t124 215.5t46.5 273q0 152 -57.5 282t-167 207.5
t-259.5 77.5q-145 0 -258.5 -73.5t-176.5 -203.5t-63 -293q0 -146 48 -272.5t127 -218t170 -137.5v-145h-636v194z" />
    <glyph glyph-name="uni03BC" unicode="&#x3bc;" horiz-adv-x="1217" 
d="M1056 963v-963h-226v122q-54 -66 -130.5 -103t-162.5 -37q-113 0 -208 63v-526h-168v1444h228v-569q0 -59 28.5 -107.5t78 -77t108.5 -28.5q62 0 113.5 28.5t82 77.5t30.5 107v569h226z" />
    <glyph glyph-name="pi" unicode="&#x3c0;" horiz-adv-x="1300" 
d="M251 376.5q41 227.5 47 403.5q-87 0 -137 -7.5t-93 -26.5l-27 158q88 59 327 59h891l-18 -183h-165v-491q0 -192 27 -289h-208q-32 51 -32 273v507l-354 1q-5 -115 -25.5 -267t-52.5 -292.5t-68 -221.5h-207q54 149 95 376.5z" />
    <glyph glyph-name="Wgrave" unicode="&#x1e80;" horiz-adv-x="2232" 
d="M2170 1536l-450 -1536h-241l-363 1184l-363 -1184h-241l-450 1536h245l338 -1208l363 1208h216l363 -1208l339 1208h244zM771 1937l123 91l264 -343h-157z" />
    <glyph glyph-name="wgrave" unicode="&#x1e81;" horiz-adv-x="1767" 
d="M1740 1059l-389 -1060h-173l-294 753l-296 -753h-174l-386 1060h237l253 -751l295 751h141l295 -751l253 751h238zM579 1460l123 91l264 -343h-157z" />
    <glyph glyph-name="Wacute" unicode="&#x1e82;" horiz-adv-x="2232" 
d="M2170 1536l-450 -1536h-241l-363 1184l-363 -1184h-241l-450 1536h245l338 -1208l363 1208h216l363 -1208l339 1208h244zM1255 1685l264 343l123 -91l-230 -252h-157z" />
    <glyph glyph-name="wacute" unicode="&#x1e83;" horiz-adv-x="1767" 
d="M1740 1059l-389 -1060h-173l-294 753l-296 -753h-174l-386 1060h237l253 -751l295 751h141l295 -751l253 751h238zM1063 1208l264 343l123 -91l-230 -252h-157z" />
    <glyph glyph-name="Wdieresis" unicode="&#x1e84;" horiz-adv-x="2232" 
d="M2170 1536l-450 -1536h-241l-363 1184l-363 -1184h-241l-450 1536h245l338 -1208l363 1208h216l363 -1208l339 1208h244zM817 1792.5q-30 17.5 -48 47t-18 64.5q0 36 18 65.5t47.5 46.5t64.5 17t65 -17t48 -46.5t18 -65.5q0 -35 -18 -64.5t-48 -47t-65 -17.5
q-34 0 -64 17.5zM1215 1792.5q-30 17.5 -47.5 47t-17.5 64.5q0 36 17.5 65.5t47.5 46.5t65 17q54 0 91.5 -37.5t37.5 -91.5q0 -35 -17.5 -64.5t-47 -47t-64.5 -17.5t-65 17.5z" />
    <glyph glyph-name="wdieresis" unicode="&#x1e85;" horiz-adv-x="1767" 
d="M1740 1059l-389 -1060h-173l-294 753l-296 -753h-174l-386 1060h237l253 -751l295 751h141l295 -751l253 751h238zM625 1315.5q-30 17.5 -48 47t-18 64.5q0 36 18 65.5t47.5 46.5t64.5 17t65 -17t48 -46.5t18 -65.5q0 -35 -18 -64.5t-48 -47t-65 -17.5q-34 0 -64 17.5z
M1023 1315.5q-30 17.5 -47.5 47t-17.5 64.5q0 36 17.5 65.5t47.5 46.5t65 17q54 0 91.5 -37.5t37.5 -91.5q0 -35 -17.5 -64.5t-47 -47t-64.5 -17.5t-65 17.5z" />
    <glyph glyph-name="uni1EA0" unicode="&#x1ea0;" horiz-adv-x="1574" 
d="M1151 332h-728l-127 -332h-245l609 1536h253l609 -1536h-244zM1072 540l-285 744l-284 -744h569zM718.5 -493.5q-32.5 18.5 -51.5 51t-19 70.5q0 37 19 69t51.5 51t69.5 19t69 -19t51 -51t19 -69q0 -38 -19 -70t-51 -51t-69 -19t-69.5 18.5z" />
    <glyph glyph-name="uni1EA1" unicode="&#x1ea1;" horiz-adv-x="1374" 
d="M342 53q-120 73 -191.5 199t-71.5 279q0 152 71.5 277.5t191.5 198t260 72.5q123 0 220 -45.5t163 -128.5v154h222v-1059h-223v154q-65 -82 -162 -128t-220 -46q-140 0 -260 73zM827 224q80 46 126 127t46 180t-46 179t-126 126t-176 46t-176 -46t-127 -126t-47 -179
t47 -180t127 -127t176 -46t176 46zM571.5 -493.5q-32.5 18.5 -51.5 51t-19 70.5q0 37 19 69t51.5 51t69.5 19t69 -19t51 -51t19 -69q0 -38 -19 -70t-51 -51t-69 -19t-69.5 18.5z" />
    <glyph glyph-name="uni1EA2" unicode="&#x1ea2;" horiz-adv-x="1574" 
d="M1151 332h-728l-127 -332h-245l609 1536h253l609 -1536h-244zM1072 540l-285 744l-284 -744h569zM734 1746q118 23 118 104q0 32 -21 52.5t-56 20.5q-45 0 -91 -35l-62 89q69 56 157 56q57 0 101.5 -23t69.5 -64t25 -93q0 -61 -34 -102.5t-96 -59.5v-79h-111v134z" />
    <glyph glyph-name="uni1EA3" unicode="&#x1ea3;" horiz-adv-x="1374" 
d="M342 53q-120 73 -191.5 199t-71.5 279q0 152 71.5 277.5t191.5 198t260 72.5q123 0 220 -45.5t163 -128.5v154h222v-1059h-223v154q-65 -82 -162 -128t-220 -46q-140 0 -260 73zM827 224q80 46 126 127t46 180t-46 179t-126 126t-176 46t-176 -46t-127 -126t-47 -179
t47 -180t127 -127t176 -46t176 46zM635 1269q118 23 118 104q0 32 -21 52.5t-56 20.5q-45 0 -91 -35l-62 89q69 56 157 56q57 0 101.5 -23t69.5 -64t25 -93q0 -61 -34 -102.5t-96 -59.5v-79h-111v134z" />
    <glyph glyph-name="uni1EA4" unicode="&#x1ea4;" horiz-adv-x="1574" 
d="M1151 332h-728l-127 -332h-245l609 1536h253l609 -1536h-244zM1072 540l-285 744l-284 -744h569zM475 1709l220 298h181l222 -298l-103 -64l-208 253l-210 -253zM707 2156l264 343l123 -91l-230 -252h-157z" />
    <glyph glyph-name="uni1EA5" unicode="&#x1ea5;" horiz-adv-x="1374" 
d="M342 53q-120 73 -191.5 199t-71.5 279q0 152 71.5 277.5t191.5 198t260 72.5q123 0 220 -45.5t163 -128.5v154h222v-1059h-223v154q-65 -82 -162 -128t-220 -46q-140 0 -260 73zM827 224q80 46 126 127t46 180t-46 179t-126 126t-176 46t-176 -46t-127 -126t-47 -179
t47 -180t127 -127t176 -46t176 46zM376 1232l220 298h181l222 -298l-103 -64l-208 253l-210 -253zM608 1679l264 343l123 -91l-230 -252h-157z" />
    <glyph glyph-name="uni1EA6" unicode="&#x1ea6;" horiz-adv-x="1574" 
d="M1151 332h-728l-127 -332h-245l609 1536h253l609 -1536h-244zM1072 540l-285 744l-284 -744h569zM475 1709l220 298h181l222 -298l-103 -64l-208 253l-210 -253zM476 2408l123 91l264 -343h-157z" />
    <glyph glyph-name="uni1EA7" unicode="&#x1ea7;" horiz-adv-x="1374" 
d="M342 53q-120 73 -191.5 199t-71.5 279q0 152 71.5 277.5t191.5 198t260 72.5q123 0 220 -45.5t163 -128.5v154h222v-1059h-223v154q-65 -82 -162 -128t-220 -46q-140 0 -260 73zM827 224q80 46 126 127t46 180t-46 179t-126 126t-176 46t-176 -46t-127 -126t-47 -179
t47 -180t127 -127t176 -46t176 46zM376 1232l220 298h181l222 -298l-103 -64l-208 253l-210 -253zM377 1931l123 91l264 -343h-157z" />
    <glyph glyph-name="uni1EA8" unicode="&#x1ea8;" horiz-adv-x="1574" 
d="M1151 332h-728l-127 -332h-245l609 1536h253l609 -1536h-244zM1072 540l-285 744l-284 -744h569zM475 1709l220 298h181l222 -298l-103 -64l-208 253l-210 -253zM732 2217q118 23 118 104q0 32 -21 52.5t-56 20.5q-45 0 -91 -35l-62 89q69 56 157 56q57 0 101.5 -23
t69.5 -64t25 -93q0 -61 -34 -102.5t-96 -59.5v-79h-111v134z" />
    <glyph glyph-name="uni1EA9" unicode="&#x1ea9;" horiz-adv-x="1374" 
d="M342 53q-120 73 -191.5 199t-71.5 279q0 152 71.5 277.5t191.5 198t260 72.5q123 0 220 -45.5t163 -128.5v154h222v-1059h-223v154q-65 -82 -162 -128t-220 -46q-140 0 -260 73zM827 224q80 46 126 127t46 180t-46 179t-126 126t-176 46t-176 -46t-127 -126t-47 -179
t47 -180t127 -127t176 -46t176 46zM376 1232l220 298h181l222 -298l-103 -64l-208 253l-210 -253zM633 1740q118 23 118 104q0 32 -21 52.5t-56 20.5q-45 0 -91 -35l-62 89q69 56 157 56q57 0 101.5 -23t69.5 -64t25 -93q0 -61 -34 -102.5t-96 -59.5v-79h-111v134z" />
    <glyph glyph-name="uni1EAA" unicode="&#x1eaa;" horiz-adv-x="1574" 
d="M1151 332h-728l-127 -332h-245l609 1536h253l609 -1536h-244zM1072 540l-285 744l-284 -744h569zM475 1709l220 298h181l222 -298l-103 -64l-208 253l-210 -253zM733 2318q-19 30 -39.5 43t-46.5 13q-47 0 -73 -43.5t-26 -112.5h-120q0 79 26 141t75 97t114 35
q115 0 189 -112q17 -27 38.5 -41.5t51.5 -14.5q47 0 72 41t25 114h119q0 -78 -25 -140t-73.5 -97.5t-116.5 -35.5q-117 0 -190 113z" />
    <glyph glyph-name="uni1EAB" unicode="&#x1eab;" horiz-adv-x="1374" 
d="M342 53q-120 73 -191.5 199t-71.5 279q0 152 71.5 277.5t191.5 198t260 72.5q123 0 220 -45.5t163 -128.5v154h222v-1059h-223v154q-65 -82 -162 -128t-220 -46q-140 0 -260 73zM827 224q80 46 126 127t46 180t-46 179t-126 126t-176 46t-176 -46t-127 -126t-47 -179
t47 -180t127 -127t176 -46t176 46zM376 1232l220 298h181l222 -298l-103 -64l-208 253l-210 -253zM634 1841q-19 30 -39.5 43t-46.5 13q-47 0 -73 -43.5t-26 -112.5h-120q0 79 26 141t75 97t114 35q115 0 189 -112q17 -27 38.5 -41.5t51.5 -14.5q47 0 72 41t25 114h119
q0 -78 -25 -140t-73.5 -97.5t-116.5 -35.5q-117 0 -190 113z" />
    <glyph glyph-name="uni1EAC" unicode="&#x1eac;" horiz-adv-x="1574" 
d="M1151 332h-728l-127 -332h-245l609 1536h253l609 -1536h-244zM1072 540l-285 744l-284 -744h569zM718.5 -493.5q-32.5 18.5 -51.5 51t-19 70.5q0 37 19 69t51.5 51t69.5 19t69 -19t51 -51t19 -69q0 -38 -19 -70t-51 -51t-69 -19t-69.5 18.5zM475 1709l220 298h181
l222 -298l-103 -64l-208 253l-210 -253z" />
    <glyph glyph-name="uni1EAD" unicode="&#x1ead;" horiz-adv-x="1374" 
d="M342 53q-120 73 -191.5 199t-71.5 279q0 152 71.5 277.5t191.5 198t260 72.5q123 0 220 -45.5t163 -128.5v154h222v-1059h-223v154q-65 -82 -162 -128t-220 -46q-140 0 -260 73zM827 224q80 46 126 127t46 180t-46 179t-126 126t-176 46t-176 -46t-127 -126t-47 -179
t47 -180t127 -127t176 -46t176 46zM571.5 -493.5q-32.5 18.5 -51.5 51t-19 70.5q0 37 19 69t51.5 51t69.5 19t69 -19t51 -51t19 -69q0 -38 -19 -70t-51 -51t-69 -19t-69.5 18.5zM376 1232l220 298h181l222 -298l-103 -64l-208 253l-210 -253z" />
    <glyph glyph-name="uni1EAE" unicode="&#x1eae;" horiz-adv-x="1574" 
d="M1151 332h-728l-127 -332h-245l609 1536h253l609 -1536h-244zM1072 540l-285 744l-284 -744h569zM603.5 1719q-79.5 39 -124 114.5t-44.5 179.5h134q0 -65 27.5 -115.5t77 -79t112.5 -28.5q64 0 113.5 28.5t77 79t27.5 115.5h134q0 -104 -44.5 -179.5t-124 -114.5
t-183.5 -39q-103 0 -182.5 39zM709 2162l264 343l123 -91l-230 -252h-157z" />
    <glyph glyph-name="uni1EAF" unicode="&#x1eaf;" horiz-adv-x="1374" 
d="M342 53q-120 73 -191.5 199t-71.5 279q0 152 71.5 277.5t191.5 198t260 72.5q123 0 220 -45.5t163 -128.5v154h222v-1059h-223v154q-65 -82 -162 -128t-220 -46q-140 0 -260 73zM827 224q80 46 126 127t46 180t-46 179t-126 126t-176 46t-176 -46t-127 -126t-47 -179
t47 -180t127 -127t176 -46t176 46zM504.5 1242q-79.5 39 -124 114.5t-44.5 179.5h134q0 -65 27.5 -115.5t77 -79t112.5 -28.5q64 0 113.5 28.5t77 79t27.5 115.5h134q0 -104 -44.5 -179.5t-124 -114.5t-183.5 -39q-103 0 -182.5 39zM610 1685l264 343l123 -91l-230 -252
h-157z" />
    <glyph glyph-name="uni1EB0" unicode="&#x1eb0;" horiz-adv-x="1574" 
d="M1151 332h-728l-127 -332h-245l609 1536h253l609 -1536h-244zM1072 540l-285 744l-284 -744h569zM603.5 1719q-79.5 39 -124 114.5t-44.5 179.5h134q0 -65 27.5 -115.5t77 -79t112.5 -28.5q64 0 113.5 28.5t77 79t27.5 115.5h134q0 -104 -44.5 -179.5t-124 -114.5
t-183.5 -39q-103 0 -182.5 39zM478 2414l123 91l264 -343h-157z" />
    <glyph glyph-name="uni1EB1" unicode="&#x1eb1;" horiz-adv-x="1374" 
d="M342 53q-120 73 -191.5 199t-71.5 279q0 152 71.5 277.5t191.5 198t260 72.5q123 0 220 -45.5t163 -128.5v154h222v-1059h-223v154q-65 -82 -162 -128t-220 -46q-140 0 -260 73zM827 224q80 46 126 127t46 180t-46 179t-126 126t-176 46t-176 -46t-127 -126t-47 -179
t47 -180t127 -127t176 -46t176 46zM504.5 1242q-79.5 39 -124 114.5t-44.5 179.5h134q0 -65 27.5 -115.5t77 -79t112.5 -28.5q64 0 113.5 28.5t77 79t27.5 115.5h134q0 -104 -44.5 -179.5t-124 -114.5t-183.5 -39q-103 0 -182.5 39zM379 1937l123 91l264 -343h-157z" />
    <glyph glyph-name="uni1EB2" unicode="&#x1eb2;" horiz-adv-x="1574" 
d="M1151 332h-728l-127 -332h-245l609 1536h253l609 -1536h-244zM1072 540l-285 744l-284 -744h569zM603.5 1719q-79.5 39 -124 114.5t-44.5 179.5h134q0 -65 27.5 -115.5t77 -79t112.5 -28.5q64 0 113.5 28.5t77 79t27.5 115.5h134q0 -104 -44.5 -179.5t-124 -114.5
t-183.5 -39q-103 0 -182.5 39zM734 2223q118 23 118 104q0 32 -21 52.5t-56 20.5q-45 0 -91 -35l-62 89q69 56 157 56q57 0 101.5 -23t69.5 -64t25 -93q0 -61 -34 -102.5t-96 -59.5v-79h-111v134z" />
    <glyph glyph-name="uni1EB3" unicode="&#x1eb3;" horiz-adv-x="1374" 
d="M342 53q-120 73 -191.5 199t-71.5 279q0 152 71.5 277.5t191.5 198t260 72.5q123 0 220 -45.5t163 -128.5v154h222v-1059h-223v154q-65 -82 -162 -128t-220 -46q-140 0 -260 73zM827 224q80 46 126 127t46 180t-46 179t-126 126t-176 46t-176 -46t-127 -126t-47 -179
t47 -180t127 -127t176 -46t176 46zM504.5 1242q-79.5 39 -124 114.5t-44.5 179.5h134q0 -65 27.5 -115.5t77 -79t112.5 -28.5q64 0 113.5 28.5t77 79t27.5 115.5h134q0 -104 -44.5 -179.5t-124 -114.5t-183.5 -39q-103 0 -182.5 39zM635 1746q118 23 118 104q0 32 -21 52.5
t-56 20.5q-45 0 -91 -35l-62 89q69 56 157 56q57 0 101.5 -23t69.5 -64t25 -93q0 -61 -34 -102.5t-96 -59.5v-79h-111v134z" />
    <glyph glyph-name="uni1EB4" unicode="&#x1eb4;" horiz-adv-x="1574" 
d="M1151 332h-728l-127 -332h-245l609 1536h253l609 -1536h-244zM1072 540l-285 744l-284 -744h569zM603.5 1719q-79.5 39 -124 114.5t-44.5 179.5h134q0 -65 27.5 -115.5t77 -79t112.5 -28.5q64 0 113.5 28.5t77 79t27.5 115.5h134q0 -104 -44.5 -179.5t-124 -114.5
t-183.5 -39q-103 0 -182.5 39zM735 2324q-19 30 -39.5 43t-46.5 13q-47 0 -73 -43.5t-26 -112.5h-120q0 79 26 141t75 97t114 35q115 0 189 -112q17 -27 38.5 -41.5t51.5 -14.5q47 0 72 41t25 114h119q0 -78 -25 -140t-73.5 -97.5t-116.5 -35.5q-117 0 -190 113z" />
    <glyph glyph-name="uni1EB5" unicode="&#x1eb5;" horiz-adv-x="1374" 
d="M342 53q-120 73 -191.5 199t-71.5 279q0 152 71.5 277.5t191.5 198t260 72.5q123 0 220 -45.5t163 -128.5v154h222v-1059h-223v154q-65 -82 -162 -128t-220 -46q-140 0 -260 73zM827 224q80 46 126 127t46 180t-46 179t-126 126t-176 46t-176 -46t-127 -126t-47 -179
t47 -180t127 -127t176 -46t176 46zM504.5 1242q-79.5 39 -124 114.5t-44.5 179.5h134q0 -65 27.5 -115.5t77 -79t112.5 -28.5q64 0 113.5 28.5t77 79t27.5 115.5h134q0 -104 -44.5 -179.5t-124 -114.5t-183.5 -39q-103 0 -182.5 39zM636 1847q-19 30 -39.5 43t-46.5 13
q-47 0 -73 -43.5t-26 -112.5h-120q0 79 26 141t75 97t114 35q115 0 189 -112q17 -27 38.5 -41.5t51.5 -14.5q47 0 72 41t25 114h119q0 -78 -25 -140t-73.5 -97.5t-116.5 -35.5q-117 0 -190 113z" />
    <glyph glyph-name="uni1EB6" unicode="&#x1eb6;" horiz-adv-x="1574" 
d="M1151 332h-728l-127 -332h-245l609 1536h253l609 -1536h-244zM1072 540l-285 744l-284 -744h569zM718.5 -493.5q-32.5 18.5 -51.5 51t-19 70.5q0 37 19 69t51.5 51t69.5 19t69 -19t51 -51t19 -69q0 -38 -19 -70t-51 -51t-69 -19t-69.5 18.5zM603.5 1719
q-79.5 39 -124 114.5t-44.5 179.5h134q0 -65 27.5 -115.5t77 -79t112.5 -28.5q64 0 113.5 28.5t77 79t27.5 115.5h134q0 -104 -44.5 -179.5t-124 -114.5t-183.5 -39q-103 0 -182.5 39z" />
    <glyph glyph-name="uni1EB7" unicode="&#x1eb7;" horiz-adv-x="1374" 
d="M342 53q-120 73 -191.5 199t-71.5 279q0 152 71.5 277.5t191.5 198t260 72.5q123 0 220 -45.5t163 -128.5v154h222v-1059h-223v154q-65 -82 -162 -128t-220 -46q-140 0 -260 73zM827 224q80 46 126 127t46 180t-46 179t-126 126t-176 46t-176 -46t-127 -126t-47 -179
t47 -180t127 -127t176 -46t176 46zM571.5 -493.5q-32.5 18.5 -51.5 51t-19 70.5q0 37 19 69t51.5 51t69.5 19t69 -19t51 -51t19 -69q0 -38 -19 -70t-51 -51t-69 -19t-69.5 18.5zM504.5 1242q-79.5 39 -124 114.5t-44.5 179.5h134q0 -65 27.5 -115.5t77 -79t112.5 -28.5
q64 0 113.5 28.5t77 79t27.5 115.5h134q0 -104 -44.5 -179.5t-124 -114.5t-183.5 -39q-103 0 -182.5 39z" />
    <glyph glyph-name="uni1EB8" unicode="&#x1eb8;" horiz-adv-x="1213" 
d="M446 1322v-449h565v-213h-565v-446h645v-214h-881v1536h881v-214h-645zM584.5 -493.5q-32.5 18.5 -51.5 51t-19 70.5q0 37 19 69t51.5 51t69.5 19t69 -19t51 -51t19 -69q0 -38 -19 -70t-51 -51t-69 -19t-69.5 18.5z" />
    <glyph glyph-name="uni1EB9" unicode="&#x1eb9;" horiz-adv-x="1247" 
d="M1179 498h-887q5 -96 52.5 -172t124.5 -118t169 -42q93 0 172 43t127 121l181 -77q-69 -128 -195 -200.5t-284 -72.5q-160 0 -288.5 73t-201 199t-72.5 278q0 151 73 277t200.5 199.5t283.5 73.5q150 0 274 -69t197 -192t76 -277zM425 834q-89 -69 -120 -184h647
q-16 76 -60.5 133.5t-111 88.5t-145.5 31q-121 0 -210 -69zM580.5 -494.5q-32.5 18.5 -51.5 51t-19 70.5q0 37 19 69t51.5 51t69.5 19t69 -19t51 -51t19 -69q0 -38 -19 -70t-51 -51t-69 -19t-69.5 18.5z" />
    <glyph glyph-name="uni1EBA" unicode="&#x1eba;" horiz-adv-x="1213" 
d="M446 1322v-449h565v-213h-565v-446h645v-214h-881v1536h881v-214h-645zM600 1746q118 23 118 104q0 32 -21 52.5t-56 20.5q-45 0 -91 -35l-62 89q69 56 157 56q57 0 101.5 -23t69.5 -64t25 -93q0 -61 -34 -102.5t-96 -59.5v-79h-111v134z" />
    <glyph glyph-name="uni1EBB" unicode="&#x1ebb;" horiz-adv-x="1247" 
d="M1179 498h-887q5 -96 52.5 -172t124.5 -118t169 -42q93 0 172 43t127 121l181 -77q-69 -128 -195 -200.5t-284 -72.5q-160 0 -288.5 73t-201 199t-72.5 278q0 151 73 277t200.5 199.5t283.5 73.5q150 0 274 -69t197 -192t76 -277zM425 834q-89 -69 -120 -184h647
q-16 76 -60.5 133.5t-111 88.5t-145.5 31q-121 0 -210 -69zM591 1278q118 23 118 104q0 32 -21 52.5t-56 20.5q-45 0 -91 -35l-62 89q69 56 157 56q57 0 101.5 -23t69.5 -64t25 -93q0 -61 -34 -102.5t-96 -59.5v-79h-111v134z" />
    <glyph glyph-name="uni1EBC" unicode="&#x1ebc;" horiz-adv-x="1213" 
d="M446 1322v-449h565v-213h-565v-446h645v-214h-881v1536h881v-214h-645zM601 1847q-19 30 -39.5 43t-46.5 13q-47 0 -73 -43.5t-26 -112.5h-120q0 79 26 141t75 97t114 35q115 0 189 -112q17 -27 38.5 -41.5t51.5 -14.5q47 0 72 41t25 114h119q0 -78 -25 -140t-73.5 -97.5
t-116.5 -35.5q-117 0 -190 113z" />
    <glyph glyph-name="uni1EBD" unicode="&#x1ebd;" horiz-adv-x="1247" 
d="M1179 498h-887q5 -96 52.5 -172t124.5 -118t169 -42q93 0 172 43t127 121l181 -77q-69 -128 -195 -200.5t-284 -72.5q-160 0 -288.5 73t-201 199t-72.5 278q0 151 73 277t200.5 199.5t283.5 73.5q150 0 274 -69t197 -192t76 -277zM425 834q-89 -69 -120 -184h647
q-16 76 -60.5 133.5t-111 88.5t-145.5 31q-121 0 -210 -69zM592 1379q-19 30 -39.5 43t-46.5 13q-47 0 -73 -43.5t-26 -112.5h-120q0 79 26 141t75 97t114 35q115 0 189 -112q17 -27 38.5 -41.5t51.5 -14.5q47 0 72 41t25 114h119q0 -78 -25 -140t-73.5 -97.5t-116.5 -35.5
q-117 0 -190 113z" />
    <glyph glyph-name="uni1EBE" unicode="&#x1ebe;" horiz-adv-x="1213" 
d="M446 1322v-449h565v-213h-565v-446h645v-214h-881v1536h881v-214h-645zM341 1709l220 298h181l222 -298l-103 -64l-208 253l-210 -253zM573 2156l264 343l123 -91l-230 -252h-157z" />
    <glyph glyph-name="uni1EBF" unicode="&#x1ebf;" horiz-adv-x="1247" 
d="M1179 498h-887q5 -96 52.5 -172t124.5 -118t169 -42q93 0 172 43t127 121l181 -77q-69 -128 -195 -200.5t-284 -72.5q-160 0 -288.5 73t-201 199t-72.5 278q0 151 73 277t200.5 199.5t283.5 73.5q150 0 274 -69t197 -192t76 -277zM425 834q-89 -69 -120 -184h647
q-16 76 -60.5 133.5t-111 88.5t-145.5 31q-121 0 -210 -69zM332 1241l220 298h181l222 -298l-103 -64l-208 253l-210 -253zM564 1688l264 343l123 -91l-230 -252h-157z" />
    <glyph glyph-name="uni1EC0" unicode="&#x1ec0;" horiz-adv-x="1213" 
d="M446 1322v-449h565v-213h-565v-446h645v-214h-881v1536h881v-214h-645zM341 1709l220 298h181l222 -298l-103 -64l-208 253l-210 -253zM342 2408l123 91l264 -343h-157z" />
    <glyph glyph-name="uni1EC1" unicode="&#x1ec1;" horiz-adv-x="1247" 
d="M1179 498h-887q5 -96 52.5 -172t124.5 -118t169 -42q93 0 172 43t127 121l181 -77q-69 -128 -195 -200.5t-284 -72.5q-160 0 -288.5 73t-201 199t-72.5 278q0 151 73 277t200.5 199.5t283.5 73.5q150 0 274 -69t197 -192t76 -277zM425 834q-89 -69 -120 -184h647
q-16 76 -60.5 133.5t-111 88.5t-145.5 31q-121 0 -210 -69zM332 1241l220 298h181l222 -298l-103 -64l-208 253l-210 -253zM333 1940l123 91l264 -343h-157z" />
    <glyph glyph-name="uni1EC2" unicode="&#x1ec2;" horiz-adv-x="1213" 
d="M446 1322v-449h565v-213h-565v-446h645v-214h-881v1536h881v-214h-645zM341 1709l220 298h181l222 -298l-103 -64l-208 253l-210 -253zM598 2217q118 23 118 104q0 32 -21 52.5t-56 20.5q-45 0 -91 -35l-62 89q69 56 157 56q57 0 101.5 -23t69.5 -64t25 -93
q0 -61 -34 -102.5t-96 -59.5v-79h-111v134z" />
    <glyph glyph-name="uni1EC3" unicode="&#x1ec3;" horiz-adv-x="1247" 
d="M1179 498h-887q5 -96 52.5 -172t124.5 -118t169 -42q93 0 172 43t127 121l181 -77q-69 -128 -195 -200.5t-284 -72.5q-160 0 -288.5 73t-201 199t-72.5 278q0 151 73 277t200.5 199.5t283.5 73.5q150 0 274 -69t197 -192t76 -277zM425 834q-89 -69 -120 -184h647
q-16 76 -60.5 133.5t-111 88.5t-145.5 31q-121 0 -210 -69zM332 1241l220 298h181l222 -298l-103 -64l-208 253l-210 -253zM589 1749q118 23 118 104q0 32 -21 52.5t-56 20.5q-45 0 -91 -35l-62 89q69 56 157 56q57 0 101.5 -23t69.5 -64t25 -93q0 -61 -34 -102.5t-96 -59.5
v-79h-111v134z" />
    <glyph glyph-name="uni1EC4" unicode="&#x1ec4;" horiz-adv-x="1213" 
d="M446 1322v-449h565v-213h-565v-446h645v-214h-881v1536h881v-214h-645zM341 1709l220 298h181l222 -298l-103 -64l-208 253l-210 -253zM599 2318q-19 30 -39.5 43t-46.5 13q-47 0 -73 -43.5t-26 -112.5h-120q0 79 26 141t75 97t114 35q115 0 189 -112q17 -27 38.5 -41.5
t51.5 -14.5q47 0 72 41t25 114h119q0 -78 -25 -140t-73.5 -97.5t-116.5 -35.5q-117 0 -190 113z" />
    <glyph glyph-name="uni1EC5" unicode="&#x1ec5;" horiz-adv-x="1247" 
d="M1179 498h-887q5 -96 52.5 -172t124.5 -118t169 -42q93 0 172 43t127 121l181 -77q-69 -128 -195 -200.5t-284 -72.5q-160 0 -288.5 73t-201 199t-72.5 278q0 151 73 277t200.5 199.5t283.5 73.5q150 0 274 -69t197 -192t76 -277zM425 834q-89 -69 -120 -184h647
q-16 76 -60.5 133.5t-111 88.5t-145.5 31q-121 0 -210 -69zM332 1241l220 298h181l222 -298l-103 -64l-208 253l-210 -253zM590 1850q-19 30 -39.5 43t-46.5 13q-47 0 -73 -43.5t-26 -112.5h-120q0 79 26 141t75 97t114 35q115 0 189 -112q17 -27 38.5 -41.5t51.5 -14.5
q47 0 72 41t25 114h119q0 -78 -25 -140t-73.5 -97.5t-116.5 -35.5q-117 0 -190 113z" />
    <glyph glyph-name="uni1EC6" unicode="&#x1ec6;" horiz-adv-x="1213" 
d="M446 1322v-449h565v-213h-565v-446h645v-214h-881v1536h881v-214h-645zM584.5 -493.5q-32.5 18.5 -51.5 51t-19 70.5q0 37 19 69t51.5 51t69.5 19t69 -19t51 -51t19 -69q0 -38 -19 -70t-51 -51t-69 -19t-69.5 18.5zM341 1709l220 298h181l222 -298l-103 -64l-208 253
l-210 -253z" />
    <glyph glyph-name="uni1EC7" unicode="&#x1ec7;" horiz-adv-x="1247" 
d="M1179 498h-887q5 -96 52.5 -172t124.5 -118t169 -42q93 0 172 43t127 121l181 -77q-69 -128 -195 -200.5t-284 -72.5q-160 0 -288.5 73t-201 199t-72.5 278q0 151 73 277t200.5 199.5t283.5 73.5q150 0 274 -69t197 -192t76 -277zM425 834q-89 -69 -120 -184h647
q-16 76 -60.5 133.5t-111 88.5t-145.5 31q-121 0 -210 -69zM580.5 -494.5q-32.5 18.5 -51.5 51t-19 70.5q0 37 19 69t51.5 51t69.5 19t69 -19t51 -51t19 -69q0 -38 -19 -70t-51 -51t-69 -19t-69.5 18.5zM332 1241l220 298h181l222 -298l-103 -64l-208 253l-210 -253z" />
    <glyph glyph-name="uni1EC8" unicode="&#x1ec8;" horiz-adv-x="656" 
d="M210 1536h236v-1536h-236v1536zM274 1746q118 23 118 104q0 32 -21 52.5t-56 20.5q-45 0 -91 -35l-62 89q69 56 157 56q57 0 101.5 -23t69.5 -64t25 -93q0 -61 -34 -102.5t-96 -59.5v-79h-111v134z" />
    <glyph glyph-name="uni1EC9" unicode="&#x1ec9;" horiz-adv-x="556" 
d="M167 1059h222v-1059h-222v1059zM226 1269q118 23 118 104q0 32 -21 52.5t-56 20.5q-45 0 -91 -35l-62 89q69 56 157 56q57 0 101.5 -23t69.5 -64t25 -93q0 -61 -34 -102.5t-96 -59.5v-79h-111v134z" />
    <glyph glyph-name="uni1ECA" unicode="&#x1eca;" horiz-adv-x="656" 
d="M210 1536h236v-1536h-236v1536zM258.5 -493.5q-32.5 18.5 -51.5 51t-19 70.5q0 37 19 69t51.5 51t69.5 19t69 -19t51 -51t19 -69q0 -38 -19 -70t-51 -51t-69 -19t-69.5 18.5z" />
    <glyph glyph-name="uni1ECB" unicode="&#x1ecb;" horiz-adv-x="556" 
d="M167 1059h222v-1059h-222v1059zM210.5 1297.5q-32.5 18.5 -51.5 50.5t-19 69q0 39 19 70.5t51 50t70 18.5q37 0 69 -18.5t51 -50t19 -70.5q0 -37 -19 -69t-51 -50.5t-69 -18.5t-69.5 18.5zM210.5 -493.5q-32.5 18.5 -51.5 51t-19 70.5q0 37 19 69t51.5 51t69.5 19t69 -19
t51 -51t19 -69q0 -38 -19 -70t-51 -51t-69 -19t-69.5 18.5z" />
    <glyph glyph-name="uni1ECC" unicode="&#x1ecc;" horiz-adv-x="1807" 
d="M499.5 84.5q-183.5 104.5 -289.5 285t-106 398.5t106 398.5t289.5 285t404.5 104.5t404 -104.5t289 -285t106 -398.5t-106 -398.5t-289 -285t-404 -104.5t-404.5 104.5zM1188 279.5q129 74.5 204 203.5t75 285t-75 285t-204 203.5t-284 74.5t-284.5 -74.5t-204.5 -204
t-75 -284.5t75 -284.5t204.5 -204t284.5 -74.5t284 74.5zM835.5 -493.5q-32.5 18.5 -51.5 51t-19 70.5q0 37 19 69t51.5 51t69.5 19t69 -19t51 -51t19 -69q0 -38 -19 -70t-51 -51t-69 -19t-69.5 18.5z" />
    <glyph glyph-name="uni1ECD" unicode="&#x1ecd;" horiz-adv-x="1286" 
d="M356.5 52.5q-129.5 72.5 -204.5 198t-75 279.5q0 153 75 278.5t204.5 198t286.5 72.5t286.5 -72.5t204.5 -198t75 -278.5q0 -154 -75 -279.5t-204.5 -198t-286.5 -72.5t-286.5 72.5zM818 226q80 46 127 126.5t47 177.5t-47 177t-127 126t-176 46t-176 -46t-126.5 -126
t-46.5 -177q0 -98 46.5 -178t126.5 -126t176 -46t176 46zM574.5 -493.5q-32.5 18.5 -51.5 51t-19 70.5q0 37 19 69t51.5 51t69.5 19t69 -19t51 -51t19 -69q0 -38 -19 -70t-51 -51t-69 -19t-69.5 18.5z" />
    <glyph glyph-name="uni1ECE" unicode="&#x1ece;" horiz-adv-x="1807" 
d="M499.5 84.5q-183.5 104.5 -289.5 285t-106 398.5t106 398.5t289.5 285t404.5 104.5t404 -104.5t289 -285t106 -398.5t-106 -398.5t-289 -285t-404 -104.5t-404.5 104.5zM1188 279.5q129 74.5 204 203.5t75 285t-75 285t-204 203.5t-284 74.5t-284.5 -74.5t-204.5 -204
t-75 -284.5t75 -284.5t204.5 -204t284.5 -74.5t284 74.5zM851 1746q118 23 118 104q0 32 -21 52.5t-56 20.5q-45 0 -91 -35l-62 89q69 56 157 56q57 0 101.5 -23t69.5 -64t25 -93q0 -61 -34 -102.5t-96 -59.5v-79h-111v134z" />
    <glyph glyph-name="uni1ECF" unicode="&#x1ecf;" horiz-adv-x="1286" 
d="M356.5 52.5q-129.5 72.5 -204.5 198t-75 279.5q0 153 75 278.5t204.5 198t286.5 72.5t286.5 -72.5t204.5 -198t75 -278.5q0 -154 -75 -279.5t-204.5 -198t-286.5 -72.5t-286.5 72.5zM818 226q80 46 127 126.5t47 177.5t-47 177t-127 126t-176 46t-176 -46t-126.5 -126
t-46.5 -177q0 -98 46.5 -178t126.5 -126t176 -46t176 46zM590 1268q118 23 118 104q0 32 -21 52.5t-56 20.5q-45 0 -91 -35l-62 89q69 56 157 56q57 0 101.5 -23t69.5 -64t25 -93q0 -61 -34 -102.5t-96 -59.5v-79h-111v134z" />
    <glyph glyph-name="uni1ED0" unicode="&#x1ed0;" horiz-adv-x="1807" 
d="M499.5 84.5q-183.5 104.5 -289.5 285t-106 398.5t106 398.5t289.5 285t404.5 104.5t404 -104.5t289 -285t106 -398.5t-106 -398.5t-289 -285t-404 -104.5t-404.5 104.5zM1188 279.5q129 74.5 204 203.5t75 285t-75 285t-204 203.5t-284 74.5t-284.5 -74.5t-204.5 -204
t-75 -284.5t75 -284.5t204.5 -204t284.5 -74.5t284 74.5zM592 1709l220 298h181l222 -298l-103 -64l-208 253l-210 -253zM824 2156l264 343l123 -91l-230 -252h-157z" />
    <glyph glyph-name="uni1ED1" unicode="&#x1ed1;" horiz-adv-x="1286" 
d="M356.5 52.5q-129.5 72.5 -204.5 198t-75 279.5q0 153 75 278.5t204.5 198t286.5 72.5t286.5 -72.5t204.5 -198t75 -278.5q0 -154 -75 -279.5t-204.5 -198t-286.5 -72.5t-286.5 72.5zM818 226q80 46 127 126.5t47 177.5t-47 177t-127 126t-176 46t-176 -46t-126.5 -126
t-46.5 -177q0 -98 46.5 -178t126.5 -126t176 -46t176 46zM331 1231l220 298h181l222 -298l-103 -64l-208 253l-210 -253zM563 1678l264 343l123 -91l-230 -252h-157z" />
    <glyph glyph-name="uni1ED2" unicode="&#x1ed2;" horiz-adv-x="1807" 
d="M499.5 84.5q-183.5 104.5 -289.5 285t-106 398.5t106 398.5t289.5 285t404.5 104.5t404 -104.5t289 -285t106 -398.5t-106 -398.5t-289 -285t-404 -104.5t-404.5 104.5zM1188 279.5q129 74.5 204 203.5t75 285t-75 285t-204 203.5t-284 74.5t-284.5 -74.5t-204.5 -204
t-75 -284.5t75 -284.5t204.5 -204t284.5 -74.5t284 74.5zM592 1709l220 298h181l222 -298l-103 -64l-208 253l-210 -253zM593 2408l123 91l264 -343h-157z" />
    <glyph glyph-name="uni1ED3" unicode="&#x1ed3;" horiz-adv-x="1286" 
d="M356.5 52.5q-129.5 72.5 -204.5 198t-75 279.5q0 153 75 278.5t204.5 198t286.5 72.5t286.5 -72.5t204.5 -198t75 -278.5q0 -154 -75 -279.5t-204.5 -198t-286.5 -72.5t-286.5 72.5zM818 226q80 46 127 126.5t47 177.5t-47 177t-127 126t-176 46t-176 -46t-126.5 -126
t-46.5 -177q0 -98 46.5 -178t126.5 -126t176 -46t176 46zM331 1231l220 298h181l222 -298l-103 -64l-208 253l-210 -253zM332 1930l123 91l264 -343h-157z" />
    <glyph glyph-name="uni1ED4" unicode="&#x1ed4;" horiz-adv-x="1807" 
d="M499.5 84.5q-183.5 104.5 -289.5 285t-106 398.5t106 398.5t289.5 285t404.5 104.5t404 -104.5t289 -285t106 -398.5t-106 -398.5t-289 -285t-404 -104.5t-404.5 104.5zM1188 279.5q129 74.5 204 203.5t75 285t-75 285t-204 203.5t-284 74.5t-284.5 -74.5t-204.5 -204
t-75 -284.5t75 -284.5t204.5 -204t284.5 -74.5t284 74.5zM592 1709l220 298h181l222 -298l-103 -64l-208 253l-210 -253zM849 2217q118 23 118 104q0 32 -21 52.5t-56 20.5q-45 0 -91 -35l-62 89q69 56 157 56q57 0 101.5 -23t69.5 -64t25 -93q0 -61 -34 -102.5t-96 -59.5
v-79h-111v134z" />
    <glyph glyph-name="uni1ED5" unicode="&#x1ed5;" horiz-adv-x="1286" 
d="M356.5 52.5q-129.5 72.5 -204.5 198t-75 279.5q0 153 75 278.5t204.5 198t286.5 72.5t286.5 -72.5t204.5 -198t75 -278.5q0 -154 -75 -279.5t-204.5 -198t-286.5 -72.5t-286.5 72.5zM818 226q80 46 127 126.5t47 177.5t-47 177t-127 126t-176 46t-176 -46t-126.5 -126
t-46.5 -177q0 -98 46.5 -178t126.5 -126t176 -46t176 46zM331 1231l220 298h181l222 -298l-103 -64l-208 253l-210 -253zM588 1739q118 23 118 104q0 32 -21 52.5t-56 20.5q-45 0 -91 -35l-62 89q69 56 157 56q57 0 101.5 -23t69.5 -64t25 -93q0 -61 -34 -102.5t-96 -59.5
v-79h-111v134z" />
    <glyph glyph-name="uni1ED6" unicode="&#x1ed6;" horiz-adv-x="1807" 
d="M499.5 84.5q-183.5 104.5 -289.5 285t-106 398.5t106 398.5t289.5 285t404.5 104.5t404 -104.5t289 -285t106 -398.5t-106 -398.5t-289 -285t-404 -104.5t-404.5 104.5zM1188 279.5q129 74.5 204 203.5t75 285t-75 285t-204 203.5t-284 74.5t-284.5 -74.5t-204.5 -204
t-75 -284.5t75 -284.5t204.5 -204t284.5 -74.5t284 74.5zM592 1709l220 298h181l222 -298l-103 -64l-208 253l-210 -253zM850 2318q-19 30 -39.5 43t-46.5 13q-47 0 -73 -43.5t-26 -112.5h-120q0 79 26 141t75 97t114 35q115 0 189 -112q17 -27 38.5 -41.5t51.5 -14.5
q47 0 72 41t25 114h119q0 -78 -25 -140t-73.5 -97.5t-116.5 -35.5q-117 0 -190 113z" />
    <glyph glyph-name="uni1ED7" unicode="&#x1ed7;" horiz-adv-x="1286" 
d="M356.5 52.5q-129.5 72.5 -204.5 198t-75 279.5q0 153 75 278.5t204.5 198t286.5 72.5t286.5 -72.5t204.5 -198t75 -278.5q0 -154 -75 -279.5t-204.5 -198t-286.5 -72.5t-286.5 72.5zM818 226q80 46 127 126.5t47 177.5t-47 177t-127 126t-176 46t-176 -46t-126.5 -126
t-46.5 -177q0 -98 46.5 -178t126.5 -126t176 -46t176 46zM331 1231l220 298h181l222 -298l-103 -64l-208 253l-210 -253zM589 1840q-19 30 -39.5 43t-46.5 13q-47 0 -73 -43.5t-26 -112.5h-120q0 79 26 141t75 97t114 35q115 0 189 -112q17 -27 38.5 -41.5t51.5 -14.5
q47 0 72 41t25 114h119q0 -78 -25 -140t-73.5 -97.5t-116.5 -35.5q-117 0 -190 113z" />
    <glyph glyph-name="uni1ED8" unicode="&#x1ed8;" horiz-adv-x="1807" 
d="M499.5 84.5q-183.5 104.5 -289.5 285t-106 398.5t106 398.5t289.5 285t404.5 104.5t404 -104.5t289 -285t106 -398.5t-106 -398.5t-289 -285t-404 -104.5t-404.5 104.5zM1188 279.5q129 74.5 204 203.5t75 285t-75 285t-204 203.5t-284 74.5t-284.5 -74.5t-204.5 -204
t-75 -284.5t75 -284.5t204.5 -204t284.5 -74.5t284 74.5zM835.5 -493.5q-32.5 18.5 -51.5 51t-19 70.5q0 37 19 69t51.5 51t69.5 19t69 -19t51 -51t19 -69q0 -38 -19 -70t-51 -51t-69 -19t-69.5 18.5zM592 1709l220 298h181l222 -298l-103 -64l-208 253l-210 -253z" />
    <glyph glyph-name="uni1ED9" unicode="&#x1ed9;" horiz-adv-x="1286" 
d="M356.5 52.5q-129.5 72.5 -204.5 198t-75 279.5q0 153 75 278.5t204.5 198t286.5 72.5t286.5 -72.5t204.5 -198t75 -278.5q0 -154 -75 -279.5t-204.5 -198t-286.5 -72.5t-286.5 72.5zM818 226q80 46 127 126.5t47 177.5t-47 177t-127 126t-176 46t-176 -46t-126.5 -126
t-46.5 -177q0 -98 46.5 -178t126.5 -126t176 -46t176 46zM574.5 -493.5q-32.5 18.5 -51.5 51t-19 70.5q0 37 19 69t51.5 51t69.5 19t69 -19t51 -51t19 -69q0 -38 -19 -70t-51 -51t-69 -19t-69.5 18.5zM331 1231l220 298h181l222 -298l-103 -64l-208 253l-210 -253z" />
    <glyph glyph-name="uni1EDA" unicode="&#x1eda;" horiz-adv-x="1807" 
d="M1786 1532v-148q0 -120 -49 -178t-126 -65q92 -172 92 -373q0 -218 -106 -398.5t-289 -285t-404 -104.5t-404.5 104.5t-289.5 285t-106 398.5t106 398.5t289.5 285t404.5 104.5q196 0 364 -83.5t278 -230.5q49 2 71 39t22 94v157h147zM1188 279.5q129 74.5 204 203.5
t75 285t-75 285t-204 203.5t-284 74.5t-284.5 -74.5t-204.5 -204t-75 -284.5t75 -284.5t204.5 -204t284.5 -74.5t284 74.5zM1079 1685l264 343l123 -91l-230 -252h-157z" />
    <glyph glyph-name="uni1EDB" unicode="&#x1edb;" horiz-adv-x="1286" 
d="M1298 1246v-148q0 -127 -55.5 -185t-138.5 -59q51 -69 78 -151t27 -173q0 -154 -75 -279.5t-204.5 -198t-286.5 -72.5t-286.5 72.5t-204.5 198t-75 279.5q0 153 75 278.5t204.5 198t286.5 72.5q97 0 185 -28.5t160 -81.5q34 -13 65 -13q52 0 75 37.5t23 95.5v157h147z
M818 226q80 46 127 126.5t47 177.5t-47 177t-127 126t-176 46t-176 -46t-126.5 -126t-46.5 -177q0 -98 46.5 -178t126.5 -126t176 -46t176 46zM818 1207l264 343l123 -91l-230 -252h-157z" />
    <glyph glyph-name="uni1EDC" unicode="&#x1edc;" horiz-adv-x="1807" 
d="M1786 1532v-148q0 -120 -49 -178t-126 -65q92 -172 92 -373q0 -218 -106 -398.5t-289 -285t-404 -104.5t-404.5 104.5t-289.5 285t-106 398.5t106 398.5t289.5 285t404.5 104.5q196 0 364 -83.5t278 -230.5q49 2 71 39t22 94v157h147zM1188 279.5q129 74.5 204 203.5
t75 285t-75 285t-204 203.5t-284 74.5t-284.5 -74.5t-204.5 -204t-75 -284.5t75 -284.5t204.5 -204t284.5 -74.5t284 74.5zM595 1937l123 91l264 -343h-157z" />
    <glyph glyph-name="uni1EDD" unicode="&#x1edd;" horiz-adv-x="1286" 
d="M1298 1246v-148q0 -127 -55.5 -185t-138.5 -59q51 -69 78 -151t27 -173q0 -154 -75 -279.5t-204.5 -198t-286.5 -72.5t-286.5 72.5t-204.5 198t-75 279.5q0 153 75 278.5t204.5 198t286.5 72.5q97 0 185 -28.5t160 -81.5q34 -13 65 -13q52 0 75 37.5t23 95.5v157h147z
M818 226q80 46 127 126.5t47 177.5t-47 177t-127 126t-176 46t-176 -46t-126.5 -126t-46.5 -177q0 -98 46.5 -178t126.5 -126t176 -46t176 46zM334 1459l123 91l264 -343h-157z" />
    <glyph glyph-name="uni1EDE" unicode="&#x1ede;" horiz-adv-x="1807" 
d="M1786 1532v-148q0 -120 -49 -178t-126 -65q92 -172 92 -373q0 -218 -106 -398.5t-289 -285t-404 -104.5t-404.5 104.5t-289.5 285t-106 398.5t106 398.5t289.5 285t404.5 104.5q196 0 364 -83.5t278 -230.5q49 2 71 39t22 94v157h147zM1188 279.5q129 74.5 204 203.5
t75 285t-75 285t-204 203.5t-284 74.5t-284.5 -74.5t-204.5 -204t-75 -284.5t75 -284.5t204.5 -204t284.5 -74.5t284 74.5zM851 1746q118 23 118 104q0 32 -21 52.5t-56 20.5q-45 0 -91 -35l-62 89q69 56 157 56q57 0 101.5 -23t69.5 -64t25 -93q0 -61 -34 -102.5t-96 -59.5
v-79h-111v134z" />
    <glyph glyph-name="uni1EDF" unicode="&#x1edf;" horiz-adv-x="1286" 
d="M1298 1246v-148q0 -127 -55.5 -185t-138.5 -59q51 -69 78 -151t27 -173q0 -154 -75 -279.5t-204.5 -198t-286.5 -72.5t-286.5 72.5t-204.5 198t-75 279.5q0 153 75 278.5t204.5 198t286.5 72.5q97 0 185 -28.5t160 -81.5q34 -13 65 -13q52 0 75 37.5t23 95.5v157h147z
M818 226q80 46 127 126.5t47 177.5t-47 177t-127 126t-176 46t-176 -46t-126.5 -126t-46.5 -177q0 -98 46.5 -178t126.5 -126t176 -46t176 46zM590 1268q118 23 118 104q0 32 -21 52.5t-56 20.5q-45 0 -91 -35l-62 89q69 56 157 56q57 0 101.5 -23t69.5 -64t25 -93
q0 -61 -34 -102.5t-96 -59.5v-79h-111v134z" />
    <glyph glyph-name="uni1EE0" unicode="&#x1ee0;" horiz-adv-x="1807" 
d="M1786 1532v-148q0 -120 -49 -178t-126 -65q92 -172 92 -373q0 -218 -106 -398.5t-289 -285t-404 -104.5t-404.5 104.5t-289.5 285t-106 398.5t106 398.5t289.5 285t404.5 104.5q196 0 364 -83.5t278 -230.5q49 2 71 39t22 94v157h147zM1188 279.5q129 74.5 204 203.5
t75 285t-75 285t-204 203.5t-284 74.5t-284.5 -74.5t-204.5 -204t-75 -284.5t75 -284.5t204.5 -204t284.5 -74.5t284 74.5zM852 1847q-19 30 -39.5 43t-46.5 13q-47 0 -73 -43.5t-26 -112.5h-120q0 79 26 141t75 97t114 35q115 0 189 -112q17 -27 38.5 -41.5t51.5 -14.5
q47 0 72 41t25 114h119q0 -78 -25 -140t-73.5 -97.5t-116.5 -35.5q-117 0 -190 113z" />
    <glyph glyph-name="uni1EE1" unicode="&#x1ee1;" horiz-adv-x="1286" 
d="M1298 1246v-148q0 -127 -55.5 -185t-138.5 -59q51 -69 78 -151t27 -173q0 -154 -75 -279.5t-204.5 -198t-286.5 -72.5t-286.5 72.5t-204.5 198t-75 279.5q0 153 75 278.5t204.5 198t286.5 72.5q97 0 185 -28.5t160 -81.5q34 -13 65 -13q52 0 75 37.5t23 95.5v157h147z
M818 226q80 46 127 126.5t47 177.5t-47 177t-127 126t-176 46t-176 -46t-126.5 -126t-46.5 -177q0 -98 46.5 -178t126.5 -126t176 -46t176 46zM591 1369q-19 30 -39.5 43t-46.5 13q-47 0 -73 -43.5t-26 -112.5h-120q0 79 26 141t75 97t114 35q115 0 189 -112
q17 -27 38.5 -41.5t51.5 -14.5q47 0 72 41t25 114h119q0 -78 -25 -140t-73.5 -97.5t-116.5 -35.5q-117 0 -190 113z" />
    <glyph glyph-name="uni1EE2" unicode="&#x1ee2;" horiz-adv-x="1807" 
d="M1786 1532v-148q0 -120 -49 -178t-126 -65q92 -172 92 -373q0 -218 -106 -398.5t-289 -285t-404 -104.5t-404.5 104.5t-289.5 285t-106 398.5t106 398.5t289.5 285t404.5 104.5q196 0 364 -83.5t278 -230.5q49 2 71 39t22 94v157h147zM1188 279.5q129 74.5 204 203.5
t75 285t-75 285t-204 203.5t-284 74.5t-284.5 -74.5t-204.5 -204t-75 -284.5t75 -284.5t204.5 -204t284.5 -74.5t284 74.5zM835.5 -493.5q-32.5 18.5 -51.5 51t-19 70.5q0 37 19 69t51.5 51t69.5 19t69 -19t51 -51t19 -69q0 -38 -19 -70t-51 -51t-69 -19t-69.5 18.5z" />
    <glyph glyph-name="uni1EE3" unicode="&#x1ee3;" horiz-adv-x="1286" 
d="M1298 1246v-148q0 -127 -55.5 -185t-138.5 -59q51 -69 78 -151t27 -173q0 -154 -75 -279.5t-204.5 -198t-286.5 -72.5t-286.5 72.5t-204.5 198t-75 279.5q0 153 75 278.5t204.5 198t286.5 72.5q97 0 185 -28.5t160 -81.5q34 -13 65 -13q52 0 75 37.5t23 95.5v157h147z
M818 226q80 46 127 126.5t47 177.5t-47 177t-127 126t-176 46t-176 -46t-126.5 -126t-46.5 -177q0 -98 46.5 -178t126.5 -126t176 -46t176 46zM574.5 -493.5q-32.5 18.5 -51.5 51t-19 70.5q0 37 19 69t51.5 51t69.5 19t69 -19t51 -51t19 -69q0 -38 -19 -70t-51 -51t-69 -19
t-69.5 18.5z" />
    <glyph glyph-name="uni1EE4" unicode="&#x1ee4;" horiz-adv-x="1564" 
d="M471.5 45q-136.5 65 -214.5 187t-78 286v1018h236v-975q0 -188 99 -277.5t267 -89.5q169 0 268.5 89.5t99.5 277.5v975h236v-1018q0 -164 -78 -286t-215 -187t-311 -65q-173 0 -309.5 65zM712.5 -493.5q-32.5 18.5 -51.5 51t-19 70.5q0 37 19 69t51.5 51t69.5 19t69 -19
t51 -51t19 -69q0 -38 -19 -70t-51 -51t-69 -19t-69.5 18.5z" />
    <glyph glyph-name="uni1EE5" unicode="&#x1ee5;" horiz-adv-x="1191" 
d="M353.5 27q-102.5 47 -158 136.5t-55.5 212.5v683h220v-672q0 -103 64.5 -155.5t170.5 -52.5t170.5 52.5t64.5 155.5v672h220v-683q0 -123 -55.5 -212.5t-158 -136.5t-241.5 -47t-241.5 47zM524.5 -493.5q-32.5 18.5 -51.5 51t-19 70.5q0 37 19 69t51.5 51t69.5 19t69 -19
t51 -51t19 -69q0 -38 -19 -70t-51 -51t-69 -19t-69.5 18.5z" />
    <glyph glyph-name="uni1EE6" unicode="&#x1ee6;" horiz-adv-x="1564" 
d="M471.5 45q-136.5 65 -214.5 187t-78 286v1018h236v-975q0 -188 99 -277.5t267 -89.5q169 0 268.5 89.5t99.5 277.5v975h236v-1018q0 -164 -78 -286t-215 -187t-311 -65q-173 0 -309.5 65zM728 1746q118 23 118 104q0 32 -21 52.5t-56 20.5q-45 0 -91 -35l-62 89
q69 56 157 56q57 0 101.5 -23t69.5 -64t25 -93q0 -61 -34 -102.5t-96 -59.5v-79h-111v134z" />
    <glyph glyph-name="uni1EE7" unicode="&#x1ee7;" horiz-adv-x="1191" 
d="M353.5 27q-102.5 47 -158 136.5t-55.5 212.5v683h220v-672q0 -103 64.5 -155.5t170.5 -52.5t170.5 52.5t64.5 155.5v672h220v-683q0 -123 -55.5 -212.5t-158 -136.5t-241.5 -47t-241.5 47zM542 1269q118 23 118 104q0 32 -21 52.5t-56 20.5q-45 0 -91 -35l-62 89
q69 56 157 56q57 0 101.5 -23t69.5 -64t25 -93q0 -61 -34 -102.5t-96 -59.5v-79h-111v134z" />
    <glyph glyph-name="uni1EE8" unicode="&#x1ee8;" horiz-adv-x="1564" 
d="M1699 1672v-148q0 -128 -56 -186t-140 -58q-56 0 -118 22v-784q0 -164 -78 -286t-215 -187t-311 -65q-173 0 -309.5 65t-214.5 187t-78 286v1018h236v-975q0 -188 99 -277.5t267 -89.5q169 0 268.5 89.5t99.5 277.5v975h236v-139q35 -15 69 -15q52 0 75 37.5t23 95.5v157
h147zM956 1685l264 343l123 -91l-230 -252h-157z" />
    <glyph glyph-name="uni1EE9" unicode="&#x1ee9;" horiz-adv-x="1191" 
d="M1341 1195v-148q0 -128 -56 -186t-140 -58q-42 0 -95 14v-441q0 -123 -55.5 -212.5t-158 -136.5t-241.5 -47t-241.5 47t-158 136.5t-55.5 212.5v683h220v-672q0 -103 64.5 -155.5t170.5 -52.5t170.5 52.5t64.5 155.5v672h220v-147q25 -7 46 -7q52 0 75 37.5t23 95.5v157
h147zM770 1208l264 343l123 -91l-230 -252h-157z" />
    <glyph glyph-name="uni1EEA" unicode="&#x1eea;" horiz-adv-x="1564" 
d="M1699 1672v-148q0 -128 -56 -186t-140 -58q-56 0 -118 22v-784q0 -164 -78 -286t-215 -187t-311 -65q-173 0 -309.5 65t-214.5 187t-78 286v1018h236v-975q0 -188 99 -277.5t267 -89.5q169 0 268.5 89.5t99.5 277.5v975h236v-139q35 -15 69 -15q52 0 75 37.5t23 95.5v157
h147zM472 1937l123 91l264 -343h-157z" />
    <glyph glyph-name="uni1EEB" unicode="&#x1eeb;" horiz-adv-x="1191" 
d="M1341 1195v-148q0 -128 -56 -186t-140 -58q-42 0 -95 14v-441q0 -123 -55.5 -212.5t-158 -136.5t-241.5 -47t-241.5 47t-158 136.5t-55.5 212.5v683h220v-672q0 -103 64.5 -155.5t170.5 -52.5t170.5 52.5t64.5 155.5v672h220v-147q25 -7 46 -7q52 0 75 37.5t23 95.5v157
h147zM286 1460l123 91l264 -343h-157z" />
    <glyph glyph-name="uni1EEC" unicode="&#x1eec;" horiz-adv-x="1564" 
d="M1699 1672v-148q0 -128 -56 -186t-140 -58q-56 0 -118 22v-784q0 -164 -78 -286t-215 -187t-311 -65q-173 0 -309.5 65t-214.5 187t-78 286v1018h236v-975q0 -188 99 -277.5t267 -89.5q169 0 268.5 89.5t99.5 277.5v975h236v-139q35 -15 69 -15q52 0 75 37.5t23 95.5v157
h147zM728 1746q118 23 118 104q0 32 -21 52.5t-56 20.5q-45 0 -91 -35l-62 89q69 56 157 56q57 0 101.5 -23t69.5 -64t25 -93q0 -61 -34 -102.5t-96 -59.5v-79h-111v134z" />
    <glyph glyph-name="uni1EED" unicode="&#x1eed;" horiz-adv-x="1191" 
d="M1341 1195v-148q0 -128 -56 -186t-140 -58q-42 0 -95 14v-441q0 -123 -55.5 -212.5t-158 -136.5t-241.5 -47t-241.5 47t-158 136.5t-55.5 212.5v683h220v-672q0 -103 64.5 -155.5t170.5 -52.5t170.5 52.5t64.5 155.5v672h220v-147q25 -7 46 -7q52 0 75 37.5t23 95.5v157
h147zM542 1269q118 23 118 104q0 32 -21 52.5t-56 20.5q-45 0 -91 -35l-62 89q69 56 157 56q57 0 101.5 -23t69.5 -64t25 -93q0 -61 -34 -102.5t-96 -59.5v-79h-111v134z" />
    <glyph glyph-name="uni1EEE" unicode="&#x1eee;" horiz-adv-x="1564" 
d="M1699 1672v-148q0 -128 -56 -186t-140 -58q-56 0 -118 22v-784q0 -164 -78 -286t-215 -187t-311 -65q-173 0 -309.5 65t-214.5 187t-78 286v1018h236v-975q0 -188 99 -277.5t267 -89.5q169 0 268.5 89.5t99.5 277.5v975h236v-139q35 -15 69 -15q52 0 75 37.5t23 95.5v157
h147zM729 1847q-19 30 -39.5 43t-46.5 13q-47 0 -73 -43.5t-26 -112.5h-120q0 79 26 141t75 97t114 35q115 0 189 -112q17 -27 38.5 -41.5t51.5 -14.5q47 0 72 41t25 114h119q0 -78 -25 -140t-73.5 -97.5t-116.5 -35.5q-117 0 -190 113z" />
    <glyph glyph-name="uni1EEF" unicode="&#x1eef;" horiz-adv-x="1191" 
d="M1341 1195v-148q0 -128 -56 -186t-140 -58q-42 0 -95 14v-441q0 -123 -55.5 -212.5t-158 -136.5t-241.5 -47t-241.5 47t-158 136.5t-55.5 212.5v683h220v-672q0 -103 64.5 -155.5t170.5 -52.5t170.5 52.5t64.5 155.5v672h220v-147q25 -7 46 -7q52 0 75 37.5t23 95.5v157
h147zM543 1370q-19 30 -39.5 43t-46.5 13q-47 0 -73 -43.5t-26 -112.5h-120q0 79 26 141t75 97t114 35q115 0 189 -112q17 -27 38.5 -41.5t51.5 -14.5q47 0 72 41t25 114h119q0 -78 -25 -140t-73.5 -97.5t-116.5 -35.5q-117 0 -190 113z" />
    <glyph glyph-name="uni1EF0" unicode="&#x1ef0;" horiz-adv-x="1564" 
d="M1699 1672v-148q0 -128 -56 -186t-140 -58q-56 0 -118 22v-784q0 -164 -78 -286t-215 -187t-311 -65q-173 0 -309.5 65t-214.5 187t-78 286v1018h236v-975q0 -188 99 -277.5t267 -89.5q169 0 268.5 89.5t99.5 277.5v975h236v-139q35 -15 69 -15q52 0 75 37.5t23 95.5v157
h147zM712.5 -493.5q-32.5 18.5 -51.5 51t-19 70.5q0 37 19 69t51.5 51t69.5 19t69 -19t51 -51t19 -69q0 -38 -19 -70t-51 -51t-69 -19t-69.5 18.5z" />
    <glyph glyph-name="uni1EF1" unicode="&#x1ef1;" horiz-adv-x="1191" 
d="M1341 1195v-148q0 -128 -56 -186t-140 -58q-42 0 -95 14v-441q0 -123 -55.5 -212.5t-158 -136.5t-241.5 -47t-241.5 47t-158 136.5t-55.5 212.5v683h220v-672q0 -103 64.5 -155.5t170.5 -52.5t170.5 52.5t64.5 155.5v672h220v-147q25 -7 46 -7q52 0 75 37.5t23 95.5v157
h147zM524.5 -493.5q-32.5 18.5 -51.5 51t-19 70.5q0 37 19 69t51.5 51t69.5 19t69 -19t51 -51t19 -69q0 -38 -19 -70t-51 -51t-69 -19t-69.5 18.5z" />
    <glyph glyph-name="Ygrave" unicode="&#x1ef2;" horiz-adv-x="1389" 
d="M814 727v-727h-236v722l-538 814h279l377 -601l378 601h275zM388 1937l123 91l264 -343h-157z" />
    <glyph glyph-name="ygrave" unicode="&#x1ef3;" horiz-adv-x="1100" 
d="M1077 1059l-624 -1557h-232l216 544l-414 1013h246l287 -790l281 790h240zM242 1460l123 91l264 -343h-157z" />
    <glyph glyph-name="uni1EF4" unicode="&#x1ef4;" horiz-adv-x="1389" 
d="M814 727v-727h-236v722l-538 814h279l377 -601l378 601h275zM628.5 -493.5q-32.5 18.5 -51.5 51t-19 70.5q0 37 19 69t51.5 51t69.5 19t69 -19t51 -51t19 -69q0 -38 -19 -70t-51 -51t-69 -19t-69.5 18.5z" />
    <glyph glyph-name="uni1EF5" unicode="&#x1ef5;" horiz-adv-x="1100" 
d="M1077 1059l-624 -1557h-232l216 544l-414 1013h246l287 -790l281 790h240zM785.5 -493.5q-32.5 18.5 -51.5 51t-19 70.5q0 37 19 69t51.5 51t69.5 19t69 -19t51 -51t19 -69q0 -38 -19 -70t-51 -51t-69 -19t-69.5 18.5z" />
    <glyph glyph-name="uni1EF6" unicode="&#x1ef6;" horiz-adv-x="1389" 
d="M814 727v-727h-236v722l-538 814h279l377 -601l378 601h275zM644 1746q118 23 118 104q0 32 -21 52.5t-56 20.5q-45 0 -91 -35l-62 89q69 56 157 56q57 0 101.5 -23t69.5 -64t25 -93q0 -61 -34 -102.5t-96 -59.5v-79h-111v134z" />
    <glyph glyph-name="uni1EF7" unicode="&#x1ef7;" horiz-adv-x="1100" 
d="M1077 1059l-624 -1557h-232l216 544l-414 1013h246l287 -790l281 790h240zM498 1269q118 23 118 104q0 32 -21 52.5t-56 20.5q-45 0 -91 -35l-62 89q69 56 157 56q57 0 101.5 -23t69.5 -64t25 -93q0 -61 -34 -102.5t-96 -59.5v-79h-111v134z" />
    <glyph glyph-name="uni1EF8" unicode="&#x1ef8;" horiz-adv-x="1389" 
d="M814 727v-727h-236v722l-538 814h279l377 -601l378 601h275zM645 1847q-19 30 -39.5 43t-46.5 13q-47 0 -73 -43.5t-26 -112.5h-120q0 79 26 141t75 97t114 35q115 0 189 -112q17 -27 38.5 -41.5t51.5 -14.5q47 0 72 41t25 114h119q0 -78 -25 -140t-73.5 -97.5
t-116.5 -35.5q-117 0 -190 113z" />
    <glyph glyph-name="uni1EF9" unicode="&#x1ef9;" horiz-adv-x="1100" 
d="M1077 1059l-624 -1557h-232l216 544l-414 1013h246l287 -790l281 790h240zM499 1370q-19 30 -39.5 43t-46.5 13q-47 0 -73 -43.5t-26 -112.5h-120q0 79 26 141t75 97t114 35q115 0 189 -112q17 -27 38.5 -41.5t51.5 -14.5q47 0 72 41t25 114h119q0 -78 -25 -140
t-73.5 -97.5t-116.5 -35.5q-117 0 -190 113z" />
    <glyph glyph-name="endash" unicode="&#x2013;" horiz-adv-x="1352" 
d="M164 624h1024v-183h-1024v183z" />
    <glyph glyph-name="emdash" unicode="&#x2014;" horiz-adv-x="2040" 
d="M-4 624h2048v-183h-2048v183z" />
    <glyph glyph-name="quoteleft" unicode="&#x2018;" horiz-adv-x="609" 
d="M463 1537l-109 -642h-246l190 642h165z" />
    <glyph glyph-name="quoteright" unicode="&#x2019;" horiz-adv-x="609" 
d="M146 894l109 642h246l-190 -642h-165z" />
    <glyph glyph-name="quotesinglbase" unicode="&#x201a;" horiz-adv-x="609" 
d="M146 -376l109 642h246l-190 -642h-165z" />
    <glyph glyph-name="quotedblleft" unicode="&#x201c;" horiz-adv-x="1022" 
d="M464 1537l-109 -642h-246l190 642h165zM876 1537l-109 -642h-246l190 642h165z" />
    <glyph glyph-name="quotedblright" unicode="&#x201d;" horiz-adv-x="1022" 
d="M558 894l109 642h246l-190 -642h-165zM146 894l109 642h246l-190 -642h-165z" />
    <glyph glyph-name="quotedblbase" unicode="&#x201e;" horiz-adv-x="1019" 
d="M556 -376l109 642h246l-190 -642h-165zM146 -376l109 642h246l-190 -642h-165z" />
    <glyph glyph-name="dagger" unicode="&#x2020;" horiz-adv-x="1032" 
d="M936 841h-350v-1189h-149v1189h-341v149h341v382h149v-382h350v-149z" />
    <glyph glyph-name="daggerdbl" unicode="&#x2021;" horiz-adv-x="1103" 
d="M622 841v-646h350v-147h-350v-396h-149v396h-342v147h342v646h-342v149h342v382h149v-382h350v-149h-350z" />
    <glyph glyph-name="bullet" unicode="&#x2022;" horiz-adv-x="906" 
d="M312 421q-66 38 -105.5 103t-39.5 144q0 76 39.5 142t105.5 105.5t142 39.5q75 0 140.5 -39.5t105 -105.5t39.5 -142q0 -79 -39 -144t-105 -103t-141 -38q-76 0 -142 38z" />
    <glyph glyph-name="ellipsis" unicode="&#x2026;" horiz-adv-x="1894" 
d="M872 -1.5q-32 18.5 -51 50.5t-19 70q0 37 19 69t51 51.5t69 19.5t69.5 -19.5t51.5 -51.5t19 -69q0 -38 -19 -70t-51.5 -50.5t-69.5 -18.5t-69 18.5zM1490 -1.5q-32 18.5 -51 50.5t-19 70q0 37 19 69t51 51.5t69 19.5t69.5 -19.5t51.5 -51.5t19 -69q0 -38 -19 -70
t-51.5 -50.5t-69.5 -18.5t-69 18.5zM264 -1.5q-32 18.5 -51 50.5t-19 70q0 37 19 69t51 51.5t69 19.5t69.5 -19.5t51.5 -51.5t19 -69q0 -38 -19 -70t-51.5 -50.5t-69.5 -18.5t-69 18.5z" />
    <glyph glyph-name="perthousand" unicode="&#x2030;" horiz-adv-x="2485" 
d="M283 930.5q-77 45.5 -122.5 123t-45.5 169.5q0 90 45.5 166.5t122.5 121.5t168 45t167.5 -45t121.5 -121t45 -167q0 -92 -45 -169.5t-121.5 -123t-167.5 -45.5t-168 45.5zM299 0l894 1536h219l-892 -1536h-221zM533.5 1079q37.5 22 59.5 60.5t22 83.5q0 44 -22 81.5
t-60 60t-82 22.5q-45 0 -83 -22t-60.5 -60t-22.5 -82q0 -45 22.5 -83t60.5 -60.5t83 -22.5t82.5 22zM1099 29q-77 45 -122 122t-45 169q0 90 45 166.5t122 121.5t168 45t168 -45t122 -121.5t45 -166.5q0 -91 -45 -168t-122 -122.5t-168 -45.5t-168 45zM1869 29
q-77 45 -122 122t-45 169q0 90 45 166.5t122 121.5t168 45t168 -45t122 -121.5t45 -166.5q0 -91 -45 -168t-122 -122.5t-168 -45.5t-168 45zM1350 176.5q38 22.5 60 60.5t22 83q0 44 -22.5 81.5t-60.5 60t-82 22.5q-45 0 -83 -22t-60 -59.5t-22 -82.5t22 -83t60 -60.5
t83 -22.5t83 22.5zM2120.5 176q37.5 22 59.5 60.5t22 83.5q0 44 -22.5 81.5t-60.5 60t-82 22.5q-45 0 -83 -22t-60 -59.5t-22 -82.5t22 -83t60 -60.5t83 -22.5q46 0 83.5 22z" />
    <glyph glyph-name="guilsinglleft" unicode="&#x2039;" horiz-adv-x="642" 
d="M67 571l311 377h187l-311 -377l311 -376h-187z" />
    <glyph glyph-name="guilsinglright" unicode="&#x203a;" horiz-adv-x="642" 
d="M389 571l-312 377h187l311 -377l-311 -376h-187z" />
    <glyph glyph-name="fraction" unicode="&#x2044;" horiz-adv-x="427" 
d="M559 1536h175l-866 -1536h-175z" />
    <glyph glyph-name="Euro" unicode="&#x20ac;" horiz-adv-x="1678" 
d="M1205.5 253.5q95.5 50.5 160.5 141.5l187 -144q-97 -124 -244 -197.5t-306 -73.5q-158 0 -296.5 69t-238.5 191.5t-147 279.5h-170v157h140q-5 50 -5 91q0 47 4 84h-139v157h168q46 159 146 283.5t239.5 194t298.5 69.5t306 -73.5t244 -197.5l-187 -144
q-65 91 -160.5 141.5t-202.5 50.5q-97 0 -183 -40.5t-152 -113.5t-104 -170h508v-157h-547q-5 -45 -5 -84q0 -46 6 -91h546v-157h-505q38 -95 104 -166.5t151 -111t181 -39.5q107 0 202.5 50.5z" />
    <glyph glyph-name="uni2113" unicode="&#x2113;" horiz-adv-x="1277" 
d="M484.5 40q-89.5 51 -137.5 135.5t-61 189.5q0 15 -1 21q-37 -23 -92 -66q-28 -22 -42 -32l-64 122q12 9 86 65q58 43 109 85v570q0 194 55 317t144.5 178t199.5 55q108 0 181.5 -50.5t108.5 -135.5t35 -188q0 -195 -129 -386.5t-378 -408.5v-62q1 -92 36.5 -156.5t93 -96
t124.5 -31.5q104 0 192.5 66t143.5 158l101 -95q-88 -156 -213 -230.5t-274 -74.5q-129 0 -218.5 51zM755 1022.5q92 145.5 92 279.5q0 223 -162 223q-47 0 -89.5 -35t-70.5 -117t-28 -214v-447q166 165 258 310.5z" />
    <glyph glyph-name="uni2116" unicode="&#x2116;" horiz-adv-x="3140" 
d="M1412 1536h230v-1536h-200l-962 1169v-1169h-229v1536h198l963 -1166v1166zM2144.5 436.5q-129.5 72.5 -204.5 198t-75 279.5q0 153 75 278.5t204.5 198t286.5 72.5t286.5 -72.5t204.5 -198t75 -278.5q0 -154 -75 -279.5t-204.5 -198t-286.5 -72.5t-286.5 72.5z
M2254 1217q-80 -46 -126.5 -126t-46.5 -177q0 -98 46.5 -178t126.5 -126t176 -46t176 46t127 126.5t47 177.5t-47 177t-127 126t-176 46t-176 -46zM1970 158h924v-158h-924v158z" />
    <glyph glyph-name="trademark" unicode="&#x2122;" horiz-adv-x="1732" 
d="M120 1536h503v-110h-190v-608h-125v608h-188v110zM1481 1536v-718h-124v522l-256 -379l-255 377v-520h-126v718h136l245 -366l247 366h133z" />
    <glyph glyph-name="estimated" unicode="&#x212e;" horiz-adv-x="2001" 
d="M577 87.5q-201 105.5 -319 285.5t-118 393q0 215 117.5 396.5t318.5 287.5t439 106q239 0 440 -106t319 -287.5t118 -396.5v-21h-1418q-12 0 -12 -8v-430q0 -24 18 -49q107 -109 245.5 -171t291.5 -62q167 0 313.5 69.5t251.5 192.5h125q-118 -141 -300.5 -223
t-391.5 -82q-237 0 -438 105.5zM1562 788q4 0 6 4.5t2 10.5v430q0 15 -5 28.5t-15 22.5q-107 105 -244 165t-289 60q-151 0 -288.5 -61.5t-245.5 -169.5q-21 -23 -21 -53v-422q0 -5 3.5 -10t8.5 -5h1088z" />
    <glyph glyph-name="partialdiff" unicode="&#x2202;" horiz-adv-x="1228" 
d="M475 1461q166 0 301.5 -101t213.5 -278.5t78 -396.5q0 -193 -68 -348t-188.5 -242.5t-270.5 -87.5q-125 0 -217.5 48.5t-142 136t-49.5 202.5q0 107 45 230q45 120 118.5 205.5t166 129.5t193.5 44q84 0 162 -29q-45 147 -138 229t-223 82q-40 0 -85 -9v175q50 10 104 10
zM851 789q-88 54 -172 54q-98 0 -177 -70.5t-126 -202.5q-31 -86 -31 -168q0 -72 26 -125.5t72 -82.5t105 -29q79 0 149.5 67t113.5 189t43 281q0 45 -3 87z" />
    <glyph glyph-name="emptyset" unicode="&#x2205;" horiz-adv-x="1553" 
d="M1350 810q39 -102 39 -214q0 -166 -82.5 -306.5t-223 -223t-306.5 -82.5q-112 0 -214.5 39t-184.5 109l-89 -89l-65 66l88 88q-70 82 -109 184.5t-39 214.5q0 166 82.5 306.5t223.5 223t307 82.5q112 0 214 -39t184 -109l89 89l66 -66l-89 -88q70 -83 109 -185z
M375.5 453.5q24.5 -68.5 68.5 -124.5l599 599q-55 44 -123.5 68.5t-142.5 24.5q-117 0 -214.5 -57t-154.5 -154.5t-57 -213.5q0 -74 24.5 -142.5zM990.5 228q97.5 57 154.5 154.5t57 213.5q0 74 -24.5 142.5t-68.5 123.5l-599 -598q56 -44 124.5 -68.5t142.5 -24.5
q116 0 213.5 57z" />
    <glyph glyph-name="product" unicode="&#x220f;" horiz-adv-x="1662" 
d="M1521 1237h-136v-1237h-202v1237h-703v-1237h-203v1237h-136v203h1380v-203z" />
    <glyph glyph-name="summation" unicode="&#x2211;" horiz-adv-x="1445" 
d="M121 -88l717 686l-717 686v156h1194v-196h-859l659 -646l-659 -646h859v-196l-1194 3v153z" />
    <glyph glyph-name="minus" unicode="&#x2212;" horiz-adv-x="1290" 
d="M248 783h794v-193h-794v193z" />
    <glyph glyph-name="radical" unicode="&#x221a;" horiz-adv-x="1466" 
d="M252 688h-146v189h280l191 -584l594 1243h207l-735 -1536h-168z" />
    <glyph glyph-name="infinity" unicode="&#x221e;" horiz-adv-x="1732" 
d="M333.5 314.5q-69.5 41.5 -109.5 115t-43 166.5q3 93 43 166.5t109.5 115t155.5 41.5q89 0 185 -51.5t190 -148.5q93 96 190 148t185 52q90 0 159 -39.5t107.5 -112.5t41.5 -171q-3 -98 -41.5 -171t-107.5 -112.5t-159 -39.5q-88 0 -185 51.5t-190 147.5
q-94 -96 -190 -147.5t-185 -51.5q-86 0 -155.5 41.5zM613 480q68 40 140 116q-72 76 -140 116t-124 40q-38 0 -70.5 -20.5t-52 -56t-19.5 -79.5t19.5 -79.5t52 -56t70.5 -20.5q56 0 124 40zM1339 483q40 43 42 113q-2 70 -42 113t-100 43q-57 0 -125 -40.5t-140 -115.5
q72 -75 140 -115.5t125 -40.5q60 0 100 43z" />
    <glyph glyph-name="integral" unicode="&#x222b;" horiz-adv-x="983" 
d="M95 -234q105 0 165.5 25.5t87 82.5t26.5 154v1101q0 92 40.5 164.5t111.5 113.5t157 41q58 0 115.5 -18.5t100.5 -57.5l-98 -176q-45 42 -99 42q-48 0 -78 -35t-30 -108v-1080q0 -148 -62 -254t-175 -162t-262 -56v223z" />
    <glyph glyph-name="approxequal" unicode="&#x2248;" horiz-adv-x="1426" 
d="M800.5 689.5q-55.5 25.5 -88 55t-76.5 76.5q-32 34 -59 49t-56 15q-68 0 -106 -56.5t-38 -146.5h-180q0 114 39 201.5t113 135.5t174 48q79 0 139 -35.5t124 -113.5q32 -39 58.5 -59t66.5 -20q61 0 99.5 55t39.5 147h179q0 -108 -36.5 -193.5t-105 -134.5t-161.5 -49
q-70 0 -125.5 25.5zM800.5 233.5q-55.5 25.5 -88.5 55t-76 75.5q-32 35 -56 50t-59 15q-69 -2 -106.5 -58t-37.5 -145h-180q0 115 39 202.5t113 135.5t174 48q78 0 138.5 -35.5t124.5 -113.5q29 -37 57 -58t68 -21q61 0 99.5 54t39.5 148h179q0 -108 -36.5 -194t-105 -135
t-161.5 -49q-70 0 -125.5 25.5z" />
    <glyph glyph-name="notequal" unicode="&#x2260;" horiz-adv-x="1199" 
d="M343 378h-135v192h235l123 235h-358v193h458l187 358h174l-187 -358h163v-193h-263l-124 -235h387v-192h-485l-198 -378h-175z" />
    <glyph glyph-name="lessequal" unicode="&#x2264;" horiz-adv-x="1451" 
d="M1279 1261l-917 -406l917 -409v-217l-1130 509v232l1130 504v-213zM149 171h1130v-171h-1130v171z" />
    <glyph glyph-name="greaterequal" unicode="&#x2265;" horiz-adv-x="1451" 
d="M1303 970v-232l-1131 -509v217l917 409l-917 406v213zM172 171h1131v-171h-1131v171z" />
    <glyph glyph-name="lozenge" unicode="&#x25ca;" horiz-adv-x="1416" 
d="M90 723l618 618l617 -616l-617 -619zM1072 725l-362 363l-366 -365l366 -363z" />
    <glyph glyph-name="uniF8FF" unicode="&#xf8ff;" horiz-adv-x="1843" 
d="M532 105q-179 105 -284 284t-105 389q0 211 105 390t283.5 283.5t389.5 104.5q212 0 390.5 -104.5t283.5 -283.5t105 -390t-105 -389.5t-284 -283.5t-390 -105q-210 0 -389 105zM1274.5 169q161.5 95 256.5 257t95 352q0 191 -94.5 353t-256.5 257t-354 95
q-190 0 -352 -95t-257 -257t-95 -353q0 -190 95 -352t257 -257t352 -95q192 0 353.5 95zM1304 457l-297 295q-10 11 -10 27t10 26l297 297q13 11 26 11q15 0 26 -11t11 -27q0 -15 -11 -26l-271 -271l271 -270q10 -10 10 -24t-10 -27q-11 -13 -27 -13q-14 0 -25 13z
M487.5 455q-10.5 11 -10.5 26v594q0 16 10.5 26.5t26.5 10.5q15 0 26 -10.5t11 -26.5v-594q0 -15 -11 -26t-26 -11q-16 0 -26.5 11zM895.5 455q-10.5 11 -10.5 26v594q0 16 10.5 26.5t25.5 10.5q16 0 26.5 -10.5t10.5 -26.5v-594q0 -15 -10.5 -26t-26.5 -11q-15 0 -25.5 11z
M598.5 752q-10.5 11 -10.5 26q0 16 10.5 26.5t25.5 10.5h187q15 0 26 -10.5t11 -26.5q0 -15 -11 -26t-26 -11h-187q-15 0 -25.5 11z" />
    <glyph glyph-name="i.loclTRK" horiz-adv-x="556" 
d="M167 1059h222v-1059h-222v1059zM210.5 1297.5q-32.5 18.5 -51.5 50.5t-19 69q0 39 19 70.5t51 50t70 18.5q37 0 69 -18.5t51 -50t19 -70.5q0 -37 -19 -69t-51 -50.5t-69 -18.5t-69.5 18.5z" />
    <glyph glyph-name="f_t" horiz-adv-x="1431" 
d="M207 888h-173v171h173v167q0 100 39 174.5t112 115t171 40.5q43 0 86.5 -8t73.5 -23v-197q-24 16 -55 26t-60 10q-65 0 -104.5 -44t-39.5 -120v-141h440v293h223v-293h261v-171h-261v-552q0 -75 39 -116t105 -41h115v-179h-160q-98 0 -170.5 36t-112 105.5t-39.5 168.5
v578h-440v-888h-223v888z" />
    <glyph glyph-name="t_t" horiz-adv-x="1472" 
d="M358.5 36q-72.5 36 -112 105.5t-39.5 168.5v578h-173v171h173v293h223v-293h482v293h223v-293h261v-171h-261v-552q0 -75 39 -116t105 -41h115v-179h-160q-98 0 -170.5 36t-112 105.5t-39.5 168.5v578h-482v-552q0 -75 39 -116t105 -41h115v-179h-160q-98 0 -170.5 36z
" />
    <glyph glyph-name="zero.subs" horiz-adv-x="820" 
d="M232 -321.5q-77 59.5 -119.5 167t-42.5 246.5t42.5 246.5t119.5 167t177 59.5t177.5 -59.5t120.5 -167t43 -246.5t-43 -246.5t-120.5 -167t-177.5 -59.5t-177 59.5zM502.5 -188.5q41.5 40.5 65 113.5t23.5 167t-23.5 167t-65 113.5t-93.5 40.5q-53 0 -94.5 -40.5
t-65 -113.5t-23.5 -167t23.5 -167t65 -113.5t94.5 -40.5q52 0 93.5 40.5z" />
    <glyph glyph-name="one.subs" horiz-adv-x="509" 
d="M368 553v-922h-153v761l-196 -153v155l209 159h140z" />
    <glyph glyph-name="two.subs" horiz-adv-x="738" 
d="M674 -245v-124h-621v145q189 150 286 245t128.5 152t31.5 108q0 78 -38.5 114t-95.5 36q-69 0 -105 -43t-35 -111h-159q0 85 38.5 151t107 102.5t155.5 36.5q83 0 147.5 -34.5t100.5 -97t36 -144.5q0 -81 -41.5 -160.5t-137 -170.5t-257.5 -205h459z" />
    <glyph glyph-name="three.subs" horiz-adv-x="718" 
d="M615.5 48q37.5 -60 37.5 -138q0 -79 -40 -146t-110.5 -106t-156.5 -39q-83 0 -152 35.5t-109 97.5t-40 139l153 1q1 -60 45.5 -97.5t105.5 -37.5q66 0 108.5 42.5t42.5 110.5q0 67 -42 107t-111 40h-65v126h53q56 0 92 35.5t36 91.5t-34 88.5t-87 32.5q-52 0 -85 -31
t-35 -88l-151 1q0 74 35.5 131.5t97 89t136.5 31.5q74 0 134 -31.5t94 -87t34 -124.5q0 -57 -24 -102.5t-67 -76.5q67 -35 104.5 -95z" />
    <glyph glyph-name="four.subs" horiz-adv-x="761" 
d="M697 -174h-93v-195h-152v195h-432v117l381 610h203v-603h93v-124zM452 -50v475l-286 -475h286z" />
    <glyph glyph-name="five.subs" horiz-adv-x="790" 
d="M637.5 149q81.5 -77 81.5 -216q0 -94 -42 -165t-115.5 -109.5t-164.5 -38.5q-88 0 -160.5 31.5t-118 94.5t-50.5 152h156q11 -71 57 -106.5t109 -35.5q79 0 125 47t46 124q0 170 -195 170h-278l90 457h506v-134h-394l-37 -194h137q166 0 247.5 -77z" />
    <glyph glyph-name="six.subs" horiz-adv-x="741" 
d="M656.5 -221q-44.5 -73 -119 -115.5t-161.5 -42.5q-92 0 -171 41t-125.5 113.5t-46.5 161.5q0 104 75 207l309 409h183l-242 -301q17 3 37 3q15 0 23 -1q68 -5 133.5 -46.5t107.5 -112t42 -156.5q0 -87 -44.5 -160zM463.5 -212.5q40.5 23.5 63.5 63.5t23 87q0 54 -24 96
t-66 65t-92 23q-83 0 -131.5 -50.5t-48.5 -129.5q0 -80 51 -129t133 -49q51 0 91.5 23.5z" />
    <glyph glyph-name="seven.subs" horiz-adv-x="677" 
d="M665 553v-112l-442 -810h-179l436 780h-442v142h627z" />
    <glyph glyph-name="eight.subs" horiz-adv-x="754" 
d="M653 42q37 -62 37 -137q0 -80 -41 -145.5t-113 -103t-160 -37.5q-89 0 -160.5 37.5t-112.5 103t-41 145.5q0 75 37 137t102 99q-42 31 -63.5 78.5t-21.5 107.5q0 67 34 121.5t93.5 85.5t133.5 31q72 0 131 -31.5t93 -85.5t34 -121q0 -59 -21.5 -107t-62.5 -79
q65 -37 102 -99zM287.5 400.5q-35.5 -35.5 -35.5 -90.5q0 -52 35.5 -87.5t89.5 -35.5q52 0 87.5 35.5t35.5 87.5q0 54 -35.5 90t-87.5 36q-54 0 -89.5 -35.5zM456 -223q36 22 57 60t21 83q0 44 -21 79.5t-57 56t-80 20.5q-45 0 -81.5 -20.5t-57 -56t-20.5 -79.5
q0 -45 21 -83t57 -60t81 -22q44 0 80 22z" />
    <glyph glyph-name="nine.subs" horiz-adv-x="741" 
d="M632 41l-309 -410h-184l243 301q-22 -2 -35 -2q-16 0 -25 1q-68 4 -134 45.5t-108.5 112t-42.5 157.5q0 86 44.5 159t119.5 116t162 43q94 0 173 -41.5t125 -114t46 -161.5q0 -103 -75 -206zM468 86q41 24 62.5 65.5t21.5 92.5q0 80 -51 128t-133 48q-51 0 -91.5 -23.5
t-63 -63t-22.5 -86.5q0 -55 24 -97t65.5 -65t91.5 -23q55 0 96 24z" />
    <glyph glyph-name="zero.dnom" horiz-adv-x="820" 
d="M232 47.5q-77 59.5 -119.5 167t-42.5 246.5t42.5 246.5t119.5 167t177 59.5t177.5 -59.5t120.5 -167t43 -246.5t-43 -246.5t-120.5 -167t-177.5 -59.5t-177 59.5zM502.5 179.5q41.5 40.5 65 114t23.5 167.5t-23.5 167t-65 113.5t-93.5 40.5q-53 0 -94.5 -40.5t-65 -113.5
t-23.5 -167t23.5 -167.5t65 -114t94.5 -40.5q52 0 93.5 40.5z" />
    <glyph glyph-name="one.dnom" horiz-adv-x="509" 
d="M368 922v-922h-153v760l-196 -153v156l209 159h140z" />
    <glyph glyph-name="two.dnom" horiz-adv-x="738" 
d="M674 124v-124h-621v144q189 151 286 245.5t128.5 151.5t31.5 108q0 78 -39 114.5t-95 36.5q-69 0 -105 -43t-35 -111h-159q0 85 38.5 151t107 102.5t155.5 36.5q83 0 147.5 -34.5t100.5 -97t36 -144.5t-41.5 -161t-137 -170t-257.5 -205h459z" />
    <glyph glyph-name="three.dnom" horiz-adv-x="718" 
d="M615.5 416.5q37.5 -60.5 37.5 -137.5q0 -79 -40 -146t-110.5 -106t-156.5 -39q-83 0 -152 35t-109 97t-40 139l153 2q1 -60 45.5 -97.5t105.5 -37.5q67 0 109 42.5t42 110.5q0 67 -42 107t-111 40h-65v126h53q56 0 92 35.5t36 91.5t-34 88.5t-87 32.5q-52 0 -85 -31
t-35 -89l-151 2q0 73 35.5 130.5t97 89.5t136.5 32q74 0 134 -32t94 -87.5t34 -124.5q0 -57 -23.5 -102.5t-66.5 -76.5q66 -34 103.5 -94.5z" />
    <glyph glyph-name="four.dnom" horiz-adv-x="761" 
d="M697 195h-93v-195h-152v195h-432v117l381 610h203v-603h93v-124zM452 319v475l-286 -475h286z" />
    <glyph glyph-name="five.dnom" horiz-adv-x="790" 
d="M637.5 517.5q81.5 -76.5 81.5 -215.5q0 -94 -42 -165t-115.5 -109.5t-164.5 -38.5q-87 0 -160 31.5t-118.5 94t-50.5 151.5h156q11 -71 57 -106t109 -35q79 0 125 47t46 124q0 170 -195 170h-278l90 456h506v-133h-394l-37 -195h137q166 0 247.5 -76.5z" />
    <glyph glyph-name="six.dnom" horiz-adv-x="741" 
d="M656.5 147q-44.5 -73 -119 -115.5t-161.5 -42.5q-92 0 -171 41.5t-125.5 114t-46.5 161.5q0 102 75 207l309 409h183l-243 -301q9 2 31 2q20 0 30 -1q68 -4 133.5 -45.5t107.5 -112t42 -157.5t-44.5 -160zM463.5 156.5q40.5 23.5 63.5 63.5t23 87q0 54 -24 96t-66 65
t-92 23q-55 0 -96 -23.5t-62.5 -64.5t-21.5 -92q0 -80 51 -129t133 -49q51 0 91.5 23.5z" />
    <glyph glyph-name="seven.dnom" horiz-adv-x="677" 
d="M665 922v-112l-442 -810h-179l436 779h-442v143h627z" />
    <glyph glyph-name="eight.dnom" horiz-adv-x="754" 
d="M653 411q37 -62 37 -138q0 -79 -41 -144.5t-113 -103t-160 -37.5q-89 0 -160.5 37.5t-112.5 102.5t-41 145q0 76 37 138t102 99q-42 31 -63.5 78.5t-21.5 106.5q0 67 34 121.5t93.5 86t133.5 31.5q72 0 131 -31.5t93 -86t34 -121.5q0 -59 -21.5 -106.5t-62.5 -78.5
q65 -37 102 -99zM287.5 768.5q-35.5 -35.5 -35.5 -89.5q0 -53 35.5 -88t89.5 -35q52 0 87.5 35.5t35.5 87.5q0 54 -35.5 89.5t-87.5 35.5q-54 0 -89.5 -35.5zM456 145q36 22 57 60t21 84q0 43 -21 79t-57 56.5t-80 20.5q-45 0 -81 -20.5t-57 -56.5t-21 -79q0 -46 21 -84
t57 -60t81 -22q44 0 80 22z" />
    <glyph glyph-name="nine.dnom" horiz-adv-x="741" 
d="M632 410l-309 -410h-184l242 300q-9 -2 -31 -2q-18 0 -28 1q-68 5 -134 46.5t-108.5 112t-42.5 156.5t44.5 159t119.5 116t162 43q94 0 173 -41.5t125 -113.5t46 -161q0 -105 -75 -206zM467 454q41 24 63 65.5t22 93.5q0 80 -51 128t-133 48q-51 0 -91.5 -23.5t-63 -63.5
t-22.5 -87q0 -54 23.5 -96.5t64.5 -65.5t91 -23q56 0 97 24z" />
    <glyph glyph-name="zero.numr" horiz-adv-x="820" 
d="M232 667.5q-77 59.5 -119.5 167t-42.5 246.5t42.5 246.5t119.5 167t177 59.5t177.5 -59.5t120.5 -167t43 -246.5t-43 -246.5t-120.5 -167t-177.5 -59.5t-177 59.5zM502.5 800.5q41.5 40.5 65 113.5t23.5 167t-23.5 167t-65 113t-93.5 40q-53 0 -94.5 -40t-65 -113
t-23.5 -167t23.5 -167t65 -113.5t94.5 -40.5q52 0 93.5 40.5z" />
    <glyph glyph-name="one.numr" horiz-adv-x="510" 
d="M370 1536v-922h-155l1 766l-197 -154v151l210 159h141z" />
    <glyph glyph-name="two.numr" horiz-adv-x="738" 
d="M674 738v-124h-621v145q189 151 286 245.5t128.5 151.5t31.5 108q0 78 -38.5 114t-95.5 36q-69 0 -105 -43t-35 -111h-159q0 85 38.5 151t107 102.5t155.5 36.5q83 0 147.5 -34.5t100.5 -97t36 -144.5q0 -81 -41.5 -160.5t-137 -170.5t-257.5 -205h459z" />
    <glyph glyph-name="three.numr" horiz-adv-x="718" 
d="M615 1030.5q38 -60.5 38 -137.5q0 -80 -40.5 -146.5t-110.5 -105.5t-156 -39q-83 0 -152 35.5t-109 97.5t-40 139l159 1q0 -61 41.5 -98t102.5 -37q65 0 106 42.5t41 111.5q0 67 -42.5 106.5t-114.5 39.5h-56v126h47q59 0 94 35.5t35 92.5q0 54 -33.5 87t-83.5 33
q-52 0 -83 -31t-31 -88l-156 1q0 74 35.5 131.5t97 89t137.5 31.5q74 0 133.5 -32t93.5 -87.5t34 -124.5q0 -56 -24 -102t-68 -76q67 -35 105 -95.5z" />
    <glyph glyph-name="four.numr" horiz-adv-x="761" 
d="M697 809h-93v-195h-152v195h-432v117l381 610h203v-603h93v-124zM452 933v475l-286 -475h286z" />
    <glyph glyph-name="five.numr" horiz-adv-x="790" 
d="M637.5 1132q81.5 -77 81.5 -216q0 -94 -42 -165t-115.5 -109.5t-164.5 -38.5q-87 0 -160 32t-118.5 94.5t-50.5 151.5h156q11 -71 57 -106.5t109 -35.5q79 0 125 47t46 124q0 170 -195 170h-278l90 457h506v-134h-394l-37 -194h137q166 0 247.5 -77z" />
    <glyph glyph-name="six.numr" horiz-adv-x="741" 
d="M656.5 762q-44.5 -73 -119 -115.5t-161.5 -42.5q-92 0 -171 41t-125.5 113.5t-46.5 161.5q0 104 75 207l309 409h183l-241 -301q15 3 36 3q15 0 23 -1q68 -5 133.5 -46.5t107.5 -112t42 -156.5q0 -87 -44.5 -160zM463.5 770.5q40.5 23.5 63.5 63.5t23 87q0 54 -24 96
t-65 65.5t-91 23.5q-56 0 -97 -23.5t-63 -65t-22 -92.5q0 -80 51 -129t133 -49q51 0 91.5 23.5z" />
    <glyph glyph-name="seven.numr" horiz-adv-x="677" 
d="M665 1536v-112l-442 -810h-179l436 780h-442v142h627z" />
    <glyph glyph-name="eight.numr" horiz-adv-x="754" 
d="M653 1025q37 -62 37 -137q0 -80 -41 -145.5t-113 -103t-160 -37.5q-89 0 -160.5 37.5t-112.5 103t-41 145.5q0 75 37 137t102 99q-42 31 -63.5 78.5t-21.5 107.5q0 67 34 121.5t93.5 85.5t133.5 31q72 0 131 -31.5t93 -85.5t34 -121q0 -59 -21.5 -107t-62.5 -79
q65 -37 102 -99zM287.5 1383q-35.5 -36 -35.5 -89t35.5 -88.5t89.5 -35.5q52 0 87.5 36t35.5 88q0 53 -35.5 89t-87.5 36q-54 0 -89.5 -36zM456 760q36 22 57 60t21 83q0 44 -21 79.5t-57 56t-80 20.5q-45 0 -81.5 -20.5t-57 -56t-20.5 -79.5q0 -45 21 -83t57 -60t81 -22
q44 0 80 22z" />
    <glyph glyph-name="nine.numr" horiz-adv-x="741" 
d="M632 1024l-309 -410h-184l243 301q-9 -2 -31 -2q-19 0 -29 1q-68 4 -134 45.5t-108.5 112t-42.5 157.5q0 86 44.5 159t119.5 116t162 43q94 0 173 -41.5t125 -114t46 -161.5q0 -103 -75 -206zM468 1069q41 24 62.5 65.5t21.5 92.5q0 80 -51 128t-133 48
q-51 0 -91.5 -23.5t-63 -63t-22.5 -86.5q0 -55 24 -97t65.5 -65t91.5 -23q55 0 96 24z" />
    <glyph glyph-name="zero.sups" horiz-adv-x="820" 
d="M232 1036q-77 60 -119.5 167.5t-42.5 246.5t42.5 246.5t119.5 167t177 59.5t177.5 -59.5t120.5 -167t43 -246.5t-43 -246.5t-120.5 -167.5t-177.5 -60t-177 60zM502.5 1168.5q41.5 40.5 65 113.5t23.5 168q0 94 -23.5 166.5t-65 112.5t-93.5 40q-53 0 -94.5 -40
t-65 -112.5t-23.5 -166.5q0 -95 23.5 -168t65 -113.5t94.5 -40.5q52 0 93.5 40.5z" />
    <glyph glyph-name="one.sups" horiz-adv-x="510" 
d="M370 1905v-922h-155l1 765l-197 -153v151l210 159h141z" />
    <glyph glyph-name="two.sups" horiz-adv-x="738" 
d="M674 1107v-124h-621v144q189 151 286 245.5t128.5 151.5t31.5 108q0 78 -39 114.5t-95 36.5q-69 0 -105 -43t-35 -111h-159q0 85 38.5 151t107 102.5t155.5 36.5q83 0 147.5 -34.5t100.5 -97t36 -144.5t-41.5 -161t-137 -170t-257.5 -205h459z" />
    <glyph glyph-name="three.sups" horiz-adv-x="718" 
d="M615 1399q38 -60 38 -137q0 -80 -40.5 -146.5t-110.5 -105.5t-156 -39q-83 0 -152 35t-109 97.5t-40 139.5l159 1q0 -61 41.5 -98t102.5 -37q65 0 106 42t41 111q0 67 -42.5 107t-114.5 40h-56v126h47q59 0 94 35.5t35 92.5q0 54 -33.5 87t-83.5 33q-52 0 -83 -31
t-31 -89l-156 2q0 74 35.5 131t97 89t137.5 32q73 0 133 -32t94 -87.5t34 -124.5q0 -57 -24 -103t-68 -76q67 -35 105 -95z" />
    <glyph glyph-name="four.sups" horiz-adv-x="761" 
d="M697 1178h-93v-195h-152v195h-432v117l381 610h203v-603h93v-124zM452 1302v475l-286 -475h286z" />
    <glyph glyph-name="five.sups" horiz-adv-x="790" 
d="M637.5 1500.5q81.5 -76.5 81.5 -215.5q0 -94 -42 -165t-115.5 -109.5t-164.5 -38.5q-87 0 -160 31.5t-118.5 94t-50.5 151.5h156q11 -71 57 -106t109 -35q79 0 125 47t46 124q0 170 -195 170h-278l90 456h506v-133h-394l-37 -195h137q166 0 247.5 -76.5z" />
    <glyph glyph-name="six.sups" horiz-adv-x="741" 
d="M656.5 1130q-44.5 -73 -119 -115.5t-161.5 -42.5q-92 0 -171 41.5t-125.5 114t-46.5 161.5q0 102 75 207l309 409h183l-242 -301q22 2 35 2q16 0 25 -1q68 -4 133.5 -45.5t107.5 -112t42 -157.5t-44.5 -160zM463.5 1139.5q40.5 23.5 63.5 63.5t23 87q0 54 -24 96t-66 65
t-92 23q-55 0 -96 -23.5t-62.5 -64.5t-21.5 -92q0 -80 51 -129t133 -49q51 0 91.5 23.5z" />
    <glyph glyph-name="seven.sups" horiz-adv-x="677" 
d="M665 1905v-112l-442 -810h-179l436 779h-442v143h627z" />
    <glyph glyph-name="eight.sups" horiz-adv-x="754" 
d="M653 1394q37 -62 37 -138q0 -79 -41 -144.5t-113 -103t-160 -37.5q-89 0 -160.5 37.5t-112.5 102.5t-41 145q0 76 37 138t102 99q-42 31 -63.5 78.5t-21.5 106.5q0 67 34 121.5t93.5 86t133.5 31.5q72 0 131 -31.5t93 -86t34 -121.5q0 -59 -21.5 -106.5t-62.5 -78.5
q65 -37 102 -99zM287.5 1751q-35.5 -36 -35.5 -89q0 -52 35.5 -87.5t89.5 -35.5q52 0 87.5 35.5t35.5 87.5q0 53 -35.5 89t-87.5 36q-54 0 -89.5 -36zM456 1129q36 22 57 59.5t21 83.5q0 43 -21 79t-57 56.5t-80 20.5q-45 0 -81 -20.5t-57 -56.5t-21 -79q0 -46 21 -83.5
t57 -59.5t81 -22q44 0 80 22z" />
    <glyph glyph-name="nine.sups" horiz-adv-x="741" 
d="M632 1393l-309 -410h-184l244 301q-18 -3 -38 -3q-15 0 -23 1q-68 5 -134 46.5t-108.5 112t-42.5 156.5t44.5 159t119.5 116t162 43q94 0 173 -41.5t125 -113.5t46 -161q0 -105 -75 -206zM468 1437.5q41 23.5 62.5 65t21.5 93.5q0 80 -51 128t-133 48q-51 0 -91.5 -23.5
t-63 -63.5t-22.5 -87q0 -54 24 -96t65.5 -65t91.5 -23q55 0 96 23.5z" />
    <glyph glyph-name="hyphen.subs" horiz-adv-x="950" 
d="M163 187h624v-139h-624v139z" />
    <glyph glyph-name="hyphen.sups" horiz-adv-x="950" 
d="M163 1518h624v-139h-624v139z" />
    <glyph glyph-name="plus.subs" horiz-adv-x="1107" 
d="M484 48h-321v139h321v320h139v-320h321v-139h-321v-321h-139v321z" />
    <glyph glyph-name="minus.subs" horiz-adv-x="950" 
d="M163 187h624v-139h-624v139z" />
    <glyph glyph-name="plus.sups" horiz-adv-x="1107" 
d="M484 1379h-321v139h321v320h139v-320h321v-139h-321v-321h-139v321z" />
    <glyph glyph-name="minus.sups" horiz-adv-x="950" 
d="M163 1518h624v-139h-624v139z" />
    <glyph glyph-name="uni0338.case" 
d="M-131 1602l130 -80l-1114 -1605l-131 78z" />
    <glyph glyph-name="uni03060301" 
d="M-580.5 1242q-79.5 39 -124 114.5t-44.5 179.5h134q0 -65 27.5 -115.5t77 -79t112.5 -28.5q64 0 113.5 28.5t77 79t27.5 115.5h134q0 -104 -44.5 -179.5t-124 -114.5t-183.5 -39q-103 0 -182.5 39zM-475 1685l264 343l123 -91l-230 -252h-157z" />
    <glyph glyph-name="uni03060300" 
d="M-597.5 1242q-79.5 39 -124 114.5t-44.5 179.5h134q0 -65 27.5 -115.5t77 -79t112.5 -28.5q64 0 113.5 28.5t77 79t27.5 115.5h134q0 -104 -44.5 -179.5t-124 -114.5t-183.5 -39q-103 0 -182.5 39zM-723 1937l123 91l264 -343h-157z" />
    <glyph glyph-name="uni03060309" 
d="M-586.5 1242q-79.5 39 -124 114.5t-44.5 179.5h134q0 -65 27.5 -115.5t77 -79t112.5 -28.5q64 0 113.5 28.5t77 79t27.5 115.5h134q0 -104 -44.5 -179.5t-124 -114.5t-183.5 -39q-103 0 -182.5 39zM-456 1746q118 23 118 104q0 32 -21 52.5t-56 20.5q-45 0 -91 -35
l-62 89q69 56 157 56q57 0 101.5 -23t69.5 -64t25 -93q0 -61 -34 -102.5t-96 -59.5v-79h-111v134z" />
    <glyph glyph-name="uni03060303" 
d="M-647.5 1242q-79.5 39 -124 114.5t-44.5 179.5h134q0 -65 27.5 -115.5t77 -79t112.5 -28.5q64 0 113.5 28.5t77 79t27.5 115.5h134q0 -104 -44.5 -179.5t-124 -114.5t-183.5 -39q-103 0 -182.5 39zM-516 1847q-19 30 -39.5 43t-46.5 13q-47 0 -73 -43.5t-26 -112.5h-120
q0 79 26 141t75 97t114 35q115 0 189 -112q17 -27 38.5 -41.5t51.5 -14.5q47 0 72 41t25 114h119q0 -78 -25 -140t-73.5 -97.5t-116.5 -35.5q-117 0 -190 113z" />
    <glyph glyph-name="uni03020301" 
d="M-643 1238l220 298h181l222 -298l-103 -64l-208 253l-210 -253zM-411 1685l264 343l123 -91l-230 -252h-157z" />
    <glyph glyph-name="uni03020300" 
d="M-640 1238l220 298h181l222 -298l-103 -64l-208 253l-210 -253zM-639 1937l123 91l264 -343h-157z" />
    <glyph glyph-name="uni03020309" 
d="M-664 1238l220 298h181l222 -298l-103 -64l-208 253l-210 -253zM-407 1746q118 23 118 104q0 32 -21 52.5t-56 20.5q-45 0 -91 -35l-62 89q69 56 157 56q57 0 101.5 -23t69.5 -64t25 -93q0 -61 -34 -102.5t-96 -59.5v-79h-111v134z" />
    <glyph glyph-name="uni03020303" 
d="M-730 1238l220 298h181l222 -298l-103 -64l-208 253l-210 -253zM-472 1847q-19 30 -39.5 43t-46.5 13q-47 0 -73 -43.5t-26 -112.5h-120q0 79 26 141t75 97t114 35q115 0 189 -112q17 -27 38.5 -41.5t51.5 -14.5q47 0 72 41t25 114h119q0 -78 -25 -140t-73.5 -97.5
t-116.5 -35.5q-117 0 -190 113z" />
    </font>
</defs>
</svg>
